M48
; DRILL file {KiCad (5.1.4)-1} date 2019/11/16 21:27:11
; FORMAT={-:-/ absolute / inch / decimal}
; #@! TF.CreationDate,2019-11-16T21:27:11+08:00
; #@! TF.GenerationSoftware,Kicad,Pcbnew,(5.1.4)-1
; #@! TF.FileFunction,Plated,1,2,PTH
FMAT,2
INCH
T1C0.0138
T2C0.0157
T3C0.0256
T4C0.0315
T5C0.0992
T6C0.1008
%
G90
G05
T1
X6.4591Y-4.3803
X6.5087Y-4.2606
X6.5583Y-4.3803
X6.4386Y-3.5433
X6.4591Y-3.4937
X6.4591Y-3.5929
X6.5087Y-3.4732
X6.5087Y-3.6134
X6.5583Y-3.4937
X6.5583Y-3.5929
X6.5787Y-3.5433
X2.8953Y-3.5433
X2.9157Y-3.4937
X2.9157Y-3.5929
X2.9654Y-3.4732
X2.9654Y-3.6134
X3.015Y-3.4937
X3.015Y-3.5929
X3.0354Y-3.5433
X6.4386Y-4.3307
X6.4591Y-4.2811
X6.5087Y-4.4008
X6.5583Y-4.2811
X6.5787Y-4.3307
X2.8953Y-4.3307
X2.9157Y-4.2811
X2.9157Y-4.3803
X2.9654Y-4.2606
X2.9654Y-4.4008
X3.015Y-4.2811
X3.015Y-4.3803
X3.0354Y-4.3307
T2
X3.1173Y-3.978
X3.1791Y-3.9012
X3.1913Y-4.0642
X3.2031Y-3.7531
X3.2657Y-3.8024
X3.3146Y-3.8232
X3.3264Y-3.9815
X3.337Y-3.5992
X3.3969Y-3.9039
X3.424Y-3.9756
X3.4642Y-3.8236
X3.4642Y-4.022
X3.5138Y-3.8429
X3.5193Y-3.5787
X3.5728Y-3.8189
X3.585Y-3.9713
X3.6646Y-3.8224
X3.6646Y-4.0409
X3.7382Y-4.0201
X3.7646Y-3.8157
X3.8366Y-4.1874
X3.837Y-3.5201
X3.9091Y-4.0457
X3.9961Y-3.7535
X4.015Y-3.9417
X4.0594Y-3.8134
X4.1098Y-3.822
X4.1197Y-3.9831
X4.1488Y-3.5815
X4.1953Y-3.9039
X4.2287Y-3.9831
X4.2594Y-3.8197
X4.2598Y-4.0299
X4.3102Y-3.8394
X4.3173Y-3.5787
X4.3661Y-3.8197
X4.3787Y-3.9728
X4.4594Y-3.8197
X4.4598Y-4.0429
X4.5331Y-4.0236
X4.5594Y-3.8181
X4.6343Y-4.1835
X4.6366Y-3.5197
X4.6902Y-4.0516
X4.7894Y-3.7492
X4.8264Y-3.9472
X4.8551Y-3.8228
X4.9051Y-3.824
X4.9205Y-3.978
X4.9453Y-3.5843
X4.9874Y-3.9039
X5.024Y-3.9776
X5.0543Y-4.0161
X5.0551Y-3.8189
X5.1055Y-3.8394
X5.113Y-3.5776
X5.163Y-3.8197
X5.172Y-3.976
X5.2543Y-4.0469
X5.2547Y-3.8138
X5.3283Y-4.0327
X5.3543Y-3.8181
X5.4362Y-4.1858
X5.4366Y-3.5201
X5.4961Y-4.0295
X5.5839Y-3.7484
X5.5839Y-3.7484
X5.7004Y-3.8283
X5.7004Y-3.8283
X5.7291Y-3.9705
X5.7291Y-3.9705
X5.737Y-3.587
X5.737Y-3.587
X5.7886Y-3.9039
X5.7886Y-3.9039
X5.8299Y-3.9717
X5.8299Y-3.9717
X5.85Y-3.8185
X5.85Y-3.8185
X5.85Y-4.0154
X5.85Y-4.0154
X5.9008Y-3.8323
X5.9008Y-3.8323
X5.9047Y-3.578
X5.9047Y-3.578
X5.95Y-3.8102
X5.95Y-3.8102
X5.9701Y-3.9677
X5.9701Y-3.9677
X6.05Y-3.8039
X6.05Y-3.8039
X6.05Y-4.039
X6.05Y-4.039
X6.1087Y-3.9425
X6.1205Y-4.0327
X6.1502Y-3.8144
X6.1502Y-3.8144
X6.2197Y-4.1563
X6.2551Y-3.7543
T3
X4.787Y-3.6417
X4.787Y-4.2323
X4.887Y-3.6417
X4.887Y-4.2323
X4.987Y-3.6417
X4.987Y-4.2323
X5.087Y-3.6417
X5.087Y-4.2323
X5.187Y-3.6417
X5.187Y-4.2323
X5.287Y-3.6417
X5.287Y-4.2323
X5.387Y-3.6417
X5.387Y-4.2323
X5.487Y-3.6417
X5.487Y-4.2323
X5.587Y-3.6417
X5.587Y-4.2323
X5.687Y-3.6417
X5.687Y-4.2323
X5.787Y-3.6417
X5.787Y-4.2323
X5.887Y-3.6417
X5.887Y-4.2323
X5.987Y-3.6417
X5.987Y-4.2323
X6.087Y-3.6417
X6.087Y-4.2323
X6.187Y-3.6417
X6.187Y-4.2323
X6.287Y-3.6417
X6.287Y-4.2323
X3.987Y-3.6417
X3.987Y-4.2323
X4.087Y-3.6417
X4.087Y-4.2323
X4.187Y-3.6417
X4.187Y-4.2323
X4.287Y-3.6417
X4.287Y-4.2323
X4.387Y-3.6417
X4.387Y-4.2323
X4.487Y-3.6417
X4.487Y-4.2323
X4.587Y-3.6417
X4.587Y-4.2323
X4.687Y-3.6417
X4.687Y-4.2323
X3.187Y-3.6417
X3.187Y-4.2323
X3.287Y-3.6417
X3.287Y-4.2323
X3.387Y-3.6417
X3.387Y-4.2323
X3.487Y-3.6417
X3.487Y-4.2323
X3.587Y-3.6417
X3.587Y-4.2323
X3.687Y-3.6417
X3.687Y-4.2323
X3.787Y-3.6417
X3.787Y-4.2323
X3.887Y-3.6417
X3.887Y-4.2323
T4
X2.9654Y-3.7795
X2.9654Y-3.8583
X2.9654Y-3.937
X2.9654Y-4.0157
X2.9654Y-4.0945
T5
X2.9654Y-3.5433
X2.9654Y-4.3307
X6.5087Y-3.5433
T6
X6.5087Y-4.3307
T0
M30
