G04 #@! TF.GenerationSoftware,KiCad,Pcbnew,(5.1.6)-1*
G04 #@! TF.CreationDate,2020-07-24T11:40:27+08:00*
G04 #@! TF.ProjectId,hack_clock,6861636b-5f63-46c6-9f63-6b2e6b696361,rev?*
G04 #@! TF.SameCoordinates,Original*
G04 #@! TF.FileFunction,Soldermask,Bot*
G04 #@! TF.FilePolarity,Negative*
%FSLAX46Y46*%
G04 Gerber Fmt 4.6, Leading zero omitted, Abs format (unit mm)*
G04 Created by KiCad (PCBNEW (5.1.6)-1) date 2020-07-24 11:40:27*
%MOMM*%
%LPD*%
G01*
G04 APERTURE LIST*
%ADD10C,0.150000*%
%ADD11C,0.300000*%
%ADD12C,0.400000*%
G04 APERTURE END LIST*
D10*
X177002200Y-166007200D02*
X177002200Y-198007200D01*
X285002200Y-198007200D01*
X285002200Y-166007200D01*
X177002200Y-166007200D01*
X10000000Y-10000000D02*
X10000000Y-200007200D01*
X287002200Y-200007200D01*
X287002200Y-10000000D01*
X10000000Y-10000000D01*
X12000000Y-12000000D02*
X12000000Y-198007200D01*
X285002200Y-198007200D01*
X285002200Y-12000000D01*
X12000000Y-12000000D01*
X60000000Y-12000000D02*
X60000000Y-10000000D01*
X110000000Y-12000000D02*
X110000000Y-10000000D01*
X160000000Y-12000000D02*
X160000000Y-10000000D01*
X210000000Y-12000000D02*
X210000000Y-10000000D01*
X260000000Y-12000000D02*
X260000000Y-10000000D01*
X36065476Y-11588095D02*
X35322619Y-11588095D01*
X35694047Y-11588095D02*
X35694047Y-10288095D01*
X35570238Y-10473809D01*
X35446428Y-10597619D01*
X35322619Y-10659523D01*
X85322619Y-10411904D02*
X85384523Y-10350000D01*
X85508333Y-10288095D01*
X85817857Y-10288095D01*
X85941666Y-10350000D01*
X86003571Y-10411904D01*
X86065476Y-10535714D01*
X86065476Y-10659523D01*
X86003571Y-10845238D01*
X85260714Y-11588095D01*
X86065476Y-11588095D01*
X135260714Y-10288095D02*
X136065476Y-10288095D01*
X135632142Y-10783333D01*
X135817857Y-10783333D01*
X135941666Y-10845238D01*
X136003571Y-10907142D01*
X136065476Y-11030952D01*
X136065476Y-11340476D01*
X136003571Y-11464285D01*
X135941666Y-11526190D01*
X135817857Y-11588095D01*
X135446428Y-11588095D01*
X135322619Y-11526190D01*
X135260714Y-11464285D01*
X185941666Y-10721428D02*
X185941666Y-11588095D01*
X185632142Y-10226190D02*
X185322619Y-11154761D01*
X186127380Y-11154761D01*
X236003571Y-10288095D02*
X235384523Y-10288095D01*
X235322619Y-10907142D01*
X235384523Y-10845238D01*
X235508333Y-10783333D01*
X235817857Y-10783333D01*
X235941666Y-10845238D01*
X236003571Y-10907142D01*
X236065476Y-11030952D01*
X236065476Y-11340476D01*
X236003571Y-11464285D01*
X235941666Y-11526190D01*
X235817857Y-11588095D01*
X235508333Y-11588095D01*
X235384523Y-11526190D01*
X235322619Y-11464285D01*
X285941666Y-10288095D02*
X285694047Y-10288095D01*
X285570238Y-10350000D01*
X285508333Y-10411904D01*
X285384523Y-10597619D01*
X285322619Y-10845238D01*
X285322619Y-11340476D01*
X285384523Y-11464285D01*
X285446428Y-11526190D01*
X285570238Y-11588095D01*
X285817857Y-11588095D01*
X285941666Y-11526190D01*
X286003571Y-11464285D01*
X286065476Y-11340476D01*
X286065476Y-11030952D01*
X286003571Y-10907142D01*
X285941666Y-10845238D01*
X285817857Y-10783333D01*
X285570238Y-10783333D01*
X285446428Y-10845238D01*
X285384523Y-10907142D01*
X285322619Y-11030952D01*
X60000000Y-198007200D02*
X60000000Y-200007200D01*
X110000000Y-198007200D02*
X110000000Y-200007200D01*
X160000000Y-198007200D02*
X160000000Y-200007200D01*
X210000000Y-198007200D02*
X210000000Y-200007200D01*
X260000000Y-198007200D02*
X260000000Y-200007200D01*
X36065476Y-199595295D02*
X35322619Y-199595295D01*
X35694047Y-199595295D02*
X35694047Y-198295295D01*
X35570238Y-198481009D01*
X35446428Y-198604819D01*
X35322619Y-198666723D01*
X85322619Y-198419104D02*
X85384523Y-198357200D01*
X85508333Y-198295295D01*
X85817857Y-198295295D01*
X85941666Y-198357200D01*
X86003571Y-198419104D01*
X86065476Y-198542914D01*
X86065476Y-198666723D01*
X86003571Y-198852438D01*
X85260714Y-199595295D01*
X86065476Y-199595295D01*
X135260714Y-198295295D02*
X136065476Y-198295295D01*
X135632142Y-198790533D01*
X135817857Y-198790533D01*
X135941666Y-198852438D01*
X136003571Y-198914342D01*
X136065476Y-199038152D01*
X136065476Y-199347676D01*
X136003571Y-199471485D01*
X135941666Y-199533390D01*
X135817857Y-199595295D01*
X135446428Y-199595295D01*
X135322619Y-199533390D01*
X135260714Y-199471485D01*
X185941666Y-198728628D02*
X185941666Y-199595295D01*
X185632142Y-198233390D02*
X185322619Y-199161961D01*
X186127380Y-199161961D01*
X236003571Y-198295295D02*
X235384523Y-198295295D01*
X235322619Y-198914342D01*
X235384523Y-198852438D01*
X235508333Y-198790533D01*
X235817857Y-198790533D01*
X235941666Y-198852438D01*
X236003571Y-198914342D01*
X236065476Y-199038152D01*
X236065476Y-199347676D01*
X236003571Y-199471485D01*
X235941666Y-199533390D01*
X235817857Y-199595295D01*
X235508333Y-199595295D01*
X235384523Y-199533390D01*
X235322619Y-199471485D01*
X285941666Y-198295295D02*
X285694047Y-198295295D01*
X285570238Y-198357200D01*
X285508333Y-198419104D01*
X285384523Y-198604819D01*
X285322619Y-198852438D01*
X285322619Y-199347676D01*
X285384523Y-199471485D01*
X285446428Y-199533390D01*
X285570238Y-199595295D01*
X285817857Y-199595295D01*
X285941666Y-199533390D01*
X286003571Y-199471485D01*
X286065476Y-199347676D01*
X286065476Y-199038152D01*
X286003571Y-198914342D01*
X285941666Y-198852438D01*
X285817857Y-198790533D01*
X285570238Y-198790533D01*
X285446428Y-198852438D01*
X285384523Y-198914342D01*
X285322619Y-199038152D01*
X10000000Y-60000000D02*
X12000000Y-60000000D01*
X10000000Y-110000000D02*
X12000000Y-110000000D01*
X10000000Y-160000000D02*
X12000000Y-160000000D01*
X10690476Y-35216666D02*
X11309523Y-35216666D01*
X10566666Y-35588095D02*
X11000000Y-34288095D01*
X11433333Y-35588095D01*
X11092857Y-84907142D02*
X11278571Y-84969047D01*
X11340476Y-85030952D01*
X11402380Y-85154761D01*
X11402380Y-85340476D01*
X11340476Y-85464285D01*
X11278571Y-85526190D01*
X11154761Y-85588095D01*
X10659523Y-85588095D01*
X10659523Y-84288095D01*
X11092857Y-84288095D01*
X11216666Y-84350000D01*
X11278571Y-84411904D01*
X11340476Y-84535714D01*
X11340476Y-84659523D01*
X11278571Y-84783333D01*
X11216666Y-84845238D01*
X11092857Y-84907142D01*
X10659523Y-84907142D01*
X11402380Y-135464285D02*
X11340476Y-135526190D01*
X11154761Y-135588095D01*
X11030952Y-135588095D01*
X10845238Y-135526190D01*
X10721428Y-135402380D01*
X10659523Y-135278571D01*
X10597619Y-135030952D01*
X10597619Y-134845238D01*
X10659523Y-134597619D01*
X10721428Y-134473809D01*
X10845238Y-134350000D01*
X11030952Y-134288095D01*
X11154761Y-134288095D01*
X11340476Y-134350000D01*
X11402380Y-134411904D01*
X10659523Y-185588095D02*
X10659523Y-184288095D01*
X10969047Y-184288095D01*
X11154761Y-184350000D01*
X11278571Y-184473809D01*
X11340476Y-184597619D01*
X11402380Y-184845238D01*
X11402380Y-185030952D01*
X11340476Y-185278571D01*
X11278571Y-185402380D01*
X11154761Y-185526190D01*
X10969047Y-185588095D01*
X10659523Y-185588095D01*
X287002200Y-60000000D02*
X285002200Y-60000000D01*
X287002200Y-110000000D02*
X285002200Y-110000000D01*
X287002200Y-160000000D02*
X285002200Y-160000000D01*
X285692676Y-35216666D02*
X286311723Y-35216666D01*
X285568866Y-35588095D02*
X286002200Y-34288095D01*
X286435533Y-35588095D01*
X286095057Y-84907142D02*
X286280771Y-84969047D01*
X286342676Y-85030952D01*
X286404580Y-85154761D01*
X286404580Y-85340476D01*
X286342676Y-85464285D01*
X286280771Y-85526190D01*
X286156961Y-85588095D01*
X285661723Y-85588095D01*
X285661723Y-84288095D01*
X286095057Y-84288095D01*
X286218866Y-84350000D01*
X286280771Y-84411904D01*
X286342676Y-84535714D01*
X286342676Y-84659523D01*
X286280771Y-84783333D01*
X286218866Y-84845238D01*
X286095057Y-84907142D01*
X285661723Y-84907142D01*
X286404580Y-135464285D02*
X286342676Y-135526190D01*
X286156961Y-135588095D01*
X286033152Y-135588095D01*
X285847438Y-135526190D01*
X285723628Y-135402380D01*
X285661723Y-135278571D01*
X285599819Y-135030952D01*
X285599819Y-134845238D01*
X285661723Y-134597619D01*
X285723628Y-134473809D01*
X285847438Y-134350000D01*
X286033152Y-134288095D01*
X286156961Y-134288095D01*
X286342676Y-134350000D01*
X286404580Y-134411904D01*
X285661723Y-185588095D02*
X285661723Y-184288095D01*
X285971247Y-184288095D01*
X286156961Y-184350000D01*
X286280771Y-184473809D01*
X286342676Y-184597619D01*
X286404580Y-184845238D01*
X286404580Y-185030952D01*
X286342676Y-185278571D01*
X286280771Y-185402380D01*
X286156961Y-185526190D01*
X285971247Y-185588095D01*
X285661723Y-185588095D01*
X200434342Y-193785771D02*
X200434342Y-192285771D01*
X200791485Y-192285771D01*
X201005771Y-192357200D01*
X201148628Y-192500057D01*
X201220057Y-192642914D01*
X201291485Y-192928628D01*
X201291485Y-193142914D01*
X201220057Y-193428628D01*
X201148628Y-193571485D01*
X201005771Y-193714342D01*
X200791485Y-193785771D01*
X200434342Y-193785771D01*
X202577200Y-193785771D02*
X202577200Y-193000057D01*
X202505771Y-192857200D01*
X202362914Y-192785771D01*
X202077200Y-192785771D01*
X201934342Y-192857200D01*
X202577200Y-193714342D02*
X202434342Y-193785771D01*
X202077200Y-193785771D01*
X201934342Y-193714342D01*
X201862914Y-193571485D01*
X201862914Y-193428628D01*
X201934342Y-193285771D01*
X202077200Y-193214342D01*
X202434342Y-193214342D01*
X202577200Y-193142914D01*
X203077200Y-192785771D02*
X203648628Y-192785771D01*
X203291485Y-192285771D02*
X203291485Y-193571485D01*
X203362914Y-193714342D01*
X203505771Y-193785771D01*
X203648628Y-193785771D01*
X204720057Y-193714342D02*
X204577200Y-193785771D01*
X204291485Y-193785771D01*
X204148628Y-193714342D01*
X204077200Y-193571485D01*
X204077200Y-193000057D01*
X204148628Y-192857200D01*
X204291485Y-192785771D01*
X204577200Y-192785771D01*
X204720057Y-192857200D01*
X204791485Y-193000057D01*
X204791485Y-193142914D01*
X204077200Y-193285771D01*
X205434342Y-193642914D02*
X205505771Y-193714342D01*
X205434342Y-193785771D01*
X205362914Y-193714342D01*
X205434342Y-193642914D01*
X205434342Y-193785771D01*
X205434342Y-192857200D02*
X205505771Y-192928628D01*
X205434342Y-193000057D01*
X205362914Y-192928628D01*
X205434342Y-192857200D01*
X205434342Y-193000057D01*
X177002200Y-194507200D02*
X285002200Y-194507200D01*
X178434342Y-196585771D02*
X178434342Y-195085771D01*
X179291485Y-196585771D02*
X178648628Y-195728628D01*
X179291485Y-195085771D02*
X178434342Y-195942914D01*
X179934342Y-196585771D02*
X179934342Y-195585771D01*
X179934342Y-195085771D02*
X179862914Y-195157200D01*
X179934342Y-195228628D01*
X180005771Y-195157200D01*
X179934342Y-195085771D01*
X179934342Y-195228628D01*
X181505771Y-196442914D02*
X181434342Y-196514342D01*
X181220057Y-196585771D01*
X181077200Y-196585771D01*
X180862914Y-196514342D01*
X180720057Y-196371485D01*
X180648628Y-196228628D01*
X180577200Y-195942914D01*
X180577200Y-195728628D01*
X180648628Y-195442914D01*
X180720057Y-195300057D01*
X180862914Y-195157200D01*
X181077200Y-195085771D01*
X181220057Y-195085771D01*
X181434342Y-195157200D01*
X181505771Y-195228628D01*
X182791485Y-196585771D02*
X182791485Y-195800057D01*
X182720057Y-195657200D01*
X182577200Y-195585771D01*
X182291485Y-195585771D01*
X182148628Y-195657200D01*
X182791485Y-196514342D02*
X182648628Y-196585771D01*
X182291485Y-196585771D01*
X182148628Y-196514342D01*
X182077200Y-196371485D01*
X182077200Y-196228628D01*
X182148628Y-196085771D01*
X182291485Y-196014342D01*
X182648628Y-196014342D01*
X182791485Y-195942914D01*
X184148628Y-196585771D02*
X184148628Y-195085771D01*
X184148628Y-196514342D02*
X184005771Y-196585771D01*
X183720057Y-196585771D01*
X183577200Y-196514342D01*
X183505771Y-196442914D01*
X183434342Y-196300057D01*
X183434342Y-195871485D01*
X183505771Y-195728628D01*
X183577200Y-195657200D01*
X183720057Y-195585771D01*
X184005771Y-195585771D01*
X184148628Y-195657200D01*
X186005771Y-195800057D02*
X186505771Y-195800057D01*
X186720057Y-196585771D02*
X186005771Y-196585771D01*
X186005771Y-195085771D01*
X186720057Y-195085771D01*
X187362914Y-196442914D02*
X187434342Y-196514342D01*
X187362914Y-196585771D01*
X187291485Y-196514342D01*
X187362914Y-196442914D01*
X187362914Y-196585771D01*
X188077200Y-196585771D02*
X188077200Y-195085771D01*
X188434342Y-195085771D01*
X188648628Y-195157200D01*
X188791485Y-195300057D01*
X188862914Y-195442914D01*
X188934342Y-195728628D01*
X188934342Y-195942914D01*
X188862914Y-196228628D01*
X188791485Y-196371485D01*
X188648628Y-196514342D01*
X188434342Y-196585771D01*
X188077200Y-196585771D01*
X189577200Y-196442914D02*
X189648628Y-196514342D01*
X189577200Y-196585771D01*
X189505771Y-196514342D01*
X189577200Y-196442914D01*
X189577200Y-196585771D01*
X190220057Y-196157200D02*
X190934342Y-196157200D01*
X190077200Y-196585771D02*
X190577200Y-195085771D01*
X191077200Y-196585771D01*
X191577200Y-196442914D02*
X191648628Y-196514342D01*
X191577200Y-196585771D01*
X191505771Y-196514342D01*
X191577200Y-196442914D01*
X191577200Y-196585771D01*
X194577200Y-196585771D02*
X194577200Y-195085771D01*
X194720057Y-196014342D02*
X195148628Y-196585771D01*
X195148628Y-195585771D02*
X194577200Y-196157200D01*
X195791485Y-196585771D02*
X195791485Y-195585771D01*
X195791485Y-195085771D02*
X195720057Y-195157200D01*
X195791485Y-195228628D01*
X195862914Y-195157200D01*
X195791485Y-195085771D01*
X195791485Y-195228628D01*
X197148628Y-196514342D02*
X197005771Y-196585771D01*
X196720057Y-196585771D01*
X196577200Y-196514342D01*
X196505771Y-196442914D01*
X196434342Y-196300057D01*
X196434342Y-195871485D01*
X196505771Y-195728628D01*
X196577200Y-195657200D01*
X196720057Y-195585771D01*
X197005771Y-195585771D01*
X197148628Y-195657200D01*
X198434342Y-196585771D02*
X198434342Y-195800057D01*
X198362914Y-195657200D01*
X198220057Y-195585771D01*
X197934342Y-195585771D01*
X197791485Y-195657200D01*
X198434342Y-196514342D02*
X198291485Y-196585771D01*
X197934342Y-196585771D01*
X197791485Y-196514342D01*
X197720057Y-196371485D01*
X197720057Y-196228628D01*
X197791485Y-196085771D01*
X197934342Y-196014342D01*
X198291485Y-196014342D01*
X198434342Y-195942914D01*
X199791485Y-196585771D02*
X199791485Y-195085771D01*
X199791485Y-196514342D02*
X199648628Y-196585771D01*
X199362914Y-196585771D01*
X199220057Y-196514342D01*
X199148628Y-196442914D01*
X199077200Y-196300057D01*
X199077200Y-195871485D01*
X199148628Y-195728628D01*
X199220057Y-195657200D01*
X199362914Y-195585771D01*
X199648628Y-195585771D01*
X199791485Y-195657200D01*
X202077200Y-197157200D02*
X202005771Y-197085771D01*
X201862914Y-196871485D01*
X201791485Y-196728628D01*
X201720057Y-196514342D01*
X201648628Y-196157200D01*
X201648628Y-195871485D01*
X201720057Y-195514342D01*
X201791485Y-195300057D01*
X201862914Y-195157200D01*
X202005771Y-194942914D01*
X202077200Y-194871485D01*
X203362914Y-195085771D02*
X202648628Y-195085771D01*
X202577200Y-195800057D01*
X202648628Y-195728628D01*
X202791485Y-195657200D01*
X203148628Y-195657200D01*
X203291485Y-195728628D01*
X203362914Y-195800057D01*
X203434342Y-195942914D01*
X203434342Y-196300057D01*
X203362914Y-196442914D01*
X203291485Y-196514342D01*
X203148628Y-196585771D01*
X202791485Y-196585771D01*
X202648628Y-196514342D01*
X202577200Y-196442914D01*
X204077200Y-196442914D02*
X204148628Y-196514342D01*
X204077200Y-196585771D01*
X204005771Y-196514342D01*
X204077200Y-196442914D01*
X204077200Y-196585771D01*
X205577200Y-196585771D02*
X204720057Y-196585771D01*
X205148628Y-196585771D02*
X205148628Y-195085771D01*
X205005771Y-195300057D01*
X204862914Y-195442914D01*
X204720057Y-195514342D01*
X206220057Y-196442914D02*
X206291485Y-196514342D01*
X206220057Y-196585771D01*
X206148628Y-196514342D01*
X206220057Y-196442914D01*
X206220057Y-196585771D01*
X207577200Y-195085771D02*
X207291485Y-195085771D01*
X207148628Y-195157200D01*
X207077200Y-195228628D01*
X206934342Y-195442914D01*
X206862914Y-195728628D01*
X206862914Y-196300057D01*
X206934342Y-196442914D01*
X207005771Y-196514342D01*
X207148628Y-196585771D01*
X207434342Y-196585771D01*
X207577200Y-196514342D01*
X207648628Y-196442914D01*
X207720057Y-196300057D01*
X207720057Y-195942914D01*
X207648628Y-195800057D01*
X207577200Y-195728628D01*
X207434342Y-195657200D01*
X207148628Y-195657200D01*
X207005771Y-195728628D01*
X206934342Y-195800057D01*
X206862914Y-195942914D01*
X208220057Y-197157200D02*
X208291485Y-197085771D01*
X208434342Y-196871485D01*
X208505771Y-196728628D01*
X208577200Y-196514342D01*
X208648628Y-196157200D01*
X208648628Y-195871485D01*
X208577200Y-195514342D01*
X208505771Y-195300057D01*
X208434342Y-195157200D01*
X208291485Y-194942914D01*
X208220057Y-194871485D01*
X209362914Y-196014342D02*
X210505771Y-196014342D01*
X212005771Y-196585771D02*
X211148628Y-196585771D01*
X211577200Y-196585771D02*
X211577200Y-195085771D01*
X211434342Y-195300057D01*
X211291485Y-195442914D01*
X211148628Y-195514342D01*
X177002200Y-191507200D02*
X285002200Y-191507200D01*
D11*
X264411485Y-193785771D02*
X263911485Y-193071485D01*
X263554342Y-193785771D02*
X263554342Y-192285771D01*
X264125771Y-192285771D01*
X264268628Y-192357200D01*
X264340057Y-192428628D01*
X264411485Y-192571485D01*
X264411485Y-192785771D01*
X264340057Y-192928628D01*
X264268628Y-193000057D01*
X264125771Y-193071485D01*
X263554342Y-193071485D01*
X265625771Y-193714342D02*
X265482914Y-193785771D01*
X265197200Y-193785771D01*
X265054342Y-193714342D01*
X264982914Y-193571485D01*
X264982914Y-193000057D01*
X265054342Y-192857200D01*
X265197200Y-192785771D01*
X265482914Y-192785771D01*
X265625771Y-192857200D01*
X265697200Y-193000057D01*
X265697200Y-193142914D01*
X264982914Y-193285771D01*
X266197200Y-192785771D02*
X266554342Y-193785771D01*
X266911485Y-192785771D01*
X267482914Y-193642914D02*
X267554342Y-193714342D01*
X267482914Y-193785771D01*
X267411485Y-193714342D01*
X267482914Y-193642914D01*
X267482914Y-193785771D01*
X267482914Y-192857200D02*
X267554342Y-192928628D01*
X267482914Y-193000057D01*
X267411485Y-192928628D01*
X267482914Y-192857200D01*
X267482914Y-193000057D01*
D10*
X178362914Y-193714342D02*
X178577200Y-193785771D01*
X178934342Y-193785771D01*
X179077200Y-193714342D01*
X179148628Y-193642914D01*
X179220057Y-193500057D01*
X179220057Y-193357200D01*
X179148628Y-193214342D01*
X179077200Y-193142914D01*
X178934342Y-193071485D01*
X178648628Y-193000057D01*
X178505771Y-192928628D01*
X178434342Y-192857200D01*
X178362914Y-192714342D01*
X178362914Y-192571485D01*
X178434342Y-192428628D01*
X178505771Y-192357200D01*
X178648628Y-192285771D01*
X179005771Y-192285771D01*
X179220057Y-192357200D01*
X179862914Y-193785771D02*
X179862914Y-192785771D01*
X179862914Y-192285771D02*
X179791485Y-192357200D01*
X179862914Y-192428628D01*
X179934342Y-192357200D01*
X179862914Y-192285771D01*
X179862914Y-192428628D01*
X180434342Y-192785771D02*
X181220057Y-192785771D01*
X180434342Y-193785771D01*
X181220057Y-193785771D01*
X182362914Y-193714342D02*
X182220057Y-193785771D01*
X181934342Y-193785771D01*
X181791485Y-193714342D01*
X181720057Y-193571485D01*
X181720057Y-193000057D01*
X181791485Y-192857200D01*
X181934342Y-192785771D01*
X182220057Y-192785771D01*
X182362914Y-192857200D01*
X182434342Y-193000057D01*
X182434342Y-193142914D01*
X181720057Y-193285771D01*
X183077200Y-193642914D02*
X183148628Y-193714342D01*
X183077200Y-193785771D01*
X183005771Y-193714342D01*
X183077200Y-193642914D01*
X183077200Y-193785771D01*
X183077200Y-192857200D02*
X183148628Y-192928628D01*
X183077200Y-193000057D01*
X183005771Y-192928628D01*
X183077200Y-192857200D01*
X183077200Y-193000057D01*
X184862914Y-193357200D02*
X185577200Y-193357200D01*
X184720057Y-193785771D02*
X185220057Y-192285771D01*
X185720057Y-193785771D01*
X186862914Y-192785771D02*
X186862914Y-193785771D01*
X186505771Y-192214342D02*
X186148628Y-193285771D01*
X187077200Y-193285771D01*
X263434342Y-196585771D02*
X263434342Y-195085771D01*
X264791485Y-196585771D02*
X264791485Y-195085771D01*
X264791485Y-196514342D02*
X264648628Y-196585771D01*
X264362914Y-196585771D01*
X264220057Y-196514342D01*
X264148628Y-196442914D01*
X264077200Y-196300057D01*
X264077200Y-195871485D01*
X264148628Y-195728628D01*
X264220057Y-195657200D01*
X264362914Y-195585771D01*
X264648628Y-195585771D01*
X264791485Y-195657200D01*
X265505771Y-196442914D02*
X265577200Y-196514342D01*
X265505771Y-196585771D01*
X265434342Y-196514342D01*
X265505771Y-196442914D01*
X265505771Y-196585771D01*
X265505771Y-195657200D02*
X265577200Y-195728628D01*
X265505771Y-195800057D01*
X265434342Y-195728628D01*
X265505771Y-195657200D01*
X265505771Y-195800057D01*
X268148628Y-196585771D02*
X267291485Y-196585771D01*
X267720057Y-196585771D02*
X267720057Y-195085771D01*
X267577200Y-195300057D01*
X267434342Y-195442914D01*
X267291485Y-195514342D01*
X269862914Y-195014342D02*
X268577200Y-196942914D01*
X271148628Y-196585771D02*
X270291485Y-196585771D01*
X270720057Y-196585771D02*
X270720057Y-195085771D01*
X270577200Y-195300057D01*
X270434342Y-195442914D01*
X270291485Y-195514342D01*
X177002200Y-187507200D02*
X285002200Y-187507200D01*
D12*
X178714580Y-188211961D02*
X179857438Y-188211961D01*
X179036009Y-190211961D02*
X179286009Y-188211961D01*
X180274104Y-190211961D02*
X180440771Y-188878628D01*
X180524104Y-188211961D02*
X180416961Y-188307200D01*
X180500295Y-188402438D01*
X180607438Y-188307200D01*
X180524104Y-188211961D01*
X180500295Y-188402438D01*
X181107438Y-188878628D02*
X181869342Y-188878628D01*
X181476485Y-188211961D02*
X181262200Y-189926247D01*
X181333628Y-190116723D01*
X181512200Y-190211961D01*
X181702676Y-190211961D01*
X182655057Y-190211961D02*
X182476485Y-190116723D01*
X182405057Y-189926247D01*
X182619342Y-188211961D01*
X184190771Y-190116723D02*
X183988390Y-190211961D01*
X183607438Y-190211961D01*
X183428866Y-190116723D01*
X183357438Y-189926247D01*
X183452676Y-189164342D01*
X183571723Y-188973866D01*
X183774104Y-188878628D01*
X184155057Y-188878628D01*
X184333628Y-188973866D01*
X184405057Y-189164342D01*
X184381247Y-189354819D01*
X183405057Y-189545295D01*
X185155057Y-190021485D02*
X185238390Y-190116723D01*
X185131247Y-190211961D01*
X185047914Y-190116723D01*
X185155057Y-190021485D01*
X185131247Y-190211961D01*
X185286009Y-188973866D02*
X185369342Y-189069104D01*
X185262200Y-189164342D01*
X185178866Y-189069104D01*
X185286009Y-188973866D01*
X185262200Y-189164342D01*
D10*
X178934342Y-185600057D02*
X178434342Y-185600057D01*
X178434342Y-186385771D02*
X178434342Y-184885771D01*
X179148628Y-184885771D01*
X179720057Y-186385771D02*
X179720057Y-185385771D01*
X179720057Y-184885771D02*
X179648628Y-184957200D01*
X179720057Y-185028628D01*
X179791485Y-184957200D01*
X179720057Y-184885771D01*
X179720057Y-185028628D01*
X180648628Y-186385771D02*
X180505771Y-186314342D01*
X180434342Y-186171485D01*
X180434342Y-184885771D01*
X181791485Y-186314342D02*
X181648628Y-186385771D01*
X181362914Y-186385771D01*
X181220057Y-186314342D01*
X181148628Y-186171485D01*
X181148628Y-185600057D01*
X181220057Y-185457200D01*
X181362914Y-185385771D01*
X181648628Y-185385771D01*
X181791485Y-185457200D01*
X181862914Y-185600057D01*
X181862914Y-185742914D01*
X181148628Y-185885771D01*
X182505771Y-186242914D02*
X182577200Y-186314342D01*
X182505771Y-186385771D01*
X182434342Y-186314342D01*
X182505771Y-186242914D01*
X182505771Y-186385771D01*
X182505771Y-185457200D02*
X182577200Y-185528628D01*
X182505771Y-185600057D01*
X182434342Y-185528628D01*
X182505771Y-185457200D01*
X182505771Y-185600057D01*
X184362914Y-186385771D02*
X184362914Y-184885771D01*
X185005771Y-186385771D02*
X185005771Y-185600057D01*
X184934342Y-185457200D01*
X184791485Y-185385771D01*
X184577200Y-185385771D01*
X184434342Y-185457200D01*
X184362914Y-185528628D01*
X186362914Y-186385771D02*
X186362914Y-185600057D01*
X186291485Y-185457200D01*
X186148628Y-185385771D01*
X185862914Y-185385771D01*
X185720057Y-185457200D01*
X186362914Y-186314342D02*
X186220057Y-186385771D01*
X185862914Y-186385771D01*
X185720057Y-186314342D01*
X185648628Y-186171485D01*
X185648628Y-186028628D01*
X185720057Y-185885771D01*
X185862914Y-185814342D01*
X186220057Y-185814342D01*
X186362914Y-185742914D01*
X187720057Y-186314342D02*
X187577200Y-186385771D01*
X187291485Y-186385771D01*
X187148628Y-186314342D01*
X187077200Y-186242914D01*
X187005771Y-186100057D01*
X187005771Y-185671485D01*
X187077200Y-185528628D01*
X187148628Y-185457200D01*
X187291485Y-185385771D01*
X187577200Y-185385771D01*
X187720057Y-185457200D01*
X188362914Y-186385771D02*
X188362914Y-184885771D01*
X188505771Y-185814342D02*
X188934342Y-186385771D01*
X188934342Y-185385771D02*
X188362914Y-185957200D01*
X189220057Y-186528628D02*
X190362914Y-186528628D01*
X191362914Y-186314342D02*
X191220057Y-186385771D01*
X190934342Y-186385771D01*
X190791485Y-186314342D01*
X190720057Y-186242914D01*
X190648628Y-186100057D01*
X190648628Y-185671485D01*
X190720057Y-185528628D01*
X190791485Y-185457200D01*
X190934342Y-185385771D01*
X191220057Y-185385771D01*
X191362914Y-185457200D01*
X192220057Y-186385771D02*
X192077200Y-186314342D01*
X192005771Y-186171485D01*
X192005771Y-184885771D01*
X193005771Y-186385771D02*
X192862914Y-186314342D01*
X192791485Y-186242914D01*
X192720057Y-186100057D01*
X192720057Y-185671485D01*
X192791485Y-185528628D01*
X192862914Y-185457200D01*
X193005771Y-185385771D01*
X193220057Y-185385771D01*
X193362914Y-185457200D01*
X193434342Y-185528628D01*
X193505771Y-185671485D01*
X193505771Y-186100057D01*
X193434342Y-186242914D01*
X193362914Y-186314342D01*
X193220057Y-186385771D01*
X193005771Y-186385771D01*
X194791485Y-186314342D02*
X194648628Y-186385771D01*
X194362914Y-186385771D01*
X194220057Y-186314342D01*
X194148628Y-186242914D01*
X194077200Y-186100057D01*
X194077200Y-185671485D01*
X194148628Y-185528628D01*
X194220057Y-185457200D01*
X194362914Y-185385771D01*
X194648628Y-185385771D01*
X194791485Y-185457200D01*
X195434342Y-186385771D02*
X195434342Y-184885771D01*
X195577200Y-185814342D02*
X196005771Y-186385771D01*
X196005771Y-185385771D02*
X195434342Y-185957200D01*
X196648628Y-186242914D02*
X196720057Y-186314342D01*
X196648628Y-186385771D01*
X196577200Y-186314342D01*
X196648628Y-186242914D01*
X196648628Y-186385771D01*
X197362914Y-186385771D02*
X197362914Y-184885771D01*
X197505771Y-185814342D02*
X197934342Y-186385771D01*
X197934342Y-185385771D02*
X197362914Y-185957200D01*
X198577200Y-186385771D02*
X198577200Y-185385771D01*
X198577200Y-184885771D02*
X198505771Y-184957200D01*
X198577200Y-185028628D01*
X198648628Y-184957200D01*
X198577200Y-184885771D01*
X198577200Y-185028628D01*
X199934342Y-186314342D02*
X199791485Y-186385771D01*
X199505771Y-186385771D01*
X199362914Y-186314342D01*
X199291485Y-186242914D01*
X199220057Y-186100057D01*
X199220057Y-185671485D01*
X199291485Y-185528628D01*
X199362914Y-185457200D01*
X199505771Y-185385771D01*
X199791485Y-185385771D01*
X199934342Y-185457200D01*
X201220057Y-186385771D02*
X201220057Y-185600057D01*
X201148628Y-185457200D01*
X201005771Y-185385771D01*
X200720057Y-185385771D01*
X200577200Y-185457200D01*
X201220057Y-186314342D02*
X201077200Y-186385771D01*
X200720057Y-186385771D01*
X200577200Y-186314342D01*
X200505771Y-186171485D01*
X200505771Y-186028628D01*
X200577200Y-185885771D01*
X200720057Y-185814342D01*
X201077200Y-185814342D01*
X201220057Y-185742914D01*
X202577200Y-186385771D02*
X202577200Y-184885771D01*
X202577200Y-186314342D02*
X202434342Y-186385771D01*
X202148628Y-186385771D01*
X202005771Y-186314342D01*
X201934342Y-186242914D01*
X201862914Y-186100057D01*
X201862914Y-185671485D01*
X201934342Y-185528628D01*
X202005771Y-185457200D01*
X202148628Y-185385771D01*
X202434342Y-185385771D01*
X202577200Y-185457200D01*
X202934342Y-186528628D02*
X204077200Y-186528628D01*
X204434342Y-185385771D02*
X204434342Y-186885771D01*
X204434342Y-185457200D02*
X204577200Y-185385771D01*
X204862914Y-185385771D01*
X205005771Y-185457200D01*
X205077200Y-185528628D01*
X205148628Y-185671485D01*
X205148628Y-186100057D01*
X205077200Y-186242914D01*
X205005771Y-186314342D01*
X204862914Y-186385771D01*
X204577200Y-186385771D01*
X204434342Y-186314342D01*
X206434342Y-186314342D02*
X206291485Y-186385771D01*
X206005771Y-186385771D01*
X205862914Y-186314342D01*
X205791485Y-186242914D01*
X205720057Y-186100057D01*
X205720057Y-185671485D01*
X205791485Y-185528628D01*
X205862914Y-185457200D01*
X206005771Y-185385771D01*
X206291485Y-185385771D01*
X206434342Y-185457200D01*
X207077200Y-186385771D02*
X207077200Y-184885771D01*
X207077200Y-185457200D02*
X207220057Y-185385771D01*
X207505771Y-185385771D01*
X207648628Y-185457200D01*
X207720057Y-185528628D01*
X207791485Y-185671485D01*
X207791485Y-186100057D01*
X207720057Y-186242914D01*
X207648628Y-186314342D01*
X207505771Y-186385771D01*
X207220057Y-186385771D01*
X207077200Y-186314342D01*
X177002200Y-181507200D02*
X285002200Y-181507200D01*
X178362914Y-183614342D02*
X178577200Y-183685771D01*
X178934342Y-183685771D01*
X179077200Y-183614342D01*
X179148628Y-183542914D01*
X179220057Y-183400057D01*
X179220057Y-183257200D01*
X179148628Y-183114342D01*
X179077200Y-183042914D01*
X178934342Y-182971485D01*
X178648628Y-182900057D01*
X178505771Y-182828628D01*
X178434342Y-182757200D01*
X178362914Y-182614342D01*
X178362914Y-182471485D01*
X178434342Y-182328628D01*
X178505771Y-182257200D01*
X178648628Y-182185771D01*
X179005771Y-182185771D01*
X179220057Y-182257200D01*
X179862914Y-183685771D02*
X179862914Y-182185771D01*
X180505771Y-183685771D02*
X180505771Y-182900057D01*
X180434342Y-182757200D01*
X180291485Y-182685771D01*
X180077200Y-182685771D01*
X179934342Y-182757200D01*
X179862914Y-182828628D01*
X181791485Y-183614342D02*
X181648628Y-183685771D01*
X181362914Y-183685771D01*
X181220057Y-183614342D01*
X181148628Y-183471485D01*
X181148628Y-182900057D01*
X181220057Y-182757200D01*
X181362914Y-182685771D01*
X181648628Y-182685771D01*
X181791485Y-182757200D01*
X181862914Y-182900057D01*
X181862914Y-183042914D01*
X181148628Y-183185771D01*
X183077200Y-183614342D02*
X182934342Y-183685771D01*
X182648628Y-183685771D01*
X182505771Y-183614342D01*
X182434342Y-183471485D01*
X182434342Y-182900057D01*
X182505771Y-182757200D01*
X182648628Y-182685771D01*
X182934342Y-182685771D01*
X183077200Y-182757200D01*
X183148628Y-182900057D01*
X183148628Y-183042914D01*
X182434342Y-183185771D01*
X183577200Y-182685771D02*
X184148628Y-182685771D01*
X183791485Y-182185771D02*
X183791485Y-183471485D01*
X183862914Y-183614342D01*
X184005771Y-183685771D01*
X184148628Y-183685771D01*
X184648628Y-183542914D02*
X184720057Y-183614342D01*
X184648628Y-183685771D01*
X184577200Y-183614342D01*
X184648628Y-183542914D01*
X184648628Y-183685771D01*
X184648628Y-182757200D02*
X184720057Y-182828628D01*
X184648628Y-182900057D01*
X184577200Y-182828628D01*
X184648628Y-182757200D01*
X184648628Y-182900057D01*
X197002200Y-191507200D02*
X197002200Y-194507200D01*
X261002200Y-191507200D02*
X261002200Y-198007200D01*
G36*
X125679927Y-107758578D02*
G01*
X125855643Y-107831362D01*
X126104143Y-107934294D01*
X126485926Y-108189394D01*
X126810606Y-108514074D01*
X127065706Y-108895857D01*
X127168638Y-109144357D01*
X127241422Y-109320073D01*
X127331000Y-109770415D01*
X127331000Y-110229585D01*
X127241422Y-110679927D01*
X127168638Y-110855643D01*
X127065706Y-111104143D01*
X126810606Y-111485926D01*
X126485926Y-111810606D01*
X126104143Y-112065706D01*
X125855643Y-112168638D01*
X125679927Y-112241422D01*
X125229585Y-112331000D01*
X124770415Y-112331000D01*
X124320073Y-112241422D01*
X124144357Y-112168638D01*
X123895857Y-112065706D01*
X123514074Y-111810606D01*
X123189394Y-111485926D01*
X122934294Y-111104143D01*
X122831362Y-110855643D01*
X122758578Y-110679927D01*
X122669000Y-110229585D01*
X122669000Y-109770415D01*
X122758578Y-109320073D01*
X122831362Y-109144357D01*
X122934294Y-108895857D01*
X123189394Y-108514074D01*
X123514074Y-108189394D01*
X123895857Y-107934294D01*
X124144357Y-107831362D01*
X124320073Y-107758578D01*
X124770415Y-107669000D01*
X125229585Y-107669000D01*
X125679927Y-107758578D01*
G37*
G36*
X35679927Y-107758578D02*
G01*
X35855643Y-107831362D01*
X36104143Y-107934294D01*
X36485926Y-108189394D01*
X36810606Y-108514074D01*
X37065706Y-108895857D01*
X37168638Y-109144357D01*
X37241422Y-109320073D01*
X37331000Y-109770415D01*
X37331000Y-110229585D01*
X37241422Y-110679927D01*
X37168638Y-110855643D01*
X37065706Y-111104143D01*
X36810606Y-111485926D01*
X36485926Y-111810606D01*
X36104143Y-112065706D01*
X35855643Y-112168638D01*
X35679927Y-112241422D01*
X35229585Y-112331000D01*
X34770415Y-112331000D01*
X34320073Y-112241422D01*
X34144357Y-112168638D01*
X33895857Y-112065706D01*
X33514074Y-111810606D01*
X33189394Y-111485926D01*
X32934294Y-111104143D01*
X32831362Y-110855643D01*
X32758578Y-110679927D01*
X32669000Y-110229585D01*
X32669000Y-109770415D01*
X32758578Y-109320073D01*
X32831362Y-109144357D01*
X32934294Y-108895857D01*
X33189394Y-108514074D01*
X33514074Y-108189394D01*
X33895857Y-107934294D01*
X34144357Y-107831362D01*
X34320073Y-107758578D01*
X34770415Y-107669000D01*
X35229585Y-107669000D01*
X35679927Y-107758578D01*
G37*
G36*
X110401000Y-110351000D02*
G01*
X106799000Y-110351000D01*
X106799000Y-102249000D01*
X110401000Y-102249000D01*
X110401000Y-110351000D01*
G37*
G36*
X116451000Y-110351000D02*
G01*
X112849000Y-110351000D01*
X112849000Y-104049000D01*
X116451000Y-104049000D01*
X116451000Y-110351000D01*
G37*
G36*
X122394434Y-103773686D02*
G01*
X122434284Y-103785774D01*
X122470999Y-103805399D01*
X122503186Y-103831814D01*
X122529601Y-103864001D01*
X122549226Y-103900716D01*
X122561314Y-103940566D01*
X122566000Y-103988141D01*
X122566000Y-104651859D01*
X122561314Y-104699434D01*
X122549226Y-104739284D01*
X122529601Y-104775999D01*
X122503186Y-104808186D01*
X122470999Y-104834601D01*
X122434284Y-104854226D01*
X122394434Y-104866314D01*
X122346859Y-104871000D01*
X120683141Y-104871000D01*
X120635566Y-104866314D01*
X120595716Y-104854226D01*
X120559001Y-104834601D01*
X120526814Y-104808186D01*
X120500399Y-104775999D01*
X120480774Y-104739284D01*
X120468686Y-104699434D01*
X120464000Y-104651859D01*
X120464000Y-103988141D01*
X120468686Y-103940566D01*
X120480774Y-103900716D01*
X120500399Y-103864001D01*
X120526814Y-103831814D01*
X120559001Y-103805399D01*
X120595716Y-103785774D01*
X120635566Y-103773686D01*
X120683141Y-103769000D01*
X122346859Y-103769000D01*
X122394434Y-103773686D01*
G37*
G36*
X126474434Y-103773686D02*
G01*
X126514284Y-103785774D01*
X126550999Y-103805399D01*
X126583186Y-103831814D01*
X126609601Y-103864001D01*
X126629226Y-103900716D01*
X126641314Y-103940566D01*
X126646000Y-103988141D01*
X126646000Y-104651859D01*
X126641314Y-104699434D01*
X126629226Y-104739284D01*
X126609601Y-104775999D01*
X126583186Y-104808186D01*
X126550999Y-104834601D01*
X126514284Y-104854226D01*
X126474434Y-104866314D01*
X126426859Y-104871000D01*
X124963141Y-104871000D01*
X124915566Y-104866314D01*
X124875716Y-104854226D01*
X124839001Y-104834601D01*
X124806814Y-104808186D01*
X124780399Y-104775999D01*
X124760774Y-104739284D01*
X124748686Y-104699434D01*
X124744000Y-104651859D01*
X124744000Y-103988141D01*
X124748686Y-103940566D01*
X124760774Y-103900716D01*
X124780399Y-103864001D01*
X124806814Y-103831814D01*
X124839001Y-103805399D01*
X124875716Y-103785774D01*
X124915566Y-103773686D01*
X124963141Y-103769000D01*
X126426859Y-103769000D01*
X126474434Y-103773686D01*
G37*
G36*
X35211766Y-103301899D02*
G01*
X35343888Y-103356626D01*
X35343890Y-103356627D01*
X35462798Y-103436079D01*
X35563921Y-103537202D01*
X35563922Y-103537204D01*
X35643374Y-103656112D01*
X35698101Y-103788234D01*
X35726000Y-103928494D01*
X35726000Y-104071506D01*
X35698101Y-104211766D01*
X35643374Y-104343888D01*
X35643373Y-104343890D01*
X35563921Y-104462798D01*
X35462798Y-104563921D01*
X35343890Y-104643373D01*
X35343889Y-104643374D01*
X35343888Y-104643374D01*
X35211766Y-104698101D01*
X35071506Y-104726000D01*
X34928494Y-104726000D01*
X34788234Y-104698101D01*
X34656112Y-104643374D01*
X34656111Y-104643374D01*
X34656110Y-104643373D01*
X34537202Y-104563921D01*
X34436079Y-104462798D01*
X34356627Y-104343890D01*
X34356626Y-104343888D01*
X34301899Y-104211766D01*
X34274000Y-104071506D01*
X34274000Y-103928494D01*
X34301899Y-103788234D01*
X34356626Y-103656112D01*
X34436078Y-103537204D01*
X34436079Y-103537202D01*
X34537202Y-103436079D01*
X34656110Y-103356627D01*
X34656112Y-103356626D01*
X34788234Y-103301899D01*
X34928494Y-103274000D01*
X35071506Y-103274000D01*
X35211766Y-103301899D01*
G37*
G36*
X48187346Y-103021552D02*
G01*
X48219059Y-103027860D01*
X48355732Y-103084472D01*
X48478735Y-103166660D01*
X48583340Y-103271265D01*
X48618355Y-103323669D01*
X48665529Y-103394270D01*
X48722140Y-103530941D01*
X48751000Y-103676032D01*
X48751000Y-103823968D01*
X48722140Y-103969059D01*
X48665528Y-104105732D01*
X48583340Y-104228735D01*
X48478735Y-104333340D01*
X48355732Y-104415528D01*
X48355731Y-104415529D01*
X48355730Y-104415529D01*
X48219059Y-104472140D01*
X48073968Y-104501000D01*
X47926032Y-104501000D01*
X47780941Y-104472140D01*
X47644270Y-104415529D01*
X47644269Y-104415529D01*
X47644268Y-104415528D01*
X47521265Y-104333340D01*
X47416660Y-104228735D01*
X47334472Y-104105732D01*
X47277860Y-103969059D01*
X47249000Y-103823968D01*
X47249000Y-103676032D01*
X47277860Y-103530941D01*
X47334471Y-103394270D01*
X47381645Y-103323669D01*
X47416660Y-103271265D01*
X47521265Y-103166660D01*
X47644268Y-103084472D01*
X47780941Y-103027860D01*
X47812654Y-103021552D01*
X47926032Y-102999000D01*
X48073968Y-102999000D01*
X48187346Y-103021552D01*
G37*
G36*
X122176552Y-102456331D02*
G01*
X122258627Y-102490328D01*
X122258629Y-102490329D01*
X122295813Y-102515175D01*
X122332495Y-102539685D01*
X122395315Y-102602505D01*
X122444672Y-102676373D01*
X122478669Y-102758448D01*
X122496000Y-102845579D01*
X122496000Y-102934421D01*
X122478669Y-103021552D01*
X122444672Y-103103627D01*
X122402555Y-103166660D01*
X122395314Y-103177496D01*
X122332496Y-103240314D01*
X122258629Y-103289671D01*
X122258628Y-103289672D01*
X122258627Y-103289672D01*
X122176552Y-103323669D01*
X122089421Y-103341000D01*
X122000579Y-103341000D01*
X121913448Y-103323669D01*
X121831373Y-103289672D01*
X121831372Y-103289672D01*
X121831371Y-103289671D01*
X121757504Y-103240314D01*
X121694686Y-103177496D01*
X121687446Y-103166660D01*
X121645328Y-103103627D01*
X121611331Y-103021552D01*
X121594000Y-102934421D01*
X121594000Y-102845579D01*
X121611331Y-102758448D01*
X121645328Y-102676373D01*
X121694685Y-102602505D01*
X121757505Y-102539685D01*
X121794187Y-102515175D01*
X121831371Y-102490329D01*
X121831373Y-102490328D01*
X121913448Y-102456331D01*
X122000579Y-102439000D01*
X122089421Y-102439000D01*
X122176552Y-102456331D01*
G37*
G36*
X35211766Y-101301899D02*
G01*
X35343888Y-101356626D01*
X35343890Y-101356627D01*
X35462798Y-101436079D01*
X35563921Y-101537202D01*
X35563922Y-101537204D01*
X35643374Y-101656112D01*
X35698101Y-101788234D01*
X35726000Y-101928494D01*
X35726000Y-102071506D01*
X35698101Y-102211766D01*
X35643374Y-102343888D01*
X35643373Y-102343890D01*
X35563921Y-102462798D01*
X35462798Y-102563921D01*
X35343890Y-102643373D01*
X35343889Y-102643374D01*
X35343888Y-102643374D01*
X35211766Y-102698101D01*
X35071506Y-102726000D01*
X34928494Y-102726000D01*
X34788234Y-102698101D01*
X34656112Y-102643374D01*
X34656111Y-102643374D01*
X34656110Y-102643373D01*
X34537202Y-102563921D01*
X34436079Y-102462798D01*
X34356627Y-102343890D01*
X34356626Y-102343888D01*
X34301899Y-102211766D01*
X34274000Y-102071506D01*
X34274000Y-101928494D01*
X34301899Y-101788234D01*
X34356626Y-101656112D01*
X34436078Y-101537204D01*
X34436079Y-101537202D01*
X34537202Y-101436079D01*
X34656110Y-101356627D01*
X34656112Y-101356626D01*
X34788234Y-101301899D01*
X34928494Y-101274000D01*
X35071506Y-101274000D01*
X35211766Y-101301899D01*
G37*
G36*
X122651000Y-101951000D02*
G01*
X117149000Y-101951000D01*
X117149000Y-98049000D01*
X122651000Y-98049000D01*
X122651000Y-101951000D01*
G37*
G36*
X35211766Y-99301899D02*
G01*
X35343888Y-99356626D01*
X35343890Y-99356627D01*
X35462798Y-99436079D01*
X35563921Y-99537202D01*
X35563922Y-99537204D01*
X35643374Y-99656112D01*
X35698101Y-99788234D01*
X35726000Y-99928494D01*
X35726000Y-100071506D01*
X35698101Y-100211766D01*
X35643374Y-100343888D01*
X35643373Y-100343890D01*
X35563921Y-100462798D01*
X35462798Y-100563921D01*
X35343890Y-100643373D01*
X35343889Y-100643374D01*
X35343888Y-100643374D01*
X35211766Y-100698101D01*
X35071506Y-100726000D01*
X34928494Y-100726000D01*
X34788234Y-100698101D01*
X34656112Y-100643374D01*
X34656111Y-100643374D01*
X34656110Y-100643373D01*
X34537202Y-100563921D01*
X34436079Y-100462798D01*
X34356627Y-100343890D01*
X34356626Y-100343888D01*
X34301899Y-100211766D01*
X34274000Y-100071506D01*
X34274000Y-99928494D01*
X34301899Y-99788234D01*
X34356626Y-99656112D01*
X34436078Y-99537204D01*
X34436079Y-99537202D01*
X34537202Y-99436079D01*
X34656110Y-99356627D01*
X34656112Y-99356626D01*
X34788234Y-99301899D01*
X34928494Y-99274000D01*
X35071506Y-99274000D01*
X35211766Y-99301899D01*
G37*
G36*
X35211766Y-97301899D02*
G01*
X35343888Y-97356626D01*
X35343890Y-97356627D01*
X35462798Y-97436079D01*
X35563921Y-97537202D01*
X35563922Y-97537204D01*
X35643374Y-97656112D01*
X35698101Y-97788234D01*
X35726000Y-97928494D01*
X35726000Y-98071506D01*
X35698101Y-98211766D01*
X35643374Y-98343888D01*
X35643373Y-98343890D01*
X35563921Y-98462798D01*
X35462798Y-98563921D01*
X35343890Y-98643373D01*
X35343889Y-98643374D01*
X35343888Y-98643374D01*
X35211766Y-98698101D01*
X35071506Y-98726000D01*
X34928494Y-98726000D01*
X34788234Y-98698101D01*
X34656112Y-98643374D01*
X34656111Y-98643374D01*
X34656110Y-98643373D01*
X34537202Y-98563921D01*
X34436079Y-98462798D01*
X34356627Y-98343890D01*
X34356626Y-98343888D01*
X34301899Y-98211766D01*
X34274000Y-98071506D01*
X34274000Y-97928494D01*
X34301899Y-97788234D01*
X34356626Y-97656112D01*
X34436078Y-97537204D01*
X34436079Y-97537202D01*
X34537202Y-97436079D01*
X34656110Y-97356627D01*
X34656112Y-97356626D01*
X34788234Y-97301899D01*
X34928494Y-97274000D01*
X35071506Y-97274000D01*
X35211766Y-97301899D01*
G37*
G36*
X122176552Y-96676331D02*
G01*
X122258627Y-96710328D01*
X122258629Y-96710329D01*
X122282082Y-96726000D01*
X122332495Y-96759685D01*
X122395315Y-96822505D01*
X122444672Y-96896373D01*
X122478669Y-96978448D01*
X122496000Y-97065579D01*
X122496000Y-97154421D01*
X122478669Y-97241552D01*
X122444672Y-97323627D01*
X122444671Y-97323629D01*
X122395314Y-97397496D01*
X122332496Y-97460314D01*
X122258629Y-97509671D01*
X122258628Y-97509672D01*
X122258627Y-97509672D01*
X122176552Y-97543669D01*
X122089421Y-97561000D01*
X122000579Y-97561000D01*
X121913448Y-97543669D01*
X121831373Y-97509672D01*
X121831372Y-97509672D01*
X121831371Y-97509671D01*
X121757504Y-97460314D01*
X121694686Y-97397496D01*
X121645329Y-97323629D01*
X121645328Y-97323627D01*
X121611331Y-97241552D01*
X121594000Y-97154421D01*
X121594000Y-97065579D01*
X121611331Y-96978448D01*
X121645328Y-96896373D01*
X121694685Y-96822505D01*
X121757505Y-96759685D01*
X121807918Y-96726000D01*
X121831371Y-96710329D01*
X121831373Y-96710328D01*
X121913448Y-96676331D01*
X122000579Y-96659000D01*
X122089421Y-96659000D01*
X122176552Y-96676331D01*
G37*
G36*
X48136601Y-95664397D02*
G01*
X48175305Y-95672096D01*
X48207340Y-95685365D01*
X48284680Y-95717400D01*
X48383115Y-95783173D01*
X48466827Y-95866885D01*
X48532600Y-95965320D01*
X48564635Y-96042660D01*
X48576583Y-96071505D01*
X48577904Y-96074696D01*
X48601000Y-96190805D01*
X48601000Y-96309195D01*
X48577904Y-96425304D01*
X48532600Y-96534680D01*
X48466827Y-96633115D01*
X48383115Y-96716827D01*
X48284680Y-96782600D01*
X48207340Y-96814635D01*
X48175305Y-96827904D01*
X48136601Y-96835603D01*
X48059195Y-96851000D01*
X47940805Y-96851000D01*
X47863399Y-96835603D01*
X47824695Y-96827904D01*
X47792660Y-96814635D01*
X47715320Y-96782600D01*
X47616885Y-96716827D01*
X47533173Y-96633115D01*
X47467400Y-96534680D01*
X47422096Y-96425304D01*
X47399000Y-96309195D01*
X47399000Y-96190805D01*
X47422096Y-96074696D01*
X47423418Y-96071505D01*
X47435365Y-96042660D01*
X47467400Y-95965320D01*
X47533173Y-95866885D01*
X47616885Y-95783173D01*
X47715320Y-95717400D01*
X47792660Y-95685365D01*
X47824695Y-95672096D01*
X47863399Y-95664397D01*
X47940805Y-95649000D01*
X48059195Y-95649000D01*
X48136601Y-95664397D01*
G37*
G36*
X35211766Y-95301899D02*
G01*
X35329709Y-95350753D01*
X35343890Y-95356627D01*
X35462798Y-95436079D01*
X35563921Y-95537202D01*
X35563922Y-95537204D01*
X35643374Y-95656112D01*
X35698101Y-95788234D01*
X35726000Y-95928494D01*
X35726000Y-96071506D01*
X35698101Y-96211766D01*
X35657745Y-96309193D01*
X35643373Y-96343890D01*
X35563921Y-96462798D01*
X35462798Y-96563921D01*
X35343890Y-96643373D01*
X35343889Y-96643374D01*
X35343888Y-96643374D01*
X35211766Y-96698101D01*
X35071506Y-96726000D01*
X34928494Y-96726000D01*
X34788234Y-96698101D01*
X34656112Y-96643374D01*
X34656111Y-96643374D01*
X34656110Y-96643373D01*
X34537202Y-96563921D01*
X34436079Y-96462798D01*
X34356627Y-96343890D01*
X34342255Y-96309193D01*
X34301899Y-96211766D01*
X34274000Y-96071506D01*
X34274000Y-95928494D01*
X34301899Y-95788234D01*
X34356626Y-95656112D01*
X34436078Y-95537204D01*
X34436079Y-95537202D01*
X34537202Y-95436079D01*
X34656110Y-95356627D01*
X34670291Y-95350753D01*
X34788234Y-95301899D01*
X34928494Y-95274000D01*
X35071506Y-95274000D01*
X35211766Y-95301899D01*
G37*
G36*
X122394434Y-95133686D02*
G01*
X122434284Y-95145774D01*
X122470999Y-95165399D01*
X122503186Y-95191814D01*
X122529601Y-95224001D01*
X122549226Y-95260716D01*
X122561314Y-95300566D01*
X122566000Y-95348141D01*
X122566000Y-96011859D01*
X122561314Y-96059434D01*
X122549226Y-96099284D01*
X122529601Y-96135999D01*
X122503186Y-96168186D01*
X122470999Y-96194601D01*
X122434284Y-96214226D01*
X122394434Y-96226314D01*
X122346859Y-96231000D01*
X120683141Y-96231000D01*
X120635566Y-96226314D01*
X120595716Y-96214226D01*
X120559001Y-96194601D01*
X120526814Y-96168186D01*
X120500399Y-96135999D01*
X120480774Y-96099284D01*
X120468686Y-96059434D01*
X120464000Y-96011859D01*
X120464000Y-95348141D01*
X120468686Y-95300566D01*
X120480774Y-95260716D01*
X120500399Y-95224001D01*
X120526814Y-95191814D01*
X120559001Y-95165399D01*
X120595716Y-95145774D01*
X120635566Y-95133686D01*
X120683141Y-95129000D01*
X122346859Y-95129000D01*
X122394434Y-95133686D01*
G37*
G36*
X126474434Y-95133686D02*
G01*
X126514284Y-95145774D01*
X126550999Y-95165399D01*
X126583186Y-95191814D01*
X126609601Y-95224001D01*
X126629226Y-95260716D01*
X126641314Y-95300566D01*
X126646000Y-95348141D01*
X126646000Y-96011859D01*
X126641314Y-96059434D01*
X126629226Y-96099284D01*
X126609601Y-96135999D01*
X126583186Y-96168186D01*
X126550999Y-96194601D01*
X126514284Y-96214226D01*
X126474434Y-96226314D01*
X126426859Y-96231000D01*
X124963141Y-96231000D01*
X124915566Y-96226314D01*
X124875716Y-96214226D01*
X124839001Y-96194601D01*
X124806814Y-96168186D01*
X124780399Y-96135999D01*
X124760774Y-96099284D01*
X124748686Y-96059434D01*
X124744000Y-96011859D01*
X124744000Y-95348141D01*
X124748686Y-95300566D01*
X124760774Y-95260716D01*
X124780399Y-95224001D01*
X124806814Y-95191814D01*
X124839001Y-95165399D01*
X124875716Y-95145774D01*
X124915566Y-95133686D01*
X124963141Y-95129000D01*
X126426859Y-95129000D01*
X126474434Y-95133686D01*
G37*
G36*
X125679927Y-87758578D02*
G01*
X125855643Y-87831362D01*
X126104143Y-87934294D01*
X126485926Y-88189394D01*
X126810606Y-88514074D01*
X127065706Y-88895857D01*
X127168638Y-89144357D01*
X127241422Y-89320073D01*
X127331000Y-89770415D01*
X127331000Y-90229585D01*
X127241422Y-90679927D01*
X127168638Y-90855643D01*
X127065706Y-91104143D01*
X126810606Y-91485926D01*
X126485926Y-91810606D01*
X126104143Y-92065706D01*
X125855643Y-92168638D01*
X125679927Y-92241422D01*
X125229585Y-92331000D01*
X124770415Y-92331000D01*
X124320073Y-92241422D01*
X124144357Y-92168638D01*
X123895857Y-92065706D01*
X123514074Y-91810606D01*
X123189394Y-91485926D01*
X122934294Y-91104143D01*
X122831362Y-90855643D01*
X122758578Y-90679927D01*
X122669000Y-90229585D01*
X122669000Y-89770415D01*
X122758578Y-89320073D01*
X122831362Y-89144357D01*
X122934294Y-88895857D01*
X123189394Y-88514074D01*
X123514074Y-88189394D01*
X123895857Y-87934294D01*
X124144357Y-87831362D01*
X124320073Y-87758578D01*
X124770415Y-87669000D01*
X125229585Y-87669000D01*
X125679927Y-87758578D01*
G37*
G36*
X35679927Y-87758578D02*
G01*
X35855643Y-87831362D01*
X36104143Y-87934294D01*
X36485926Y-88189394D01*
X36810606Y-88514074D01*
X37065706Y-88895857D01*
X37168638Y-89144357D01*
X37241422Y-89320073D01*
X37331000Y-89770415D01*
X37331000Y-90229585D01*
X37241422Y-90679927D01*
X37168638Y-90855643D01*
X37065706Y-91104143D01*
X36810606Y-91485926D01*
X36485926Y-91810606D01*
X36104143Y-92065706D01*
X35855643Y-92168638D01*
X35679927Y-92241422D01*
X35229585Y-92331000D01*
X34770415Y-92331000D01*
X34320073Y-92241422D01*
X34144357Y-92168638D01*
X33895857Y-92065706D01*
X33514074Y-91810606D01*
X33189394Y-91485926D01*
X32934294Y-91104143D01*
X32831362Y-90855643D01*
X32758578Y-90679927D01*
X32669000Y-90229585D01*
X32669000Y-89770415D01*
X32758578Y-89320073D01*
X32831362Y-89144357D01*
X32934294Y-88895857D01*
X33189394Y-88514074D01*
X33514074Y-88189394D01*
X33895857Y-87934294D01*
X34144357Y-87831362D01*
X34320073Y-87758578D01*
X34770415Y-87669000D01*
X35229585Y-87669000D01*
X35679927Y-87758578D01*
G37*
G36*
X97023411Y-88201974D02*
G01*
X97123685Y-88243509D01*
X97123686Y-88243510D01*
X97213932Y-88303810D01*
X97290680Y-88380558D01*
X97305334Y-88402489D01*
X97350981Y-88470805D01*
X97392516Y-88571079D01*
X97413690Y-88677530D01*
X97413690Y-88786070D01*
X97392516Y-88892521D01*
X97350981Y-88992795D01*
X97321035Y-89037612D01*
X97290680Y-89083042D01*
X97213932Y-89159790D01*
X97168502Y-89190145D01*
X97123685Y-89220091D01*
X97023411Y-89261626D01*
X96916960Y-89282800D01*
X96808420Y-89282800D01*
X96701969Y-89261626D01*
X96601695Y-89220091D01*
X96556878Y-89190145D01*
X96511448Y-89159790D01*
X96434700Y-89083042D01*
X96404345Y-89037612D01*
X96374399Y-88992795D01*
X96332864Y-88892521D01*
X96311690Y-88786070D01*
X96311690Y-88677530D01*
X96332864Y-88571079D01*
X96374399Y-88470805D01*
X96420046Y-88402489D01*
X96434700Y-88380558D01*
X96511448Y-88303810D01*
X96601694Y-88243510D01*
X96601695Y-88243509D01*
X96701969Y-88201974D01*
X96808420Y-88180800D01*
X96916960Y-88180800D01*
X97023411Y-88201974D01*
G37*
G36*
X99323431Y-88201974D02*
G01*
X99423705Y-88243509D01*
X99423706Y-88243510D01*
X99513952Y-88303810D01*
X99590700Y-88380558D01*
X99605354Y-88402489D01*
X99651001Y-88470805D01*
X99692536Y-88571079D01*
X99713710Y-88677530D01*
X99713710Y-88786070D01*
X99692536Y-88892521D01*
X99651001Y-88992795D01*
X99621055Y-89037612D01*
X99590700Y-89083042D01*
X99513952Y-89159790D01*
X99468522Y-89190145D01*
X99423705Y-89220091D01*
X99323431Y-89261626D01*
X99216980Y-89282800D01*
X99108440Y-89282800D01*
X99001989Y-89261626D01*
X98901715Y-89220091D01*
X98856898Y-89190145D01*
X98811468Y-89159790D01*
X98734720Y-89083042D01*
X98704365Y-89037612D01*
X98674419Y-88992795D01*
X98632884Y-88892521D01*
X98611710Y-88786070D01*
X98611710Y-88677530D01*
X98632884Y-88571079D01*
X98674419Y-88470805D01*
X98720066Y-88402489D01*
X98734720Y-88380558D01*
X98811468Y-88303810D01*
X98901714Y-88243510D01*
X98901715Y-88243509D01*
X99001989Y-88201974D01*
X99108440Y-88180800D01*
X99216980Y-88180800D01*
X99323431Y-88201974D01*
G37*
G36*
X63323431Y-88201974D02*
G01*
X63423705Y-88243509D01*
X63423706Y-88243510D01*
X63513952Y-88303810D01*
X63590700Y-88380558D01*
X63605354Y-88402489D01*
X63651001Y-88470805D01*
X63692536Y-88571079D01*
X63713710Y-88677530D01*
X63713710Y-88786070D01*
X63692536Y-88892521D01*
X63651001Y-88992795D01*
X63621055Y-89037612D01*
X63590700Y-89083042D01*
X63513952Y-89159790D01*
X63468522Y-89190145D01*
X63423705Y-89220091D01*
X63323431Y-89261626D01*
X63216980Y-89282800D01*
X63108440Y-89282800D01*
X63001989Y-89261626D01*
X62901715Y-89220091D01*
X62856898Y-89190145D01*
X62811468Y-89159790D01*
X62734720Y-89083042D01*
X62704365Y-89037612D01*
X62674419Y-88992795D01*
X62632884Y-88892521D01*
X62611710Y-88786070D01*
X62611710Y-88677530D01*
X62632884Y-88571079D01*
X62674419Y-88470805D01*
X62720066Y-88402489D01*
X62734720Y-88380558D01*
X62811468Y-88303810D01*
X62901714Y-88243510D01*
X62901715Y-88243509D01*
X63001989Y-88201974D01*
X63108440Y-88180800D01*
X63216980Y-88180800D01*
X63323431Y-88201974D01*
G37*
G36*
X61023411Y-88201974D02*
G01*
X61123685Y-88243509D01*
X61123686Y-88243510D01*
X61213932Y-88303810D01*
X61290680Y-88380558D01*
X61305334Y-88402489D01*
X61350981Y-88470805D01*
X61392516Y-88571079D01*
X61413690Y-88677530D01*
X61413690Y-88786070D01*
X61392516Y-88892521D01*
X61350981Y-88992795D01*
X61321035Y-89037612D01*
X61290680Y-89083042D01*
X61213932Y-89159790D01*
X61168502Y-89190145D01*
X61123685Y-89220091D01*
X61023411Y-89261626D01*
X60916960Y-89282800D01*
X60808420Y-89282800D01*
X60701969Y-89261626D01*
X60601695Y-89220091D01*
X60556878Y-89190145D01*
X60511448Y-89159790D01*
X60434700Y-89083042D01*
X60404345Y-89037612D01*
X60374399Y-88992795D01*
X60332864Y-88892521D01*
X60311690Y-88786070D01*
X60311690Y-88677530D01*
X60332864Y-88571079D01*
X60374399Y-88470805D01*
X60420046Y-88402489D01*
X60434700Y-88380558D01*
X60511448Y-88303810D01*
X60601694Y-88243510D01*
X60601695Y-88243509D01*
X60701969Y-88201974D01*
X60808420Y-88180800D01*
X60916960Y-88180800D01*
X61023411Y-88201974D01*
G37*
M02*
