G04 #@! TF.GenerationSoftware,KiCad,Pcbnew,(5.1.6)-1*
G04 #@! TF.CreationDate,2020-07-24T11:40:27+08:00*
G04 #@! TF.ProjectId,hack_clock,6861636b-5f63-46c6-9f63-6b2e6b696361,rev?*
G04 #@! TF.SameCoordinates,Original*
G04 #@! TF.FileFunction,Copper,L2,Bot*
G04 #@! TF.FilePolarity,Positive*
%FSLAX46Y46*%
G04 Gerber Fmt 4.6, Leading zero omitted, Abs format (unit mm)*
G04 Created by KiCad (PCBNEW (5.1.6)-1) date 2020-07-24 11:40:27*
%MOMM*%
%LPD*%
G01*
G04 APERTURE LIST*
%ADD10C,0.150000*%
%ADD11C,0.300000*%
%ADD12C,0.400000*%
G04 #@! TA.AperFunction,SMDPad,CuDef*
%ADD13R,5.400000X3.800000*%
G04 #@! TD*
G04 #@! TA.AperFunction,SMDPad,CuDef*
%ADD14R,3.500000X6.200000*%
G04 #@! TD*
G04 #@! TA.AperFunction,SMDPad,CuDef*
%ADD15R,3.500000X8.000000*%
G04 #@! TD*
G04 #@! TA.AperFunction,ComponentPad*
%ADD16C,0.800000*%
G04 #@! TD*
G04 #@! TA.AperFunction,ComponentPad*
%ADD17C,1.000000*%
G04 #@! TD*
G04 #@! TA.AperFunction,ComponentPad*
%ADD18C,0.600000*%
G04 #@! TD*
G04 #@! TA.AperFunction,ComponentPad*
%ADD19C,4.560000*%
G04 #@! TD*
G04 #@! TA.AperFunction,ComponentPad*
%ADD20C,1.400000*%
G04 #@! TD*
G04 #@! TA.AperFunction,ComponentPad*
%ADD21C,1.100000*%
G04 #@! TD*
G04 #@! TA.AperFunction,ComponentPad*
%ADD22C,1.350000*%
G04 #@! TD*
G04 #@! TA.AperFunction,ComponentPad*
%ADD23O,1.350000X1.350000*%
G04 #@! TD*
G04 #@! TA.AperFunction,ViaPad*
%ADD24C,1.500000*%
G04 #@! TD*
G04 #@! TA.AperFunction,ViaPad*
%ADD25C,0.800000*%
G04 #@! TD*
G04 #@! TA.AperFunction,ViaPad*
%ADD26C,2.000000*%
G04 #@! TD*
G04 #@! TA.AperFunction,ViaPad*
%ADD27C,1.000000*%
G04 #@! TD*
G04 #@! TA.AperFunction,Conductor*
%ADD28C,0.254000*%
G04 #@! TD*
G04 #@! TA.AperFunction,Conductor*
%ADD29C,0.500000*%
G04 #@! TD*
G04 #@! TA.AperFunction,Conductor*
%ADD30C,1.500000*%
G04 #@! TD*
G04 #@! TA.AperFunction,Conductor*
%ADD31C,0.600000*%
G04 #@! TD*
G04 #@! TA.AperFunction,Conductor*
%ADD32C,0.300000*%
G04 #@! TD*
G04 #@! TA.AperFunction,Conductor*
%ADD33C,0.800000*%
G04 #@! TD*
G04 #@! TA.AperFunction,Conductor*
%ADD34C,0.250000*%
G04 #@! TD*
G04 APERTURE END LIST*
D10*
X177002200Y-166007200D02*
X177002200Y-198007200D01*
X285002200Y-198007200D01*
X285002200Y-166007200D01*
X177002200Y-166007200D01*
X10000000Y-10000000D02*
X10000000Y-200007200D01*
X287002200Y-200007200D01*
X287002200Y-10000000D01*
X10000000Y-10000000D01*
X12000000Y-12000000D02*
X12000000Y-198007200D01*
X285002200Y-198007200D01*
X285002200Y-12000000D01*
X12000000Y-12000000D01*
X60000000Y-12000000D02*
X60000000Y-10000000D01*
X110000000Y-12000000D02*
X110000000Y-10000000D01*
X160000000Y-12000000D02*
X160000000Y-10000000D01*
X210000000Y-12000000D02*
X210000000Y-10000000D01*
X260000000Y-12000000D02*
X260000000Y-10000000D01*
X36065476Y-11588095D02*
X35322619Y-11588095D01*
X35694047Y-11588095D02*
X35694047Y-10288095D01*
X35570238Y-10473809D01*
X35446428Y-10597619D01*
X35322619Y-10659523D01*
X85322619Y-10411904D02*
X85384523Y-10350000D01*
X85508333Y-10288095D01*
X85817857Y-10288095D01*
X85941666Y-10350000D01*
X86003571Y-10411904D01*
X86065476Y-10535714D01*
X86065476Y-10659523D01*
X86003571Y-10845238D01*
X85260714Y-11588095D01*
X86065476Y-11588095D01*
X135260714Y-10288095D02*
X136065476Y-10288095D01*
X135632142Y-10783333D01*
X135817857Y-10783333D01*
X135941666Y-10845238D01*
X136003571Y-10907142D01*
X136065476Y-11030952D01*
X136065476Y-11340476D01*
X136003571Y-11464285D01*
X135941666Y-11526190D01*
X135817857Y-11588095D01*
X135446428Y-11588095D01*
X135322619Y-11526190D01*
X135260714Y-11464285D01*
X185941666Y-10721428D02*
X185941666Y-11588095D01*
X185632142Y-10226190D02*
X185322619Y-11154761D01*
X186127380Y-11154761D01*
X236003571Y-10288095D02*
X235384523Y-10288095D01*
X235322619Y-10907142D01*
X235384523Y-10845238D01*
X235508333Y-10783333D01*
X235817857Y-10783333D01*
X235941666Y-10845238D01*
X236003571Y-10907142D01*
X236065476Y-11030952D01*
X236065476Y-11340476D01*
X236003571Y-11464285D01*
X235941666Y-11526190D01*
X235817857Y-11588095D01*
X235508333Y-11588095D01*
X235384523Y-11526190D01*
X235322619Y-11464285D01*
X285941666Y-10288095D02*
X285694047Y-10288095D01*
X285570238Y-10350000D01*
X285508333Y-10411904D01*
X285384523Y-10597619D01*
X285322619Y-10845238D01*
X285322619Y-11340476D01*
X285384523Y-11464285D01*
X285446428Y-11526190D01*
X285570238Y-11588095D01*
X285817857Y-11588095D01*
X285941666Y-11526190D01*
X286003571Y-11464285D01*
X286065476Y-11340476D01*
X286065476Y-11030952D01*
X286003571Y-10907142D01*
X285941666Y-10845238D01*
X285817857Y-10783333D01*
X285570238Y-10783333D01*
X285446428Y-10845238D01*
X285384523Y-10907142D01*
X285322619Y-11030952D01*
X60000000Y-198007200D02*
X60000000Y-200007200D01*
X110000000Y-198007200D02*
X110000000Y-200007200D01*
X160000000Y-198007200D02*
X160000000Y-200007200D01*
X210000000Y-198007200D02*
X210000000Y-200007200D01*
X260000000Y-198007200D02*
X260000000Y-200007200D01*
X36065476Y-199595295D02*
X35322619Y-199595295D01*
X35694047Y-199595295D02*
X35694047Y-198295295D01*
X35570238Y-198481009D01*
X35446428Y-198604819D01*
X35322619Y-198666723D01*
X85322619Y-198419104D02*
X85384523Y-198357200D01*
X85508333Y-198295295D01*
X85817857Y-198295295D01*
X85941666Y-198357200D01*
X86003571Y-198419104D01*
X86065476Y-198542914D01*
X86065476Y-198666723D01*
X86003571Y-198852438D01*
X85260714Y-199595295D01*
X86065476Y-199595295D01*
X135260714Y-198295295D02*
X136065476Y-198295295D01*
X135632142Y-198790533D01*
X135817857Y-198790533D01*
X135941666Y-198852438D01*
X136003571Y-198914342D01*
X136065476Y-199038152D01*
X136065476Y-199347676D01*
X136003571Y-199471485D01*
X135941666Y-199533390D01*
X135817857Y-199595295D01*
X135446428Y-199595295D01*
X135322619Y-199533390D01*
X135260714Y-199471485D01*
X185941666Y-198728628D02*
X185941666Y-199595295D01*
X185632142Y-198233390D02*
X185322619Y-199161961D01*
X186127380Y-199161961D01*
X236003571Y-198295295D02*
X235384523Y-198295295D01*
X235322619Y-198914342D01*
X235384523Y-198852438D01*
X235508333Y-198790533D01*
X235817857Y-198790533D01*
X235941666Y-198852438D01*
X236003571Y-198914342D01*
X236065476Y-199038152D01*
X236065476Y-199347676D01*
X236003571Y-199471485D01*
X235941666Y-199533390D01*
X235817857Y-199595295D01*
X235508333Y-199595295D01*
X235384523Y-199533390D01*
X235322619Y-199471485D01*
X285941666Y-198295295D02*
X285694047Y-198295295D01*
X285570238Y-198357200D01*
X285508333Y-198419104D01*
X285384523Y-198604819D01*
X285322619Y-198852438D01*
X285322619Y-199347676D01*
X285384523Y-199471485D01*
X285446428Y-199533390D01*
X285570238Y-199595295D01*
X285817857Y-199595295D01*
X285941666Y-199533390D01*
X286003571Y-199471485D01*
X286065476Y-199347676D01*
X286065476Y-199038152D01*
X286003571Y-198914342D01*
X285941666Y-198852438D01*
X285817857Y-198790533D01*
X285570238Y-198790533D01*
X285446428Y-198852438D01*
X285384523Y-198914342D01*
X285322619Y-199038152D01*
X10000000Y-60000000D02*
X12000000Y-60000000D01*
X10000000Y-110000000D02*
X12000000Y-110000000D01*
X10000000Y-160000000D02*
X12000000Y-160000000D01*
X10690476Y-35216666D02*
X11309523Y-35216666D01*
X10566666Y-35588095D02*
X11000000Y-34288095D01*
X11433333Y-35588095D01*
X11092857Y-84907142D02*
X11278571Y-84969047D01*
X11340476Y-85030952D01*
X11402380Y-85154761D01*
X11402380Y-85340476D01*
X11340476Y-85464285D01*
X11278571Y-85526190D01*
X11154761Y-85588095D01*
X10659523Y-85588095D01*
X10659523Y-84288095D01*
X11092857Y-84288095D01*
X11216666Y-84350000D01*
X11278571Y-84411904D01*
X11340476Y-84535714D01*
X11340476Y-84659523D01*
X11278571Y-84783333D01*
X11216666Y-84845238D01*
X11092857Y-84907142D01*
X10659523Y-84907142D01*
X11402380Y-135464285D02*
X11340476Y-135526190D01*
X11154761Y-135588095D01*
X11030952Y-135588095D01*
X10845238Y-135526190D01*
X10721428Y-135402380D01*
X10659523Y-135278571D01*
X10597619Y-135030952D01*
X10597619Y-134845238D01*
X10659523Y-134597619D01*
X10721428Y-134473809D01*
X10845238Y-134350000D01*
X11030952Y-134288095D01*
X11154761Y-134288095D01*
X11340476Y-134350000D01*
X11402380Y-134411904D01*
X10659523Y-185588095D02*
X10659523Y-184288095D01*
X10969047Y-184288095D01*
X11154761Y-184350000D01*
X11278571Y-184473809D01*
X11340476Y-184597619D01*
X11402380Y-184845238D01*
X11402380Y-185030952D01*
X11340476Y-185278571D01*
X11278571Y-185402380D01*
X11154761Y-185526190D01*
X10969047Y-185588095D01*
X10659523Y-185588095D01*
X287002200Y-60000000D02*
X285002200Y-60000000D01*
X287002200Y-110000000D02*
X285002200Y-110000000D01*
X287002200Y-160000000D02*
X285002200Y-160000000D01*
X285692676Y-35216666D02*
X286311723Y-35216666D01*
X285568866Y-35588095D02*
X286002200Y-34288095D01*
X286435533Y-35588095D01*
X286095057Y-84907142D02*
X286280771Y-84969047D01*
X286342676Y-85030952D01*
X286404580Y-85154761D01*
X286404580Y-85340476D01*
X286342676Y-85464285D01*
X286280771Y-85526190D01*
X286156961Y-85588095D01*
X285661723Y-85588095D01*
X285661723Y-84288095D01*
X286095057Y-84288095D01*
X286218866Y-84350000D01*
X286280771Y-84411904D01*
X286342676Y-84535714D01*
X286342676Y-84659523D01*
X286280771Y-84783333D01*
X286218866Y-84845238D01*
X286095057Y-84907142D01*
X285661723Y-84907142D01*
X286404580Y-135464285D02*
X286342676Y-135526190D01*
X286156961Y-135588095D01*
X286033152Y-135588095D01*
X285847438Y-135526190D01*
X285723628Y-135402380D01*
X285661723Y-135278571D01*
X285599819Y-135030952D01*
X285599819Y-134845238D01*
X285661723Y-134597619D01*
X285723628Y-134473809D01*
X285847438Y-134350000D01*
X286033152Y-134288095D01*
X286156961Y-134288095D01*
X286342676Y-134350000D01*
X286404580Y-134411904D01*
X285661723Y-185588095D02*
X285661723Y-184288095D01*
X285971247Y-184288095D01*
X286156961Y-184350000D01*
X286280771Y-184473809D01*
X286342676Y-184597619D01*
X286404580Y-184845238D01*
X286404580Y-185030952D01*
X286342676Y-185278571D01*
X286280771Y-185402380D01*
X286156961Y-185526190D01*
X285971247Y-185588095D01*
X285661723Y-185588095D01*
X200434342Y-193785771D02*
X200434342Y-192285771D01*
X200791485Y-192285771D01*
X201005771Y-192357200D01*
X201148628Y-192500057D01*
X201220057Y-192642914D01*
X201291485Y-192928628D01*
X201291485Y-193142914D01*
X201220057Y-193428628D01*
X201148628Y-193571485D01*
X201005771Y-193714342D01*
X200791485Y-193785771D01*
X200434342Y-193785771D01*
X202577200Y-193785771D02*
X202577200Y-193000057D01*
X202505771Y-192857200D01*
X202362914Y-192785771D01*
X202077200Y-192785771D01*
X201934342Y-192857200D01*
X202577200Y-193714342D02*
X202434342Y-193785771D01*
X202077200Y-193785771D01*
X201934342Y-193714342D01*
X201862914Y-193571485D01*
X201862914Y-193428628D01*
X201934342Y-193285771D01*
X202077200Y-193214342D01*
X202434342Y-193214342D01*
X202577200Y-193142914D01*
X203077200Y-192785771D02*
X203648628Y-192785771D01*
X203291485Y-192285771D02*
X203291485Y-193571485D01*
X203362914Y-193714342D01*
X203505771Y-193785771D01*
X203648628Y-193785771D01*
X204720057Y-193714342D02*
X204577200Y-193785771D01*
X204291485Y-193785771D01*
X204148628Y-193714342D01*
X204077200Y-193571485D01*
X204077200Y-193000057D01*
X204148628Y-192857200D01*
X204291485Y-192785771D01*
X204577200Y-192785771D01*
X204720057Y-192857200D01*
X204791485Y-193000057D01*
X204791485Y-193142914D01*
X204077200Y-193285771D01*
X205434342Y-193642914D02*
X205505771Y-193714342D01*
X205434342Y-193785771D01*
X205362914Y-193714342D01*
X205434342Y-193642914D01*
X205434342Y-193785771D01*
X205434342Y-192857200D02*
X205505771Y-192928628D01*
X205434342Y-193000057D01*
X205362914Y-192928628D01*
X205434342Y-192857200D01*
X205434342Y-193000057D01*
X177002200Y-194507200D02*
X285002200Y-194507200D01*
X178434342Y-196585771D02*
X178434342Y-195085771D01*
X179291485Y-196585771D02*
X178648628Y-195728628D01*
X179291485Y-195085771D02*
X178434342Y-195942914D01*
X179934342Y-196585771D02*
X179934342Y-195585771D01*
X179934342Y-195085771D02*
X179862914Y-195157200D01*
X179934342Y-195228628D01*
X180005771Y-195157200D01*
X179934342Y-195085771D01*
X179934342Y-195228628D01*
X181505771Y-196442914D02*
X181434342Y-196514342D01*
X181220057Y-196585771D01*
X181077200Y-196585771D01*
X180862914Y-196514342D01*
X180720057Y-196371485D01*
X180648628Y-196228628D01*
X180577200Y-195942914D01*
X180577200Y-195728628D01*
X180648628Y-195442914D01*
X180720057Y-195300057D01*
X180862914Y-195157200D01*
X181077200Y-195085771D01*
X181220057Y-195085771D01*
X181434342Y-195157200D01*
X181505771Y-195228628D01*
X182791485Y-196585771D02*
X182791485Y-195800057D01*
X182720057Y-195657200D01*
X182577200Y-195585771D01*
X182291485Y-195585771D01*
X182148628Y-195657200D01*
X182791485Y-196514342D02*
X182648628Y-196585771D01*
X182291485Y-196585771D01*
X182148628Y-196514342D01*
X182077200Y-196371485D01*
X182077200Y-196228628D01*
X182148628Y-196085771D01*
X182291485Y-196014342D01*
X182648628Y-196014342D01*
X182791485Y-195942914D01*
X184148628Y-196585771D02*
X184148628Y-195085771D01*
X184148628Y-196514342D02*
X184005771Y-196585771D01*
X183720057Y-196585771D01*
X183577200Y-196514342D01*
X183505771Y-196442914D01*
X183434342Y-196300057D01*
X183434342Y-195871485D01*
X183505771Y-195728628D01*
X183577200Y-195657200D01*
X183720057Y-195585771D01*
X184005771Y-195585771D01*
X184148628Y-195657200D01*
X186005771Y-195800057D02*
X186505771Y-195800057D01*
X186720057Y-196585771D02*
X186005771Y-196585771D01*
X186005771Y-195085771D01*
X186720057Y-195085771D01*
X187362914Y-196442914D02*
X187434342Y-196514342D01*
X187362914Y-196585771D01*
X187291485Y-196514342D01*
X187362914Y-196442914D01*
X187362914Y-196585771D01*
X188077200Y-196585771D02*
X188077200Y-195085771D01*
X188434342Y-195085771D01*
X188648628Y-195157200D01*
X188791485Y-195300057D01*
X188862914Y-195442914D01*
X188934342Y-195728628D01*
X188934342Y-195942914D01*
X188862914Y-196228628D01*
X188791485Y-196371485D01*
X188648628Y-196514342D01*
X188434342Y-196585771D01*
X188077200Y-196585771D01*
X189577200Y-196442914D02*
X189648628Y-196514342D01*
X189577200Y-196585771D01*
X189505771Y-196514342D01*
X189577200Y-196442914D01*
X189577200Y-196585771D01*
X190220057Y-196157200D02*
X190934342Y-196157200D01*
X190077200Y-196585771D02*
X190577200Y-195085771D01*
X191077200Y-196585771D01*
X191577200Y-196442914D02*
X191648628Y-196514342D01*
X191577200Y-196585771D01*
X191505771Y-196514342D01*
X191577200Y-196442914D01*
X191577200Y-196585771D01*
X194577200Y-196585771D02*
X194577200Y-195085771D01*
X194720057Y-196014342D02*
X195148628Y-196585771D01*
X195148628Y-195585771D02*
X194577200Y-196157200D01*
X195791485Y-196585771D02*
X195791485Y-195585771D01*
X195791485Y-195085771D02*
X195720057Y-195157200D01*
X195791485Y-195228628D01*
X195862914Y-195157200D01*
X195791485Y-195085771D01*
X195791485Y-195228628D01*
X197148628Y-196514342D02*
X197005771Y-196585771D01*
X196720057Y-196585771D01*
X196577200Y-196514342D01*
X196505771Y-196442914D01*
X196434342Y-196300057D01*
X196434342Y-195871485D01*
X196505771Y-195728628D01*
X196577200Y-195657200D01*
X196720057Y-195585771D01*
X197005771Y-195585771D01*
X197148628Y-195657200D01*
X198434342Y-196585771D02*
X198434342Y-195800057D01*
X198362914Y-195657200D01*
X198220057Y-195585771D01*
X197934342Y-195585771D01*
X197791485Y-195657200D01*
X198434342Y-196514342D02*
X198291485Y-196585771D01*
X197934342Y-196585771D01*
X197791485Y-196514342D01*
X197720057Y-196371485D01*
X197720057Y-196228628D01*
X197791485Y-196085771D01*
X197934342Y-196014342D01*
X198291485Y-196014342D01*
X198434342Y-195942914D01*
X199791485Y-196585771D02*
X199791485Y-195085771D01*
X199791485Y-196514342D02*
X199648628Y-196585771D01*
X199362914Y-196585771D01*
X199220057Y-196514342D01*
X199148628Y-196442914D01*
X199077200Y-196300057D01*
X199077200Y-195871485D01*
X199148628Y-195728628D01*
X199220057Y-195657200D01*
X199362914Y-195585771D01*
X199648628Y-195585771D01*
X199791485Y-195657200D01*
X202077200Y-197157200D02*
X202005771Y-197085771D01*
X201862914Y-196871485D01*
X201791485Y-196728628D01*
X201720057Y-196514342D01*
X201648628Y-196157200D01*
X201648628Y-195871485D01*
X201720057Y-195514342D01*
X201791485Y-195300057D01*
X201862914Y-195157200D01*
X202005771Y-194942914D01*
X202077200Y-194871485D01*
X203362914Y-195085771D02*
X202648628Y-195085771D01*
X202577200Y-195800057D01*
X202648628Y-195728628D01*
X202791485Y-195657200D01*
X203148628Y-195657200D01*
X203291485Y-195728628D01*
X203362914Y-195800057D01*
X203434342Y-195942914D01*
X203434342Y-196300057D01*
X203362914Y-196442914D01*
X203291485Y-196514342D01*
X203148628Y-196585771D01*
X202791485Y-196585771D01*
X202648628Y-196514342D01*
X202577200Y-196442914D01*
X204077200Y-196442914D02*
X204148628Y-196514342D01*
X204077200Y-196585771D01*
X204005771Y-196514342D01*
X204077200Y-196442914D01*
X204077200Y-196585771D01*
X205577200Y-196585771D02*
X204720057Y-196585771D01*
X205148628Y-196585771D02*
X205148628Y-195085771D01*
X205005771Y-195300057D01*
X204862914Y-195442914D01*
X204720057Y-195514342D01*
X206220057Y-196442914D02*
X206291485Y-196514342D01*
X206220057Y-196585771D01*
X206148628Y-196514342D01*
X206220057Y-196442914D01*
X206220057Y-196585771D01*
X207577200Y-195085771D02*
X207291485Y-195085771D01*
X207148628Y-195157200D01*
X207077200Y-195228628D01*
X206934342Y-195442914D01*
X206862914Y-195728628D01*
X206862914Y-196300057D01*
X206934342Y-196442914D01*
X207005771Y-196514342D01*
X207148628Y-196585771D01*
X207434342Y-196585771D01*
X207577200Y-196514342D01*
X207648628Y-196442914D01*
X207720057Y-196300057D01*
X207720057Y-195942914D01*
X207648628Y-195800057D01*
X207577200Y-195728628D01*
X207434342Y-195657200D01*
X207148628Y-195657200D01*
X207005771Y-195728628D01*
X206934342Y-195800057D01*
X206862914Y-195942914D01*
X208220057Y-197157200D02*
X208291485Y-197085771D01*
X208434342Y-196871485D01*
X208505771Y-196728628D01*
X208577200Y-196514342D01*
X208648628Y-196157200D01*
X208648628Y-195871485D01*
X208577200Y-195514342D01*
X208505771Y-195300057D01*
X208434342Y-195157200D01*
X208291485Y-194942914D01*
X208220057Y-194871485D01*
X209362914Y-196014342D02*
X210505771Y-196014342D01*
X212005771Y-196585771D02*
X211148628Y-196585771D01*
X211577200Y-196585771D02*
X211577200Y-195085771D01*
X211434342Y-195300057D01*
X211291485Y-195442914D01*
X211148628Y-195514342D01*
X177002200Y-191507200D02*
X285002200Y-191507200D01*
D11*
X264411485Y-193785771D02*
X263911485Y-193071485D01*
X263554342Y-193785771D02*
X263554342Y-192285771D01*
X264125771Y-192285771D01*
X264268628Y-192357200D01*
X264340057Y-192428628D01*
X264411485Y-192571485D01*
X264411485Y-192785771D01*
X264340057Y-192928628D01*
X264268628Y-193000057D01*
X264125771Y-193071485D01*
X263554342Y-193071485D01*
X265625771Y-193714342D02*
X265482914Y-193785771D01*
X265197200Y-193785771D01*
X265054342Y-193714342D01*
X264982914Y-193571485D01*
X264982914Y-193000057D01*
X265054342Y-192857200D01*
X265197200Y-192785771D01*
X265482914Y-192785771D01*
X265625771Y-192857200D01*
X265697200Y-193000057D01*
X265697200Y-193142914D01*
X264982914Y-193285771D01*
X266197200Y-192785771D02*
X266554342Y-193785771D01*
X266911485Y-192785771D01*
X267482914Y-193642914D02*
X267554342Y-193714342D01*
X267482914Y-193785771D01*
X267411485Y-193714342D01*
X267482914Y-193642914D01*
X267482914Y-193785771D01*
X267482914Y-192857200D02*
X267554342Y-192928628D01*
X267482914Y-193000057D01*
X267411485Y-192928628D01*
X267482914Y-192857200D01*
X267482914Y-193000057D01*
D10*
X178362914Y-193714342D02*
X178577200Y-193785771D01*
X178934342Y-193785771D01*
X179077200Y-193714342D01*
X179148628Y-193642914D01*
X179220057Y-193500057D01*
X179220057Y-193357200D01*
X179148628Y-193214342D01*
X179077200Y-193142914D01*
X178934342Y-193071485D01*
X178648628Y-193000057D01*
X178505771Y-192928628D01*
X178434342Y-192857200D01*
X178362914Y-192714342D01*
X178362914Y-192571485D01*
X178434342Y-192428628D01*
X178505771Y-192357200D01*
X178648628Y-192285771D01*
X179005771Y-192285771D01*
X179220057Y-192357200D01*
X179862914Y-193785771D02*
X179862914Y-192785771D01*
X179862914Y-192285771D02*
X179791485Y-192357200D01*
X179862914Y-192428628D01*
X179934342Y-192357200D01*
X179862914Y-192285771D01*
X179862914Y-192428628D01*
X180434342Y-192785771D02*
X181220057Y-192785771D01*
X180434342Y-193785771D01*
X181220057Y-193785771D01*
X182362914Y-193714342D02*
X182220057Y-193785771D01*
X181934342Y-193785771D01*
X181791485Y-193714342D01*
X181720057Y-193571485D01*
X181720057Y-193000057D01*
X181791485Y-192857200D01*
X181934342Y-192785771D01*
X182220057Y-192785771D01*
X182362914Y-192857200D01*
X182434342Y-193000057D01*
X182434342Y-193142914D01*
X181720057Y-193285771D01*
X183077200Y-193642914D02*
X183148628Y-193714342D01*
X183077200Y-193785771D01*
X183005771Y-193714342D01*
X183077200Y-193642914D01*
X183077200Y-193785771D01*
X183077200Y-192857200D02*
X183148628Y-192928628D01*
X183077200Y-193000057D01*
X183005771Y-192928628D01*
X183077200Y-192857200D01*
X183077200Y-193000057D01*
X184862914Y-193357200D02*
X185577200Y-193357200D01*
X184720057Y-193785771D02*
X185220057Y-192285771D01*
X185720057Y-193785771D01*
X186862914Y-192785771D02*
X186862914Y-193785771D01*
X186505771Y-192214342D02*
X186148628Y-193285771D01*
X187077200Y-193285771D01*
X263434342Y-196585771D02*
X263434342Y-195085771D01*
X264791485Y-196585771D02*
X264791485Y-195085771D01*
X264791485Y-196514342D02*
X264648628Y-196585771D01*
X264362914Y-196585771D01*
X264220057Y-196514342D01*
X264148628Y-196442914D01*
X264077200Y-196300057D01*
X264077200Y-195871485D01*
X264148628Y-195728628D01*
X264220057Y-195657200D01*
X264362914Y-195585771D01*
X264648628Y-195585771D01*
X264791485Y-195657200D01*
X265505771Y-196442914D02*
X265577200Y-196514342D01*
X265505771Y-196585771D01*
X265434342Y-196514342D01*
X265505771Y-196442914D01*
X265505771Y-196585771D01*
X265505771Y-195657200D02*
X265577200Y-195728628D01*
X265505771Y-195800057D01*
X265434342Y-195728628D01*
X265505771Y-195657200D01*
X265505771Y-195800057D01*
X268148628Y-196585771D02*
X267291485Y-196585771D01*
X267720057Y-196585771D02*
X267720057Y-195085771D01*
X267577200Y-195300057D01*
X267434342Y-195442914D01*
X267291485Y-195514342D01*
X269862914Y-195014342D02*
X268577200Y-196942914D01*
X271148628Y-196585771D02*
X270291485Y-196585771D01*
X270720057Y-196585771D02*
X270720057Y-195085771D01*
X270577200Y-195300057D01*
X270434342Y-195442914D01*
X270291485Y-195514342D01*
X177002200Y-187507200D02*
X285002200Y-187507200D01*
D12*
X178714580Y-188211961D02*
X179857438Y-188211961D01*
X179036009Y-190211961D02*
X179286009Y-188211961D01*
X180274104Y-190211961D02*
X180440771Y-188878628D01*
X180524104Y-188211961D02*
X180416961Y-188307200D01*
X180500295Y-188402438D01*
X180607438Y-188307200D01*
X180524104Y-188211961D01*
X180500295Y-188402438D01*
X181107438Y-188878628D02*
X181869342Y-188878628D01*
X181476485Y-188211961D02*
X181262200Y-189926247D01*
X181333628Y-190116723D01*
X181512200Y-190211961D01*
X181702676Y-190211961D01*
X182655057Y-190211961D02*
X182476485Y-190116723D01*
X182405057Y-189926247D01*
X182619342Y-188211961D01*
X184190771Y-190116723D02*
X183988390Y-190211961D01*
X183607438Y-190211961D01*
X183428866Y-190116723D01*
X183357438Y-189926247D01*
X183452676Y-189164342D01*
X183571723Y-188973866D01*
X183774104Y-188878628D01*
X184155057Y-188878628D01*
X184333628Y-188973866D01*
X184405057Y-189164342D01*
X184381247Y-189354819D01*
X183405057Y-189545295D01*
X185155057Y-190021485D02*
X185238390Y-190116723D01*
X185131247Y-190211961D01*
X185047914Y-190116723D01*
X185155057Y-190021485D01*
X185131247Y-190211961D01*
X185286009Y-188973866D02*
X185369342Y-189069104D01*
X185262200Y-189164342D01*
X185178866Y-189069104D01*
X185286009Y-188973866D01*
X185262200Y-189164342D01*
D10*
X178934342Y-185600057D02*
X178434342Y-185600057D01*
X178434342Y-186385771D02*
X178434342Y-184885771D01*
X179148628Y-184885771D01*
X179720057Y-186385771D02*
X179720057Y-185385771D01*
X179720057Y-184885771D02*
X179648628Y-184957200D01*
X179720057Y-185028628D01*
X179791485Y-184957200D01*
X179720057Y-184885771D01*
X179720057Y-185028628D01*
X180648628Y-186385771D02*
X180505771Y-186314342D01*
X180434342Y-186171485D01*
X180434342Y-184885771D01*
X181791485Y-186314342D02*
X181648628Y-186385771D01*
X181362914Y-186385771D01*
X181220057Y-186314342D01*
X181148628Y-186171485D01*
X181148628Y-185600057D01*
X181220057Y-185457200D01*
X181362914Y-185385771D01*
X181648628Y-185385771D01*
X181791485Y-185457200D01*
X181862914Y-185600057D01*
X181862914Y-185742914D01*
X181148628Y-185885771D01*
X182505771Y-186242914D02*
X182577200Y-186314342D01*
X182505771Y-186385771D01*
X182434342Y-186314342D01*
X182505771Y-186242914D01*
X182505771Y-186385771D01*
X182505771Y-185457200D02*
X182577200Y-185528628D01*
X182505771Y-185600057D01*
X182434342Y-185528628D01*
X182505771Y-185457200D01*
X182505771Y-185600057D01*
X184362914Y-186385771D02*
X184362914Y-184885771D01*
X185005771Y-186385771D02*
X185005771Y-185600057D01*
X184934342Y-185457200D01*
X184791485Y-185385771D01*
X184577200Y-185385771D01*
X184434342Y-185457200D01*
X184362914Y-185528628D01*
X186362914Y-186385771D02*
X186362914Y-185600057D01*
X186291485Y-185457200D01*
X186148628Y-185385771D01*
X185862914Y-185385771D01*
X185720057Y-185457200D01*
X186362914Y-186314342D02*
X186220057Y-186385771D01*
X185862914Y-186385771D01*
X185720057Y-186314342D01*
X185648628Y-186171485D01*
X185648628Y-186028628D01*
X185720057Y-185885771D01*
X185862914Y-185814342D01*
X186220057Y-185814342D01*
X186362914Y-185742914D01*
X187720057Y-186314342D02*
X187577200Y-186385771D01*
X187291485Y-186385771D01*
X187148628Y-186314342D01*
X187077200Y-186242914D01*
X187005771Y-186100057D01*
X187005771Y-185671485D01*
X187077200Y-185528628D01*
X187148628Y-185457200D01*
X187291485Y-185385771D01*
X187577200Y-185385771D01*
X187720057Y-185457200D01*
X188362914Y-186385771D02*
X188362914Y-184885771D01*
X188505771Y-185814342D02*
X188934342Y-186385771D01*
X188934342Y-185385771D02*
X188362914Y-185957200D01*
X189220057Y-186528628D02*
X190362914Y-186528628D01*
X191362914Y-186314342D02*
X191220057Y-186385771D01*
X190934342Y-186385771D01*
X190791485Y-186314342D01*
X190720057Y-186242914D01*
X190648628Y-186100057D01*
X190648628Y-185671485D01*
X190720057Y-185528628D01*
X190791485Y-185457200D01*
X190934342Y-185385771D01*
X191220057Y-185385771D01*
X191362914Y-185457200D01*
X192220057Y-186385771D02*
X192077200Y-186314342D01*
X192005771Y-186171485D01*
X192005771Y-184885771D01*
X193005771Y-186385771D02*
X192862914Y-186314342D01*
X192791485Y-186242914D01*
X192720057Y-186100057D01*
X192720057Y-185671485D01*
X192791485Y-185528628D01*
X192862914Y-185457200D01*
X193005771Y-185385771D01*
X193220057Y-185385771D01*
X193362914Y-185457200D01*
X193434342Y-185528628D01*
X193505771Y-185671485D01*
X193505771Y-186100057D01*
X193434342Y-186242914D01*
X193362914Y-186314342D01*
X193220057Y-186385771D01*
X193005771Y-186385771D01*
X194791485Y-186314342D02*
X194648628Y-186385771D01*
X194362914Y-186385771D01*
X194220057Y-186314342D01*
X194148628Y-186242914D01*
X194077200Y-186100057D01*
X194077200Y-185671485D01*
X194148628Y-185528628D01*
X194220057Y-185457200D01*
X194362914Y-185385771D01*
X194648628Y-185385771D01*
X194791485Y-185457200D01*
X195434342Y-186385771D02*
X195434342Y-184885771D01*
X195577200Y-185814342D02*
X196005771Y-186385771D01*
X196005771Y-185385771D02*
X195434342Y-185957200D01*
X196648628Y-186242914D02*
X196720057Y-186314342D01*
X196648628Y-186385771D01*
X196577200Y-186314342D01*
X196648628Y-186242914D01*
X196648628Y-186385771D01*
X197362914Y-186385771D02*
X197362914Y-184885771D01*
X197505771Y-185814342D02*
X197934342Y-186385771D01*
X197934342Y-185385771D02*
X197362914Y-185957200D01*
X198577200Y-186385771D02*
X198577200Y-185385771D01*
X198577200Y-184885771D02*
X198505771Y-184957200D01*
X198577200Y-185028628D01*
X198648628Y-184957200D01*
X198577200Y-184885771D01*
X198577200Y-185028628D01*
X199934342Y-186314342D02*
X199791485Y-186385771D01*
X199505771Y-186385771D01*
X199362914Y-186314342D01*
X199291485Y-186242914D01*
X199220057Y-186100057D01*
X199220057Y-185671485D01*
X199291485Y-185528628D01*
X199362914Y-185457200D01*
X199505771Y-185385771D01*
X199791485Y-185385771D01*
X199934342Y-185457200D01*
X201220057Y-186385771D02*
X201220057Y-185600057D01*
X201148628Y-185457200D01*
X201005771Y-185385771D01*
X200720057Y-185385771D01*
X200577200Y-185457200D01*
X201220057Y-186314342D02*
X201077200Y-186385771D01*
X200720057Y-186385771D01*
X200577200Y-186314342D01*
X200505771Y-186171485D01*
X200505771Y-186028628D01*
X200577200Y-185885771D01*
X200720057Y-185814342D01*
X201077200Y-185814342D01*
X201220057Y-185742914D01*
X202577200Y-186385771D02*
X202577200Y-184885771D01*
X202577200Y-186314342D02*
X202434342Y-186385771D01*
X202148628Y-186385771D01*
X202005771Y-186314342D01*
X201934342Y-186242914D01*
X201862914Y-186100057D01*
X201862914Y-185671485D01*
X201934342Y-185528628D01*
X202005771Y-185457200D01*
X202148628Y-185385771D01*
X202434342Y-185385771D01*
X202577200Y-185457200D01*
X202934342Y-186528628D02*
X204077200Y-186528628D01*
X204434342Y-185385771D02*
X204434342Y-186885771D01*
X204434342Y-185457200D02*
X204577200Y-185385771D01*
X204862914Y-185385771D01*
X205005771Y-185457200D01*
X205077200Y-185528628D01*
X205148628Y-185671485D01*
X205148628Y-186100057D01*
X205077200Y-186242914D01*
X205005771Y-186314342D01*
X204862914Y-186385771D01*
X204577200Y-186385771D01*
X204434342Y-186314342D01*
X206434342Y-186314342D02*
X206291485Y-186385771D01*
X206005771Y-186385771D01*
X205862914Y-186314342D01*
X205791485Y-186242914D01*
X205720057Y-186100057D01*
X205720057Y-185671485D01*
X205791485Y-185528628D01*
X205862914Y-185457200D01*
X206005771Y-185385771D01*
X206291485Y-185385771D01*
X206434342Y-185457200D01*
X207077200Y-186385771D02*
X207077200Y-184885771D01*
X207077200Y-185457200D02*
X207220057Y-185385771D01*
X207505771Y-185385771D01*
X207648628Y-185457200D01*
X207720057Y-185528628D01*
X207791485Y-185671485D01*
X207791485Y-186100057D01*
X207720057Y-186242914D01*
X207648628Y-186314342D01*
X207505771Y-186385771D01*
X207220057Y-186385771D01*
X207077200Y-186314342D01*
X177002200Y-181507200D02*
X285002200Y-181507200D01*
X178362914Y-183614342D02*
X178577200Y-183685771D01*
X178934342Y-183685771D01*
X179077200Y-183614342D01*
X179148628Y-183542914D01*
X179220057Y-183400057D01*
X179220057Y-183257200D01*
X179148628Y-183114342D01*
X179077200Y-183042914D01*
X178934342Y-182971485D01*
X178648628Y-182900057D01*
X178505771Y-182828628D01*
X178434342Y-182757200D01*
X178362914Y-182614342D01*
X178362914Y-182471485D01*
X178434342Y-182328628D01*
X178505771Y-182257200D01*
X178648628Y-182185771D01*
X179005771Y-182185771D01*
X179220057Y-182257200D01*
X179862914Y-183685771D02*
X179862914Y-182185771D01*
X180505771Y-183685771D02*
X180505771Y-182900057D01*
X180434342Y-182757200D01*
X180291485Y-182685771D01*
X180077200Y-182685771D01*
X179934342Y-182757200D01*
X179862914Y-182828628D01*
X181791485Y-183614342D02*
X181648628Y-183685771D01*
X181362914Y-183685771D01*
X181220057Y-183614342D01*
X181148628Y-183471485D01*
X181148628Y-182900057D01*
X181220057Y-182757200D01*
X181362914Y-182685771D01*
X181648628Y-182685771D01*
X181791485Y-182757200D01*
X181862914Y-182900057D01*
X181862914Y-183042914D01*
X181148628Y-183185771D01*
X183077200Y-183614342D02*
X182934342Y-183685771D01*
X182648628Y-183685771D01*
X182505771Y-183614342D01*
X182434342Y-183471485D01*
X182434342Y-182900057D01*
X182505771Y-182757200D01*
X182648628Y-182685771D01*
X182934342Y-182685771D01*
X183077200Y-182757200D01*
X183148628Y-182900057D01*
X183148628Y-183042914D01*
X182434342Y-183185771D01*
X183577200Y-182685771D02*
X184148628Y-182685771D01*
X183791485Y-182185771D02*
X183791485Y-183471485D01*
X183862914Y-183614342D01*
X184005771Y-183685771D01*
X184148628Y-183685771D01*
X184648628Y-183542914D02*
X184720057Y-183614342D01*
X184648628Y-183685771D01*
X184577200Y-183614342D01*
X184648628Y-183542914D01*
X184648628Y-183685771D01*
X184648628Y-182757200D02*
X184720057Y-182828628D01*
X184648628Y-182900057D01*
X184577200Y-182828628D01*
X184648628Y-182757200D01*
X184648628Y-182900057D01*
X197002200Y-191507200D02*
X197002200Y-194507200D01*
X261002200Y-191507200D02*
X261002200Y-198007200D01*
D13*
X119900000Y-100000000D03*
D14*
X114650000Y-107200000D03*
D15*
X108600000Y-106300000D03*
G04 #@! TA.AperFunction,ComponentPad*
G36*
G01*
X126345000Y-104820000D02*
X125045000Y-104820000D01*
G75*
G02*
X124795000Y-104570000I0J250000D01*
G01*
X124795000Y-104070000D01*
G75*
G02*
X125045000Y-103820000I250000J0D01*
G01*
X126345000Y-103820000D01*
G75*
G02*
X126595000Y-104070000I0J-250000D01*
G01*
X126595000Y-104570000D01*
G75*
G02*
X126345000Y-104820000I-250000J0D01*
G01*
G37*
G04 #@! TD.AperFunction*
G04 #@! TA.AperFunction,ComponentPad*
G36*
G01*
X122265000Y-96180000D02*
X120765000Y-96180000D01*
G75*
G02*
X120515000Y-95930000I0J250000D01*
G01*
X120515000Y-95430000D01*
G75*
G02*
X120765000Y-95180000I250000J0D01*
G01*
X122265000Y-95180000D01*
G75*
G02*
X122515000Y-95430000I0J-250000D01*
G01*
X122515000Y-95930000D01*
G75*
G02*
X122265000Y-96180000I-250000J0D01*
G01*
G37*
G04 #@! TD.AperFunction*
G04 #@! TA.AperFunction,ComponentPad*
G36*
G01*
X126345000Y-96180000D02*
X125045000Y-96180000D01*
G75*
G02*
X124795000Y-95930000I0J250000D01*
G01*
X124795000Y-95430000D01*
G75*
G02*
X125045000Y-95180000I250000J0D01*
G01*
X126345000Y-95180000D01*
G75*
G02*
X126595000Y-95430000I0J-250000D01*
G01*
X126595000Y-95930000D01*
G75*
G02*
X126345000Y-96180000I-250000J0D01*
G01*
G37*
G04 #@! TD.AperFunction*
G04 #@! TA.AperFunction,ComponentPad*
G36*
G01*
X122265000Y-104820000D02*
X120765000Y-104820000D01*
G75*
G02*
X120515000Y-104570000I0J250000D01*
G01*
X120515000Y-104070000D01*
G75*
G02*
X120765000Y-103820000I250000J0D01*
G01*
X122265000Y-103820000D01*
G75*
G02*
X122515000Y-104070000I0J-250000D01*
G01*
X122515000Y-104570000D01*
G75*
G02*
X122265000Y-104820000I-250000J0D01*
G01*
G37*
G04 #@! TD.AperFunction*
D16*
X122045000Y-102890000D03*
X122045000Y-97110000D03*
D17*
X60862690Y-88731800D03*
X63162710Y-88731800D03*
D18*
X126260000Y-108740000D03*
X126780000Y-110000000D03*
D19*
X125000000Y-110000000D03*
D18*
X126260000Y-111260000D03*
X125000000Y-111780000D03*
X123220000Y-110000000D03*
X123740000Y-111260000D03*
X125000000Y-108220000D03*
X123740000Y-108740000D03*
X123740000Y-88740000D03*
X125000000Y-88220000D03*
X123740000Y-91260000D03*
X123220000Y-90000000D03*
X125000000Y-91780000D03*
X126260000Y-91260000D03*
D19*
X125000000Y-90000000D03*
D18*
X126780000Y-90000000D03*
X126260000Y-88740000D03*
X33740000Y-108740000D03*
X35000000Y-108220000D03*
X33740000Y-111260000D03*
X33220000Y-110000000D03*
X35000000Y-111780000D03*
X36260000Y-111260000D03*
D19*
X35000000Y-110000000D03*
D18*
X36780000Y-110000000D03*
X36260000Y-108740000D03*
X36260000Y-88740000D03*
X36780000Y-90000000D03*
D19*
X35000000Y-90000000D03*
D18*
X36260000Y-91260000D03*
X35000000Y-91780000D03*
X33220000Y-90000000D03*
X33740000Y-91260000D03*
X35000000Y-88220000D03*
X33740000Y-88740000D03*
D20*
X48000000Y-103750000D03*
D21*
X48000000Y-96250000D03*
D22*
X35000000Y-96000000D03*
D23*
X35000000Y-98000000D03*
X35000000Y-100000000D03*
X35000000Y-102000000D03*
X35000000Y-104000000D03*
D17*
X99162710Y-88731800D03*
X96862690Y-88731800D03*
D24*
X57260000Y-95170000D03*
D25*
X66550000Y-96990000D03*
D24*
X57260000Y-93210000D03*
X55230000Y-93210000D03*
X91670000Y-93310000D03*
X96780000Y-94140000D03*
X80000000Y-103530000D03*
X80000000Y-98230000D03*
D26*
X41800000Y-109820000D03*
D24*
X67200000Y-93020000D03*
D27*
X112760000Y-95280000D03*
D24*
X101990000Y-111230000D03*
D27*
X97560000Y-107180000D03*
D25*
X79970000Y-111870000D03*
X80000000Y-107850000D03*
D24*
X99280000Y-101640000D03*
X119910000Y-110320000D03*
D26*
X91300000Y-109990000D03*
D24*
X68280000Y-110000000D03*
X70050000Y-110000000D03*
D27*
X101165000Y-95095000D03*
X111560000Y-102940000D03*
X111560000Y-104110000D03*
D25*
X98180000Y-98010000D03*
X99810000Y-96365000D03*
X115850000Y-97810000D03*
X115190000Y-99660000D03*
X66480000Y-106920000D03*
X84300000Y-106610000D03*
X68860000Y-107170000D03*
X62630000Y-104360000D03*
X84910000Y-100920000D03*
X84910000Y-102000000D03*
X63900000Y-104360000D03*
X90640000Y-104000000D03*
X94490000Y-90330000D03*
D27*
X118080000Y-97600000D03*
X118070000Y-102400000D03*
D28*
X66550000Y-96990000D02*
X64730000Y-95170000D01*
X57260000Y-95170000D02*
X64730000Y-95170000D01*
X57260000Y-95170000D02*
X57260000Y-93210000D01*
X79980000Y-103510000D02*
X79980000Y-103470000D01*
X80000000Y-103530000D02*
X79980000Y-103510000D01*
X80780000Y-96650000D02*
X80000000Y-97430000D01*
X80000000Y-97430000D02*
X80000000Y-98230000D01*
D29*
X101990000Y-111230000D02*
X101990000Y-108840000D01*
X100330000Y-107180000D02*
X101990000Y-108840000D01*
X97560000Y-107180000D02*
X100330000Y-107180000D01*
X101990000Y-111230000D02*
X102680000Y-111920000D01*
D28*
X102680000Y-111920000D02*
X101990000Y-111230000D01*
D30*
X68280000Y-110000000D02*
X84230000Y-110000000D01*
X84230000Y-110000000D02*
X91290000Y-110000000D01*
X91290000Y-110000000D02*
X91300000Y-109990000D01*
D31*
X68280000Y-110000000D02*
X68280000Y-109990000D01*
D30*
X68280000Y-110000000D02*
X70050000Y-110000000D01*
D29*
X45540000Y-98370000D02*
X43170000Y-96000000D01*
X91200000Y-105460000D02*
X97190000Y-105460000D01*
X65610000Y-105460000D02*
X52630000Y-105460000D01*
X52630000Y-105460000D02*
X45540000Y-98370000D01*
X91200000Y-105460000D02*
X65610000Y-105460000D01*
X43170000Y-96000000D02*
X35000000Y-96000000D01*
D32*
X107090000Y-95095000D02*
X107760000Y-95095000D01*
X102045000Y-95095000D02*
X107090000Y-95095000D01*
D29*
X107760000Y-95095000D02*
X109455000Y-95095000D01*
D32*
X101165000Y-95095000D02*
X102045000Y-95095000D01*
D29*
X109455000Y-95095000D02*
X101165000Y-95095000D01*
X109925000Y-95095000D02*
X109455000Y-95095000D01*
X111560000Y-96730000D02*
X109925000Y-95095000D01*
X111560000Y-102940000D02*
X111560000Y-96730000D01*
X111560000Y-96730000D02*
X109925000Y-95095000D01*
X101165000Y-95095000D02*
X101165000Y-96630000D01*
X101165000Y-96630000D02*
X101165000Y-96650000D01*
X101165000Y-96650000D02*
X101165000Y-103245000D01*
X101165000Y-103655000D02*
X101165000Y-103245000D01*
X97190000Y-105460000D02*
X98020000Y-105460000D01*
X98020000Y-105460000D02*
X99530000Y-105460000D01*
X101165000Y-103825000D02*
X101165000Y-103655000D01*
X99530000Y-105460000D02*
X101165000Y-103825000D01*
X101165000Y-96650000D02*
X101165000Y-95545000D01*
X101165000Y-95545000D02*
X101615000Y-95095000D01*
X101615000Y-95095000D02*
X102045000Y-95095000D01*
X101165000Y-96630000D02*
X101165000Y-95975000D01*
X101165000Y-95975000D02*
X102045000Y-95095000D01*
X111560000Y-102940000D02*
X111560000Y-104110000D01*
D33*
X111560000Y-104110000D02*
X111560000Y-96730000D01*
X111560000Y-96730000D02*
X109925000Y-95095000D01*
X109925000Y-95095000D02*
X101165000Y-95095000D01*
D28*
X98180000Y-98010000D02*
X98175000Y-98000000D01*
X98175000Y-98000000D02*
X99810000Y-96365000D01*
D34*
X115190000Y-99660000D02*
X115190000Y-98470000D01*
X115190000Y-98470000D02*
X115850000Y-97810000D01*
D28*
X40660000Y-100000000D02*
X35000000Y-100000000D01*
X66480000Y-106920000D02*
X47580000Y-106920000D01*
X47580000Y-106920000D02*
X40660000Y-100000000D01*
X35000000Y-102000000D02*
X41530000Y-102000000D01*
X69170000Y-106290000D02*
X83340000Y-106290000D01*
X84300000Y-106610000D02*
X83980000Y-106290000D01*
X83980000Y-106290000D02*
X83340000Y-106290000D01*
X68810000Y-106290000D02*
X69170000Y-106290000D01*
X68810000Y-106290000D02*
X68400000Y-106290000D01*
X68400000Y-106290000D02*
X66880000Y-107810000D01*
X66880000Y-107810000D02*
X47340000Y-107810000D01*
X47340000Y-107810000D02*
X41530000Y-102000000D01*
X42450000Y-104000000D02*
X35000000Y-104000000D01*
X68860000Y-107170000D02*
X67440000Y-108590000D01*
X47040000Y-108590000D02*
X42450000Y-104000000D01*
X67440000Y-108590000D02*
X47040000Y-108590000D01*
X62630000Y-102490000D02*
X62630000Y-104360000D01*
X64200000Y-100920000D02*
X62630000Y-102490000D01*
X84910000Y-100920000D02*
X64200000Y-100920000D01*
X65270000Y-102000000D02*
X65880000Y-102000000D01*
X65880000Y-102000000D02*
X84910000Y-102000000D01*
X64960000Y-102000000D02*
X65270000Y-102000000D01*
X63900000Y-103060000D02*
X64960000Y-102000000D01*
X63900000Y-104360000D02*
X63900000Y-103060000D01*
X94490000Y-91690000D02*
X94490000Y-102960000D01*
X94490000Y-102960000D02*
X93450000Y-104000000D01*
X93450000Y-104000000D02*
X90640000Y-104000000D01*
X94490000Y-90330000D02*
X94490000Y-91690000D01*
D31*
X118080000Y-97600000D02*
X118080000Y-99070000D01*
X118070000Y-102400000D02*
X119900000Y-100570000D01*
X119900000Y-100570000D02*
X119900000Y-100000000D01*
X118070000Y-102400000D02*
X118070000Y-101830000D01*
X118070000Y-101830000D02*
X119900000Y-100000000D01*
D28*
G36*
X69873000Y-95290000D02*
G01*
X69875440Y-95314776D01*
X69882667Y-95338601D01*
X69894403Y-95360557D01*
X69910197Y-95379803D01*
X69929443Y-95395597D01*
X69951399Y-95407333D01*
X69975224Y-95414560D01*
X70000000Y-95417000D01*
X90000000Y-95417000D01*
X90024776Y-95414560D01*
X90048601Y-95407333D01*
X90070557Y-95395597D01*
X90089803Y-95379803D01*
X90105597Y-95360557D01*
X90117333Y-95338601D01*
X90124560Y-95314776D01*
X90127000Y-95290000D01*
X90127000Y-88628679D01*
X95815690Y-88628679D01*
X95815690Y-88834921D01*
X95855926Y-89037199D01*
X95934851Y-89227740D01*
X96049432Y-89399224D01*
X96195266Y-89545058D01*
X96366750Y-89659639D01*
X96557291Y-89738564D01*
X96759569Y-89778800D01*
X96965811Y-89778800D01*
X97168089Y-89738564D01*
X97358630Y-89659639D01*
X97530114Y-89545058D01*
X97675948Y-89399224D01*
X97790529Y-89227740D01*
X97869454Y-89037199D01*
X97909690Y-88834921D01*
X97909690Y-88628679D01*
X98115710Y-88628679D01*
X98115710Y-88834921D01*
X98155946Y-89037199D01*
X98234871Y-89227740D01*
X98349452Y-89399224D01*
X98495286Y-89545058D01*
X98666770Y-89659639D01*
X98857311Y-89738564D01*
X99059589Y-89778800D01*
X99265831Y-89778800D01*
X99468109Y-89738564D01*
X99658650Y-89659639D01*
X99830134Y-89545058D01*
X99975968Y-89399224D01*
X100090549Y-89227740D01*
X100169474Y-89037199D01*
X100209710Y-88834921D01*
X100209710Y-88628679D01*
X100169474Y-88426401D01*
X100090549Y-88235860D01*
X99975968Y-88064376D01*
X99830134Y-87918542D01*
X99658650Y-87803961D01*
X99468109Y-87725036D01*
X99265831Y-87684800D01*
X99059589Y-87684800D01*
X98857311Y-87725036D01*
X98666770Y-87803961D01*
X98495286Y-87918542D01*
X98349452Y-88064376D01*
X98234871Y-88235860D01*
X98155946Y-88426401D01*
X98115710Y-88628679D01*
X97909690Y-88628679D01*
X97869454Y-88426401D01*
X97790529Y-88235860D01*
X97675948Y-88064376D01*
X97530114Y-87918542D01*
X97358630Y-87803961D01*
X97168089Y-87725036D01*
X96965811Y-87684800D01*
X96759569Y-87684800D01*
X96557291Y-87725036D01*
X96366750Y-87803961D01*
X96195266Y-87918542D01*
X96049432Y-88064376D01*
X95934851Y-88235860D01*
X95855926Y-88426401D01*
X95815690Y-88628679D01*
X90127000Y-88628679D01*
X90127000Y-87597000D01*
X123507877Y-87597000D01*
X123197892Y-87804125D01*
X122804125Y-88197892D01*
X122494745Y-88660913D01*
X122281640Y-89175394D01*
X122173000Y-89721565D01*
X122173000Y-90278435D01*
X122281640Y-90824606D01*
X122494745Y-91339087D01*
X122804125Y-91802108D01*
X123197892Y-92195875D01*
X123660913Y-92505255D01*
X124175394Y-92718360D01*
X124721565Y-92827000D01*
X125278435Y-92827000D01*
X125824606Y-92718360D01*
X126339087Y-92505255D01*
X126802108Y-92195875D01*
X127195875Y-91802108D01*
X127403000Y-91492123D01*
X127403001Y-108507879D01*
X127195875Y-108197892D01*
X126802108Y-107804125D01*
X126339087Y-107494745D01*
X125824606Y-107281640D01*
X125278435Y-107173000D01*
X124721565Y-107173000D01*
X124175394Y-107281640D01*
X123660913Y-107494745D01*
X123197892Y-107804125D01*
X122804125Y-108197892D01*
X122494745Y-108660913D01*
X122281640Y-109175394D01*
X122173000Y-109721565D01*
X122173000Y-110278435D01*
X122281640Y-110824606D01*
X122494745Y-111339087D01*
X122804125Y-111802108D01*
X123197892Y-112195875D01*
X123507877Y-112403000D01*
X36492123Y-112403000D01*
X36802108Y-112195875D01*
X37195875Y-111802108D01*
X37505255Y-111339087D01*
X37718360Y-110824606D01*
X37827000Y-110278435D01*
X37827000Y-109721565D01*
X37718360Y-109175394D01*
X37505255Y-108660913D01*
X37195875Y-108197892D01*
X36802108Y-107804125D01*
X36339087Y-107494745D01*
X35824606Y-107281640D01*
X35278435Y-107173000D01*
X34721565Y-107173000D01*
X34175394Y-107281640D01*
X33660913Y-107494745D01*
X33197892Y-107804125D01*
X32804125Y-108197892D01*
X32597000Y-108507877D01*
X32597000Y-97670600D01*
X33732090Y-97670600D01*
X33855776Y-97873000D01*
X34873000Y-97873000D01*
X34873000Y-97853000D01*
X35127000Y-97853000D01*
X35127000Y-97873000D01*
X36144224Y-97873000D01*
X36267910Y-97670600D01*
X36237238Y-97569472D01*
X36129473Y-97336371D01*
X35978303Y-97128773D01*
X35789537Y-96954656D01*
X35779593Y-96948577D01*
X35931170Y-96797000D01*
X42839872Y-96797000D01*
X52038749Y-105995877D01*
X52063709Y-106026291D01*
X52130105Y-106080780D01*
X52185067Y-106125887D01*
X52242945Y-106156823D01*
X52323526Y-106199894D01*
X52473761Y-106245468D01*
X52479163Y-106246000D01*
X47859180Y-106246000D01*
X45240361Y-103627181D01*
X46753000Y-103627181D01*
X46753000Y-103872819D01*
X46800921Y-104113737D01*
X46894923Y-104340676D01*
X47031392Y-104544916D01*
X47205084Y-104718608D01*
X47409324Y-104855077D01*
X47636263Y-104949079D01*
X47877181Y-104997000D01*
X48122819Y-104997000D01*
X48363737Y-104949079D01*
X48590676Y-104855077D01*
X48794916Y-104718608D01*
X48968608Y-104544916D01*
X49105077Y-104340676D01*
X49199079Y-104113737D01*
X49247000Y-103872819D01*
X49247000Y-103627181D01*
X49199079Y-103386263D01*
X49105077Y-103159324D01*
X48968608Y-102955084D01*
X48794916Y-102781392D01*
X48590676Y-102644923D01*
X48363737Y-102550921D01*
X48122819Y-102503000D01*
X47877181Y-102503000D01*
X47636263Y-102550921D01*
X47409324Y-102644923D01*
X47205084Y-102781392D01*
X47031392Y-102955084D01*
X46894923Y-103159324D01*
X46800921Y-103386263D01*
X46753000Y-103627181D01*
X45240361Y-103627181D01*
X41160007Y-99546828D01*
X41138896Y-99521104D01*
X41036266Y-99436878D01*
X40919177Y-99374292D01*
X40792127Y-99335752D01*
X40693110Y-99326000D01*
X40693108Y-99326000D01*
X40660000Y-99322739D01*
X40626892Y-99326000D01*
X36019335Y-99326000D01*
X35949190Y-99221020D01*
X35779593Y-99051423D01*
X35789537Y-99045344D01*
X35978303Y-98871227D01*
X36129473Y-98663629D01*
X36237238Y-98430528D01*
X36267910Y-98329400D01*
X36144224Y-98127000D01*
X35127000Y-98127000D01*
X35127000Y-98147000D01*
X34873000Y-98147000D01*
X34873000Y-98127000D01*
X33855776Y-98127000D01*
X33732090Y-98329400D01*
X33762762Y-98430528D01*
X33870527Y-98663629D01*
X34021697Y-98871227D01*
X34210463Y-99045344D01*
X34220407Y-99051423D01*
X34050810Y-99221020D01*
X33917077Y-99421166D01*
X33824961Y-99643556D01*
X33778000Y-99879643D01*
X33778000Y-100120357D01*
X33824961Y-100356444D01*
X33917077Y-100578834D01*
X34050810Y-100778980D01*
X34221020Y-100949190D01*
X34297063Y-101000000D01*
X34221020Y-101050810D01*
X34050810Y-101221020D01*
X33917077Y-101421166D01*
X33824961Y-101643556D01*
X33778000Y-101879643D01*
X33778000Y-102120357D01*
X33824961Y-102356444D01*
X33917077Y-102578834D01*
X34050810Y-102778980D01*
X34221020Y-102949190D01*
X34297063Y-103000000D01*
X34221020Y-103050810D01*
X34050810Y-103221020D01*
X33917077Y-103421166D01*
X33824961Y-103643556D01*
X33778000Y-103879643D01*
X33778000Y-104120357D01*
X33824961Y-104356444D01*
X33917077Y-104578834D01*
X34050810Y-104778980D01*
X34221020Y-104949190D01*
X34421166Y-105082923D01*
X34643556Y-105175039D01*
X34879643Y-105222000D01*
X35120357Y-105222000D01*
X35356444Y-105175039D01*
X35578834Y-105082923D01*
X35778980Y-104949190D01*
X35949190Y-104778980D01*
X36019335Y-104674000D01*
X42170821Y-104674000D01*
X46539997Y-109043177D01*
X46561104Y-109068896D01*
X46663734Y-109153122D01*
X46780823Y-109215708D01*
X46907873Y-109254248D01*
X47006890Y-109264000D01*
X47006891Y-109264000D01*
X47039999Y-109267261D01*
X47073107Y-109264000D01*
X67206164Y-109264000D01*
X67196366Y-109275939D01*
X67166188Y-109332398D01*
X67130613Y-109385640D01*
X67106108Y-109444800D01*
X67075931Y-109501258D01*
X67057348Y-109562519D01*
X67032843Y-109621679D01*
X67020351Y-109684481D01*
X67001767Y-109745744D01*
X66995492Y-109809456D01*
X66983000Y-109872257D01*
X66983000Y-109936289D01*
X66976725Y-110000000D01*
X66983000Y-110063711D01*
X66983000Y-110127743D01*
X66995492Y-110190544D01*
X67001767Y-110254256D01*
X67020351Y-110315519D01*
X67032843Y-110378321D01*
X67057348Y-110437481D01*
X67075931Y-110498742D01*
X67106108Y-110555200D01*
X67130613Y-110614360D01*
X67166188Y-110667602D01*
X67196366Y-110724061D01*
X67236979Y-110773548D01*
X67272554Y-110826790D01*
X67317833Y-110872069D01*
X67358445Y-110921555D01*
X67407931Y-110962167D01*
X67453210Y-111007446D01*
X67506452Y-111043021D01*
X67555939Y-111083634D01*
X67612398Y-111113812D01*
X67665640Y-111149387D01*
X67724800Y-111173892D01*
X67781258Y-111204069D01*
X67842519Y-111222652D01*
X67901679Y-111247157D01*
X67964481Y-111259649D01*
X68025744Y-111278233D01*
X68089455Y-111284508D01*
X68152257Y-111297000D01*
X90471538Y-111297000D01*
X90567221Y-111360933D01*
X90848757Y-111477549D01*
X91147634Y-111537000D01*
X91452366Y-111537000D01*
X91751243Y-111477549D01*
X92032779Y-111360933D01*
X92286155Y-111191633D01*
X92501633Y-110976155D01*
X92670933Y-110722779D01*
X92787549Y-110441243D01*
X92815644Y-110300000D01*
X106211928Y-110300000D01*
X106224188Y-110424482D01*
X106260498Y-110544180D01*
X106319463Y-110654494D01*
X106398815Y-110751185D01*
X106495506Y-110830537D01*
X106605820Y-110889502D01*
X106725518Y-110925812D01*
X106850000Y-110938072D01*
X108314250Y-110935000D01*
X108473000Y-110776250D01*
X108473000Y-106427000D01*
X108727000Y-106427000D01*
X108727000Y-110776250D01*
X108885750Y-110935000D01*
X110350000Y-110938072D01*
X110474482Y-110925812D01*
X110594180Y-110889502D01*
X110704494Y-110830537D01*
X110801185Y-110751185D01*
X110880537Y-110654494D01*
X110939502Y-110544180D01*
X110975812Y-110424482D01*
X110988072Y-110300000D01*
X112261928Y-110300000D01*
X112274188Y-110424482D01*
X112310498Y-110544180D01*
X112369463Y-110654494D01*
X112448815Y-110751185D01*
X112545506Y-110830537D01*
X112655820Y-110889502D01*
X112775518Y-110925812D01*
X112900000Y-110938072D01*
X114364250Y-110935000D01*
X114523000Y-110776250D01*
X114523000Y-107327000D01*
X114777000Y-107327000D01*
X114777000Y-110776250D01*
X114935750Y-110935000D01*
X116400000Y-110938072D01*
X116524482Y-110925812D01*
X116644180Y-110889502D01*
X116754494Y-110830537D01*
X116851185Y-110751185D01*
X116930537Y-110654494D01*
X116989502Y-110544180D01*
X117025812Y-110424482D01*
X117038072Y-110300000D01*
X117035000Y-107485750D01*
X116876250Y-107327000D01*
X114777000Y-107327000D01*
X114523000Y-107327000D01*
X112423750Y-107327000D01*
X112265000Y-107485750D01*
X112261928Y-110300000D01*
X110988072Y-110300000D01*
X110985000Y-106585750D01*
X110826250Y-106427000D01*
X108727000Y-106427000D01*
X108473000Y-106427000D01*
X106373750Y-106427000D01*
X106215000Y-106585750D01*
X106211928Y-110300000D01*
X92815644Y-110300000D01*
X92847000Y-110142366D01*
X92847000Y-109837634D01*
X92787549Y-109538757D01*
X92670933Y-109257221D01*
X92501633Y-109003845D01*
X92286155Y-108788367D01*
X92032779Y-108619067D01*
X91751243Y-108502451D01*
X91452366Y-108443000D01*
X91147634Y-108443000D01*
X90848757Y-108502451D01*
X90567221Y-108619067D01*
X90441606Y-108703000D01*
X68280179Y-108703000D01*
X68866180Y-108117000D01*
X68953271Y-108117000D01*
X69136230Y-108080607D01*
X69308573Y-108009220D01*
X69463677Y-107905583D01*
X69595583Y-107773677D01*
X69699220Y-107618573D01*
X69770607Y-107446230D01*
X69807000Y-107263271D01*
X69807000Y-107076729D01*
X69784577Y-106964000D01*
X83421606Y-106964000D01*
X83460780Y-107058573D01*
X83564417Y-107213677D01*
X83696323Y-107345583D01*
X83851427Y-107449220D01*
X84023770Y-107520607D01*
X84206729Y-107557000D01*
X84393271Y-107557000D01*
X84576230Y-107520607D01*
X84748573Y-107449220D01*
X84903677Y-107345583D01*
X85035583Y-107213677D01*
X85139220Y-107058573D01*
X85210607Y-106886230D01*
X85247000Y-106703271D01*
X85247000Y-106516729D01*
X85210607Y-106333770D01*
X85178808Y-106257000D01*
X99490852Y-106257000D01*
X99530000Y-106260856D01*
X99569148Y-106257000D01*
X99569151Y-106257000D01*
X99686239Y-106245468D01*
X99836474Y-106199894D01*
X99974932Y-106125887D01*
X100096291Y-106026291D01*
X100121251Y-105995877D01*
X101700879Y-104416249D01*
X101731291Y-104391291D01*
X101809787Y-104295643D01*
X101830887Y-104269933D01*
X101891505Y-104156523D01*
X101904894Y-104131474D01*
X101950468Y-103981239D01*
X101962000Y-103864151D01*
X101962000Y-103864149D01*
X101965856Y-103825001D01*
X101962000Y-103785852D01*
X101962000Y-102300000D01*
X106211928Y-102300000D01*
X106215000Y-106014250D01*
X106373750Y-106173000D01*
X108473000Y-106173000D01*
X108473000Y-101823750D01*
X108314250Y-101665000D01*
X106850000Y-101661928D01*
X106725518Y-101674188D01*
X106605820Y-101710498D01*
X106495506Y-101769463D01*
X106398815Y-101848815D01*
X106319463Y-101945506D01*
X106260498Y-102055820D01*
X106224188Y-102175518D01*
X106211928Y-102300000D01*
X101962000Y-102300000D01*
X101962000Y-96305128D01*
X102225129Y-96042000D01*
X109532741Y-96042000D01*
X110613001Y-97122261D01*
X110613000Y-101720558D01*
X110594180Y-101710498D01*
X110474482Y-101674188D01*
X110350000Y-101661928D01*
X108885750Y-101665000D01*
X108727000Y-101823750D01*
X108727000Y-106173000D01*
X110826250Y-106173000D01*
X110985000Y-106014250D01*
X110985851Y-104985582D01*
X111064060Y-105037839D01*
X111254601Y-105116764D01*
X111456879Y-105157000D01*
X111663121Y-105157000D01*
X111865399Y-105116764D01*
X112055940Y-105037839D01*
X112227424Y-104923258D01*
X112262788Y-104887894D01*
X112265000Y-106914250D01*
X112423750Y-107073000D01*
X114523000Y-107073000D01*
X114523000Y-103623750D01*
X114777000Y-103623750D01*
X114777000Y-107073000D01*
X116876250Y-107073000D01*
X117035000Y-106914250D01*
X117037286Y-104820000D01*
X119876928Y-104820000D01*
X119889188Y-104944482D01*
X119925498Y-105064180D01*
X119984463Y-105174494D01*
X120063815Y-105271185D01*
X120160506Y-105350537D01*
X120270820Y-105409502D01*
X120390518Y-105445812D01*
X120515000Y-105458072D01*
X121229250Y-105455000D01*
X121388000Y-105296250D01*
X121388000Y-104447000D01*
X121642000Y-104447000D01*
X121642000Y-105296250D01*
X121800750Y-105455000D01*
X122515000Y-105458072D01*
X122639482Y-105445812D01*
X122759180Y-105409502D01*
X122869494Y-105350537D01*
X122966185Y-105271185D01*
X123045537Y-105174494D01*
X123104502Y-105064180D01*
X123140812Y-104944482D01*
X123153072Y-104820000D01*
X124156928Y-104820000D01*
X124169188Y-104944482D01*
X124205498Y-105064180D01*
X124264463Y-105174494D01*
X124343815Y-105271185D01*
X124440506Y-105350537D01*
X124550820Y-105409502D01*
X124670518Y-105445812D01*
X124795000Y-105458072D01*
X125409250Y-105455000D01*
X125568000Y-105296250D01*
X125568000Y-104447000D01*
X125822000Y-104447000D01*
X125822000Y-105296250D01*
X125980750Y-105455000D01*
X126595000Y-105458072D01*
X126719482Y-105445812D01*
X126839180Y-105409502D01*
X126949494Y-105350537D01*
X127046185Y-105271185D01*
X127125537Y-105174494D01*
X127184502Y-105064180D01*
X127220812Y-104944482D01*
X127233072Y-104820000D01*
X127230000Y-104605750D01*
X127071250Y-104447000D01*
X125822000Y-104447000D01*
X125568000Y-104447000D01*
X124318750Y-104447000D01*
X124160000Y-104605750D01*
X124156928Y-104820000D01*
X123153072Y-104820000D01*
X123150000Y-104605750D01*
X122991250Y-104447000D01*
X121642000Y-104447000D01*
X121388000Y-104447000D01*
X120038750Y-104447000D01*
X119880000Y-104605750D01*
X119876928Y-104820000D01*
X117037286Y-104820000D01*
X117038072Y-104100000D01*
X117025812Y-103975518D01*
X116989502Y-103855820D01*
X116930537Y-103745506D01*
X116851185Y-103648815D01*
X116754494Y-103569463D01*
X116644180Y-103510498D01*
X116524482Y-103474188D01*
X116400000Y-103461928D01*
X114935750Y-103465000D01*
X114777000Y-103623750D01*
X114523000Y-103623750D01*
X114364250Y-103465000D01*
X112900000Y-103461928D01*
X112775518Y-103474188D01*
X112655820Y-103510498D01*
X112545506Y-103569463D01*
X112507000Y-103601064D01*
X112507000Y-103389681D01*
X112566764Y-103245399D01*
X112607000Y-103043121D01*
X112607000Y-102836879D01*
X112566764Y-102634601D01*
X112507000Y-102490319D01*
X112507000Y-99566729D01*
X114243000Y-99566729D01*
X114243000Y-99753271D01*
X114279393Y-99936230D01*
X114350780Y-100108573D01*
X114454417Y-100263677D01*
X114586323Y-100395583D01*
X114741427Y-100499220D01*
X114913770Y-100570607D01*
X115096729Y-100607000D01*
X115283271Y-100607000D01*
X115466230Y-100570607D01*
X115638573Y-100499220D01*
X115793677Y-100395583D01*
X115925583Y-100263677D01*
X116029220Y-100108573D01*
X116100607Y-99936230D01*
X116137000Y-99753271D01*
X116137000Y-99566729D01*
X116100607Y-99383770D01*
X116029220Y-99211427D01*
X115925583Y-99056323D01*
X115862000Y-98992740D01*
X115862000Y-98757000D01*
X115943271Y-98757000D01*
X116126230Y-98720607D01*
X116298573Y-98649220D01*
X116453677Y-98545583D01*
X116585583Y-98413677D01*
X116650354Y-98316740D01*
X116650354Y-101900000D01*
X116660915Y-102007231D01*
X116692193Y-102110340D01*
X116742986Y-102205367D01*
X116811342Y-102288658D01*
X116894633Y-102357014D01*
X116989660Y-102407807D01*
X117023000Y-102417921D01*
X117023000Y-102503121D01*
X117063236Y-102705399D01*
X117142161Y-102895940D01*
X117256742Y-103067424D01*
X117402576Y-103213258D01*
X117574060Y-103327839D01*
X117764601Y-103406764D01*
X117966879Y-103447000D01*
X118173121Y-103447000D01*
X118375399Y-103406764D01*
X118565940Y-103327839D01*
X118737424Y-103213258D01*
X118883258Y-103067424D01*
X118997839Y-102895940D01*
X119076764Y-102705399D01*
X119105152Y-102562687D01*
X119218192Y-102449646D01*
X121107782Y-102449646D01*
X121054423Y-102573184D01*
X121011649Y-102772523D01*
X121008587Y-102976377D01*
X121045353Y-103176912D01*
X121048253Y-103184222D01*
X120515000Y-103181928D01*
X120390518Y-103194188D01*
X120270820Y-103230498D01*
X120160506Y-103289463D01*
X120063815Y-103368815D01*
X119984463Y-103465506D01*
X119925498Y-103575820D01*
X119889188Y-103695518D01*
X119876928Y-103820000D01*
X119880000Y-104034250D01*
X120038750Y-104193000D01*
X121388000Y-104193000D01*
X121388000Y-104173000D01*
X121642000Y-104173000D01*
X121642000Y-104193000D01*
X122991250Y-104193000D01*
X123150000Y-104034250D01*
X123153072Y-103820000D01*
X124156928Y-103820000D01*
X124160000Y-104034250D01*
X124318750Y-104193000D01*
X125568000Y-104193000D01*
X125568000Y-103343750D01*
X125822000Y-103343750D01*
X125822000Y-104193000D01*
X127071250Y-104193000D01*
X127230000Y-104034250D01*
X127233072Y-103820000D01*
X127220812Y-103695518D01*
X127184502Y-103575820D01*
X127125537Y-103465506D01*
X127046185Y-103368815D01*
X126949494Y-103289463D01*
X126839180Y-103230498D01*
X126719482Y-103194188D01*
X126595000Y-103181928D01*
X125980750Y-103185000D01*
X125822000Y-103343750D01*
X125568000Y-103343750D01*
X125409250Y-103185000D01*
X124795000Y-103181928D01*
X124670518Y-103194188D01*
X124550820Y-103230498D01*
X124440506Y-103289463D01*
X124343815Y-103368815D01*
X124264463Y-103465506D01*
X124205498Y-103575820D01*
X124169188Y-103695518D01*
X124156928Y-103820000D01*
X123153072Y-103820000D01*
X123140812Y-103695518D01*
X123104502Y-103575820D01*
X123045537Y-103465506D01*
X122966185Y-103368815D01*
X122965757Y-103368464D01*
X123035577Y-103206816D01*
X123078351Y-103007477D01*
X123081413Y-102803623D01*
X123044647Y-102603088D01*
X122969466Y-102413580D01*
X122954736Y-102386019D01*
X122869112Y-102376393D01*
X122905367Y-102357014D01*
X122988658Y-102288658D01*
X123057014Y-102205367D01*
X123107807Y-102110340D01*
X123139085Y-102007231D01*
X123149646Y-101900000D01*
X123149646Y-98100000D01*
X123139085Y-97992769D01*
X123107807Y-97889660D01*
X123057014Y-97794633D01*
X122988658Y-97711342D01*
X122905367Y-97642986D01*
X122869112Y-97623607D01*
X122954736Y-97613981D01*
X123035577Y-97426816D01*
X123078351Y-97227477D01*
X123081413Y-97023623D01*
X123044647Y-96823088D01*
X122969466Y-96633580D01*
X122967397Y-96629708D01*
X123045537Y-96534494D01*
X123104502Y-96424180D01*
X123140812Y-96304482D01*
X123153072Y-96180000D01*
X124156928Y-96180000D01*
X124169188Y-96304482D01*
X124205498Y-96424180D01*
X124264463Y-96534494D01*
X124343815Y-96631185D01*
X124440506Y-96710537D01*
X124550820Y-96769502D01*
X124670518Y-96805812D01*
X124795000Y-96818072D01*
X125409250Y-96815000D01*
X125568000Y-96656250D01*
X125568000Y-95807000D01*
X125822000Y-95807000D01*
X125822000Y-96656250D01*
X125980750Y-96815000D01*
X126595000Y-96818072D01*
X126719482Y-96805812D01*
X126839180Y-96769502D01*
X126949494Y-96710537D01*
X127046185Y-96631185D01*
X127125537Y-96534494D01*
X127184502Y-96424180D01*
X127220812Y-96304482D01*
X127233072Y-96180000D01*
X127230000Y-95965750D01*
X127071250Y-95807000D01*
X125822000Y-95807000D01*
X125568000Y-95807000D01*
X124318750Y-95807000D01*
X124160000Y-95965750D01*
X124156928Y-96180000D01*
X123153072Y-96180000D01*
X123150000Y-95965750D01*
X122991250Y-95807000D01*
X121642000Y-95807000D01*
X121642000Y-95827000D01*
X121388000Y-95827000D01*
X121388000Y-95807000D01*
X120038750Y-95807000D01*
X119880000Y-95965750D01*
X119876928Y-96180000D01*
X119889188Y-96304482D01*
X119925498Y-96424180D01*
X119984463Y-96534494D01*
X120063815Y-96631185D01*
X120160506Y-96710537D01*
X120270820Y-96769502D01*
X120390518Y-96805812D01*
X120515000Y-96818072D01*
X121049576Y-96815773D01*
X121011649Y-96992523D01*
X121008587Y-97196377D01*
X121045353Y-97396912D01*
X121106226Y-97550354D01*
X119127000Y-97550354D01*
X119127000Y-97496879D01*
X119086764Y-97294601D01*
X119007839Y-97104060D01*
X118893258Y-96932576D01*
X118747424Y-96786742D01*
X118575940Y-96672161D01*
X118385399Y-96593236D01*
X118183121Y-96553000D01*
X117976879Y-96553000D01*
X117774601Y-96593236D01*
X117584060Y-96672161D01*
X117412576Y-96786742D01*
X117266742Y-96932576D01*
X117152161Y-97104060D01*
X117073236Y-97294601D01*
X117033000Y-97496879D01*
X117033000Y-97579046D01*
X116989660Y-97592193D01*
X116894633Y-97642986D01*
X116811342Y-97711342D01*
X116797000Y-97728818D01*
X116797000Y-97716729D01*
X116760607Y-97533770D01*
X116689220Y-97361427D01*
X116585583Y-97206323D01*
X116453677Y-97074417D01*
X116298573Y-96970780D01*
X116126230Y-96899393D01*
X115943271Y-96863000D01*
X115756729Y-96863000D01*
X115573770Y-96899393D01*
X115401427Y-96970780D01*
X115246323Y-97074417D01*
X115114417Y-97206323D01*
X115010780Y-97361427D01*
X114939393Y-97533770D01*
X114903000Y-97716729D01*
X114903000Y-97806649D01*
X114738166Y-97971483D01*
X114712526Y-97992525D01*
X114691485Y-98018164D01*
X114628550Y-98094851D01*
X114566150Y-98211593D01*
X114527724Y-98338265D01*
X114514749Y-98470000D01*
X114518001Y-98503017D01*
X114518001Y-98992739D01*
X114454417Y-99056323D01*
X114350780Y-99211427D01*
X114279393Y-99383770D01*
X114243000Y-99566729D01*
X112507000Y-99566729D01*
X112507000Y-96776514D01*
X112511581Y-96729999D01*
X112507000Y-96683484D01*
X112507000Y-96683477D01*
X112493298Y-96544356D01*
X112490307Y-96534494D01*
X112439147Y-96365845D01*
X112395971Y-96285068D01*
X112351212Y-96201329D01*
X112232870Y-96057130D01*
X112196732Y-96027472D01*
X111349260Y-95180000D01*
X119876928Y-95180000D01*
X119880000Y-95394250D01*
X120038750Y-95553000D01*
X121388000Y-95553000D01*
X121388000Y-94703750D01*
X121642000Y-94703750D01*
X121642000Y-95553000D01*
X122991250Y-95553000D01*
X123150000Y-95394250D01*
X123153072Y-95180000D01*
X124156928Y-95180000D01*
X124160000Y-95394250D01*
X124318750Y-95553000D01*
X125568000Y-95553000D01*
X125568000Y-94703750D01*
X125822000Y-94703750D01*
X125822000Y-95553000D01*
X127071250Y-95553000D01*
X127230000Y-95394250D01*
X127233072Y-95180000D01*
X127220812Y-95055518D01*
X127184502Y-94935820D01*
X127125537Y-94825506D01*
X127046185Y-94728815D01*
X126949494Y-94649463D01*
X126839180Y-94590498D01*
X126719482Y-94554188D01*
X126595000Y-94541928D01*
X125980750Y-94545000D01*
X125822000Y-94703750D01*
X125568000Y-94703750D01*
X125409250Y-94545000D01*
X124795000Y-94541928D01*
X124670518Y-94554188D01*
X124550820Y-94590498D01*
X124440506Y-94649463D01*
X124343815Y-94728815D01*
X124264463Y-94825506D01*
X124205498Y-94935820D01*
X124169188Y-95055518D01*
X124156928Y-95180000D01*
X123153072Y-95180000D01*
X123140812Y-95055518D01*
X123104502Y-94935820D01*
X123045537Y-94825506D01*
X122966185Y-94728815D01*
X122869494Y-94649463D01*
X122759180Y-94590498D01*
X122639482Y-94554188D01*
X122515000Y-94541928D01*
X121800750Y-94545000D01*
X121642000Y-94703750D01*
X121388000Y-94703750D01*
X121229250Y-94545000D01*
X120515000Y-94541928D01*
X120390518Y-94554188D01*
X120270820Y-94590498D01*
X120160506Y-94649463D01*
X120063815Y-94728815D01*
X119984463Y-94825506D01*
X119925498Y-94935820D01*
X119889188Y-95055518D01*
X119876928Y-95180000D01*
X111349260Y-95180000D01*
X110627532Y-94458273D01*
X110597870Y-94422130D01*
X110453671Y-94303788D01*
X110289155Y-94215853D01*
X110110644Y-94161702D01*
X109971523Y-94148000D01*
X109971515Y-94148000D01*
X109925000Y-94143419D01*
X109878485Y-94148000D01*
X101614681Y-94148000D01*
X101470399Y-94088236D01*
X101268121Y-94048000D01*
X101061879Y-94048000D01*
X100859601Y-94088236D01*
X100669060Y-94167161D01*
X100497576Y-94281742D01*
X100351742Y-94427576D01*
X100237161Y-94599060D01*
X100158236Y-94789601D01*
X100118000Y-94991879D01*
X100118000Y-95198121D01*
X100158236Y-95400399D01*
X100200146Y-95501579D01*
X100086230Y-95454393D01*
X99903271Y-95418000D01*
X99716729Y-95418000D01*
X99533770Y-95454393D01*
X99361427Y-95525780D01*
X99206323Y-95629417D01*
X99074417Y-95761323D01*
X98970780Y-95916427D01*
X98899393Y-96088770D01*
X98863000Y-96271729D01*
X98863000Y-96358820D01*
X98158821Y-97063000D01*
X98086729Y-97063000D01*
X97903770Y-97099393D01*
X97731427Y-97170780D01*
X97576323Y-97274417D01*
X97444417Y-97406323D01*
X97340780Y-97561427D01*
X97269393Y-97733770D01*
X97233000Y-97916729D01*
X97233000Y-98103271D01*
X97269393Y-98286230D01*
X97340780Y-98458573D01*
X97444417Y-98613677D01*
X97576323Y-98745583D01*
X97731427Y-98849220D01*
X97903770Y-98920607D01*
X98086729Y-98957000D01*
X98273271Y-98957000D01*
X98456230Y-98920607D01*
X98628573Y-98849220D01*
X98783677Y-98745583D01*
X98915583Y-98613677D01*
X99019220Y-98458573D01*
X99090607Y-98286230D01*
X99127000Y-98103271D01*
X99127000Y-98001179D01*
X99816180Y-97312000D01*
X99903271Y-97312000D01*
X100086230Y-97275607D01*
X100258573Y-97204220D01*
X100368000Y-97131103D01*
X100368001Y-103205839D01*
X100368000Y-103205849D01*
X100368000Y-103494872D01*
X99199872Y-104663000D01*
X93586241Y-104663000D01*
X93709177Y-104625708D01*
X93826266Y-104563122D01*
X93928896Y-104478896D01*
X93950007Y-104453172D01*
X94943177Y-103460003D01*
X94968896Y-103438896D01*
X95026410Y-103368815D01*
X95053122Y-103336267D01*
X95115708Y-103219177D01*
X95126075Y-103185000D01*
X95154248Y-103092127D01*
X95164000Y-102993110D01*
X95164000Y-102993109D01*
X95167261Y-102960001D01*
X95164000Y-102926893D01*
X95164000Y-90995260D01*
X95225583Y-90933677D01*
X95329220Y-90778573D01*
X95400607Y-90606230D01*
X95437000Y-90423271D01*
X95437000Y-90236729D01*
X95400607Y-90053770D01*
X95329220Y-89881427D01*
X95225583Y-89726323D01*
X95093677Y-89594417D01*
X94938573Y-89490780D01*
X94766230Y-89419393D01*
X94583271Y-89383000D01*
X94396729Y-89383000D01*
X94213770Y-89419393D01*
X94041427Y-89490780D01*
X93886323Y-89594417D01*
X93754417Y-89726323D01*
X93650780Y-89881427D01*
X93579393Y-90053770D01*
X93543000Y-90236729D01*
X93543000Y-90423271D01*
X93579393Y-90606230D01*
X93650780Y-90778573D01*
X93754417Y-90933677D01*
X93816000Y-90995260D01*
X93816001Y-91656881D01*
X93816000Y-91656891D01*
X93816001Y-102680819D01*
X93170821Y-103326000D01*
X91305260Y-103326000D01*
X91243677Y-103264417D01*
X91088573Y-103160780D01*
X90916230Y-103089393D01*
X90733271Y-103053000D01*
X90546729Y-103053000D01*
X90363770Y-103089393D01*
X90191427Y-103160780D01*
X90036323Y-103264417D01*
X89904417Y-103396323D01*
X89800780Y-103551427D01*
X89729393Y-103723770D01*
X89693000Y-103906729D01*
X89693000Y-104093271D01*
X89729393Y-104276230D01*
X89800780Y-104448573D01*
X89904417Y-104603677D01*
X89963740Y-104663000D01*
X64799518Y-104663000D01*
X64810607Y-104636230D01*
X64847000Y-104453271D01*
X64847000Y-104266729D01*
X64810607Y-104083770D01*
X64739220Y-103911427D01*
X64635583Y-103756323D01*
X64574000Y-103694740D01*
X64574000Y-103339179D01*
X65239180Y-102674000D01*
X84244740Y-102674000D01*
X84306323Y-102735583D01*
X84461427Y-102839220D01*
X84633770Y-102910607D01*
X84816729Y-102947000D01*
X85003271Y-102947000D01*
X85186230Y-102910607D01*
X85358573Y-102839220D01*
X85513677Y-102735583D01*
X85645583Y-102603677D01*
X85749220Y-102448573D01*
X85820607Y-102276230D01*
X85857000Y-102093271D01*
X85857000Y-101906729D01*
X85820607Y-101723770D01*
X85749220Y-101551427D01*
X85688131Y-101460000D01*
X85749220Y-101368573D01*
X85820607Y-101196230D01*
X85857000Y-101013271D01*
X85857000Y-100826729D01*
X85820607Y-100643770D01*
X85749220Y-100471427D01*
X85645583Y-100316323D01*
X85513677Y-100184417D01*
X85358573Y-100080780D01*
X85186230Y-100009393D01*
X85003271Y-99973000D01*
X84816729Y-99973000D01*
X84633770Y-100009393D01*
X84461427Y-100080780D01*
X84306323Y-100184417D01*
X84244740Y-100246000D01*
X64233107Y-100246000D01*
X64199999Y-100242739D01*
X64166891Y-100246000D01*
X64166890Y-100246000D01*
X64067873Y-100255752D01*
X63940823Y-100294292D01*
X63823734Y-100356878D01*
X63721104Y-100441104D01*
X63699997Y-100466823D01*
X62176824Y-101989997D01*
X62151104Y-102011105D01*
X62129998Y-102036823D01*
X62066878Y-102113734D01*
X62053296Y-102139144D01*
X62004292Y-102230824D01*
X61965752Y-102357874D01*
X61956819Y-102448573D01*
X61952739Y-102490000D01*
X61956000Y-102523108D01*
X61956001Y-103694739D01*
X61894417Y-103756323D01*
X61790780Y-103911427D01*
X61719393Y-104083770D01*
X61683000Y-104266729D01*
X61683000Y-104453271D01*
X61719393Y-104636230D01*
X61730482Y-104663000D01*
X52960128Y-104663000D01*
X44439083Y-96141955D01*
X46903000Y-96141955D01*
X46903000Y-96358045D01*
X46945157Y-96569983D01*
X47027851Y-96769624D01*
X47147904Y-96949297D01*
X47300703Y-97102096D01*
X47480376Y-97222149D01*
X47680017Y-97304843D01*
X47891955Y-97347000D01*
X48108045Y-97347000D01*
X48319983Y-97304843D01*
X48519624Y-97222149D01*
X48699297Y-97102096D01*
X48852096Y-96949297D01*
X48972149Y-96769624D01*
X49054843Y-96569983D01*
X49097000Y-96358045D01*
X49097000Y-96141955D01*
X49054843Y-95930017D01*
X48972149Y-95730376D01*
X48852096Y-95550703D01*
X48699297Y-95397904D01*
X48519624Y-95277851D01*
X48319983Y-95195157D01*
X48108045Y-95153000D01*
X47891955Y-95153000D01*
X47680017Y-95195157D01*
X47480376Y-95277851D01*
X47300703Y-95397904D01*
X47147904Y-95550703D01*
X47027851Y-95730376D01*
X46945157Y-95930017D01*
X46903000Y-96141955D01*
X44439083Y-96141955D01*
X43761251Y-95464123D01*
X43736291Y-95433709D01*
X43614932Y-95334113D01*
X43476474Y-95260106D01*
X43326239Y-95214532D01*
X43209151Y-95203000D01*
X43209148Y-95203000D01*
X43170000Y-95199144D01*
X43130852Y-95203000D01*
X35931170Y-95203000D01*
X35778980Y-95050810D01*
X35578834Y-94917077D01*
X35356444Y-94824961D01*
X35120357Y-94778000D01*
X34879643Y-94778000D01*
X34643556Y-94824961D01*
X34421166Y-94917077D01*
X34221020Y-95050810D01*
X34050810Y-95221020D01*
X33917077Y-95421166D01*
X33824961Y-95643556D01*
X33778000Y-95879643D01*
X33778000Y-96120357D01*
X33824961Y-96356444D01*
X33917077Y-96578834D01*
X34050810Y-96778980D01*
X34220407Y-96948577D01*
X34210463Y-96954656D01*
X34021697Y-97128773D01*
X33870527Y-97336371D01*
X33762762Y-97569472D01*
X33732090Y-97670600D01*
X32597000Y-97670600D01*
X32597000Y-91492123D01*
X32804125Y-91802108D01*
X33197892Y-92195875D01*
X33660913Y-92505255D01*
X34175394Y-92718360D01*
X34721565Y-92827000D01*
X35278435Y-92827000D01*
X35824606Y-92718360D01*
X36339087Y-92505255D01*
X36802108Y-92195875D01*
X37195875Y-91802108D01*
X37505255Y-91339087D01*
X37718360Y-90824606D01*
X37827000Y-90278435D01*
X37827000Y-89721565D01*
X37718360Y-89175394D01*
X37505255Y-88660913D01*
X37483717Y-88628679D01*
X59815690Y-88628679D01*
X59815690Y-88834921D01*
X59855926Y-89037199D01*
X59934851Y-89227740D01*
X60049432Y-89399224D01*
X60195266Y-89545058D01*
X60366750Y-89659639D01*
X60557291Y-89738564D01*
X60759569Y-89778800D01*
X60965811Y-89778800D01*
X61168089Y-89738564D01*
X61358630Y-89659639D01*
X61530114Y-89545058D01*
X61675948Y-89399224D01*
X61790529Y-89227740D01*
X61869454Y-89037199D01*
X61909690Y-88834921D01*
X61909690Y-88628679D01*
X62115710Y-88628679D01*
X62115710Y-88834921D01*
X62155946Y-89037199D01*
X62234871Y-89227740D01*
X62349452Y-89399224D01*
X62495286Y-89545058D01*
X62666770Y-89659639D01*
X62857311Y-89738564D01*
X63059589Y-89778800D01*
X63265831Y-89778800D01*
X63468109Y-89738564D01*
X63658650Y-89659639D01*
X63830134Y-89545058D01*
X63975968Y-89399224D01*
X64090549Y-89227740D01*
X64169474Y-89037199D01*
X64209710Y-88834921D01*
X64209710Y-88628679D01*
X64169474Y-88426401D01*
X64090549Y-88235860D01*
X63975968Y-88064376D01*
X63830134Y-87918542D01*
X63658650Y-87803961D01*
X63468109Y-87725036D01*
X63265831Y-87684800D01*
X63059589Y-87684800D01*
X62857311Y-87725036D01*
X62666770Y-87803961D01*
X62495286Y-87918542D01*
X62349452Y-88064376D01*
X62234871Y-88235860D01*
X62155946Y-88426401D01*
X62115710Y-88628679D01*
X61909690Y-88628679D01*
X61869454Y-88426401D01*
X61790529Y-88235860D01*
X61675948Y-88064376D01*
X61530114Y-87918542D01*
X61358630Y-87803961D01*
X61168089Y-87725036D01*
X60965811Y-87684800D01*
X60759569Y-87684800D01*
X60557291Y-87725036D01*
X60366750Y-87803961D01*
X60195266Y-87918542D01*
X60049432Y-88064376D01*
X59934851Y-88235860D01*
X59855926Y-88426401D01*
X59815690Y-88628679D01*
X37483717Y-88628679D01*
X37195875Y-88197892D01*
X36802108Y-87804125D01*
X36492123Y-87597000D01*
X69873000Y-87597000D01*
X69873000Y-95290000D01*
G37*
X69873000Y-95290000D02*
X69875440Y-95314776D01*
X69882667Y-95338601D01*
X69894403Y-95360557D01*
X69910197Y-95379803D01*
X69929443Y-95395597D01*
X69951399Y-95407333D01*
X69975224Y-95414560D01*
X70000000Y-95417000D01*
X90000000Y-95417000D01*
X90024776Y-95414560D01*
X90048601Y-95407333D01*
X90070557Y-95395597D01*
X90089803Y-95379803D01*
X90105597Y-95360557D01*
X90117333Y-95338601D01*
X90124560Y-95314776D01*
X90127000Y-95290000D01*
X90127000Y-88628679D01*
X95815690Y-88628679D01*
X95815690Y-88834921D01*
X95855926Y-89037199D01*
X95934851Y-89227740D01*
X96049432Y-89399224D01*
X96195266Y-89545058D01*
X96366750Y-89659639D01*
X96557291Y-89738564D01*
X96759569Y-89778800D01*
X96965811Y-89778800D01*
X97168089Y-89738564D01*
X97358630Y-89659639D01*
X97530114Y-89545058D01*
X97675948Y-89399224D01*
X97790529Y-89227740D01*
X97869454Y-89037199D01*
X97909690Y-88834921D01*
X97909690Y-88628679D01*
X98115710Y-88628679D01*
X98115710Y-88834921D01*
X98155946Y-89037199D01*
X98234871Y-89227740D01*
X98349452Y-89399224D01*
X98495286Y-89545058D01*
X98666770Y-89659639D01*
X98857311Y-89738564D01*
X99059589Y-89778800D01*
X99265831Y-89778800D01*
X99468109Y-89738564D01*
X99658650Y-89659639D01*
X99830134Y-89545058D01*
X99975968Y-89399224D01*
X100090549Y-89227740D01*
X100169474Y-89037199D01*
X100209710Y-88834921D01*
X100209710Y-88628679D01*
X100169474Y-88426401D01*
X100090549Y-88235860D01*
X99975968Y-88064376D01*
X99830134Y-87918542D01*
X99658650Y-87803961D01*
X99468109Y-87725036D01*
X99265831Y-87684800D01*
X99059589Y-87684800D01*
X98857311Y-87725036D01*
X98666770Y-87803961D01*
X98495286Y-87918542D01*
X98349452Y-88064376D01*
X98234871Y-88235860D01*
X98155946Y-88426401D01*
X98115710Y-88628679D01*
X97909690Y-88628679D01*
X97869454Y-88426401D01*
X97790529Y-88235860D01*
X97675948Y-88064376D01*
X97530114Y-87918542D01*
X97358630Y-87803961D01*
X97168089Y-87725036D01*
X96965811Y-87684800D01*
X96759569Y-87684800D01*
X96557291Y-87725036D01*
X96366750Y-87803961D01*
X96195266Y-87918542D01*
X96049432Y-88064376D01*
X95934851Y-88235860D01*
X95855926Y-88426401D01*
X95815690Y-88628679D01*
X90127000Y-88628679D01*
X90127000Y-87597000D01*
X123507877Y-87597000D01*
X123197892Y-87804125D01*
X122804125Y-88197892D01*
X122494745Y-88660913D01*
X122281640Y-89175394D01*
X122173000Y-89721565D01*
X122173000Y-90278435D01*
X122281640Y-90824606D01*
X122494745Y-91339087D01*
X122804125Y-91802108D01*
X123197892Y-92195875D01*
X123660913Y-92505255D01*
X124175394Y-92718360D01*
X124721565Y-92827000D01*
X125278435Y-92827000D01*
X125824606Y-92718360D01*
X126339087Y-92505255D01*
X126802108Y-92195875D01*
X127195875Y-91802108D01*
X127403000Y-91492123D01*
X127403001Y-108507879D01*
X127195875Y-108197892D01*
X126802108Y-107804125D01*
X126339087Y-107494745D01*
X125824606Y-107281640D01*
X125278435Y-107173000D01*
X124721565Y-107173000D01*
X124175394Y-107281640D01*
X123660913Y-107494745D01*
X123197892Y-107804125D01*
X122804125Y-108197892D01*
X122494745Y-108660913D01*
X122281640Y-109175394D01*
X122173000Y-109721565D01*
X122173000Y-110278435D01*
X122281640Y-110824606D01*
X122494745Y-111339087D01*
X122804125Y-111802108D01*
X123197892Y-112195875D01*
X123507877Y-112403000D01*
X36492123Y-112403000D01*
X36802108Y-112195875D01*
X37195875Y-111802108D01*
X37505255Y-111339087D01*
X37718360Y-110824606D01*
X37827000Y-110278435D01*
X37827000Y-109721565D01*
X37718360Y-109175394D01*
X37505255Y-108660913D01*
X37195875Y-108197892D01*
X36802108Y-107804125D01*
X36339087Y-107494745D01*
X35824606Y-107281640D01*
X35278435Y-107173000D01*
X34721565Y-107173000D01*
X34175394Y-107281640D01*
X33660913Y-107494745D01*
X33197892Y-107804125D01*
X32804125Y-108197892D01*
X32597000Y-108507877D01*
X32597000Y-97670600D01*
X33732090Y-97670600D01*
X33855776Y-97873000D01*
X34873000Y-97873000D01*
X34873000Y-97853000D01*
X35127000Y-97853000D01*
X35127000Y-97873000D01*
X36144224Y-97873000D01*
X36267910Y-97670600D01*
X36237238Y-97569472D01*
X36129473Y-97336371D01*
X35978303Y-97128773D01*
X35789537Y-96954656D01*
X35779593Y-96948577D01*
X35931170Y-96797000D01*
X42839872Y-96797000D01*
X52038749Y-105995877D01*
X52063709Y-106026291D01*
X52130105Y-106080780D01*
X52185067Y-106125887D01*
X52242945Y-106156823D01*
X52323526Y-106199894D01*
X52473761Y-106245468D01*
X52479163Y-106246000D01*
X47859180Y-106246000D01*
X45240361Y-103627181D01*
X46753000Y-103627181D01*
X46753000Y-103872819D01*
X46800921Y-104113737D01*
X46894923Y-104340676D01*
X47031392Y-104544916D01*
X47205084Y-104718608D01*
X47409324Y-104855077D01*
X47636263Y-104949079D01*
X47877181Y-104997000D01*
X48122819Y-104997000D01*
X48363737Y-104949079D01*
X48590676Y-104855077D01*
X48794916Y-104718608D01*
X48968608Y-104544916D01*
X49105077Y-104340676D01*
X49199079Y-104113737D01*
X49247000Y-103872819D01*
X49247000Y-103627181D01*
X49199079Y-103386263D01*
X49105077Y-103159324D01*
X48968608Y-102955084D01*
X48794916Y-102781392D01*
X48590676Y-102644923D01*
X48363737Y-102550921D01*
X48122819Y-102503000D01*
X47877181Y-102503000D01*
X47636263Y-102550921D01*
X47409324Y-102644923D01*
X47205084Y-102781392D01*
X47031392Y-102955084D01*
X46894923Y-103159324D01*
X46800921Y-103386263D01*
X46753000Y-103627181D01*
X45240361Y-103627181D01*
X41160007Y-99546828D01*
X41138896Y-99521104D01*
X41036266Y-99436878D01*
X40919177Y-99374292D01*
X40792127Y-99335752D01*
X40693110Y-99326000D01*
X40693108Y-99326000D01*
X40660000Y-99322739D01*
X40626892Y-99326000D01*
X36019335Y-99326000D01*
X35949190Y-99221020D01*
X35779593Y-99051423D01*
X35789537Y-99045344D01*
X35978303Y-98871227D01*
X36129473Y-98663629D01*
X36237238Y-98430528D01*
X36267910Y-98329400D01*
X36144224Y-98127000D01*
X35127000Y-98127000D01*
X35127000Y-98147000D01*
X34873000Y-98147000D01*
X34873000Y-98127000D01*
X33855776Y-98127000D01*
X33732090Y-98329400D01*
X33762762Y-98430528D01*
X33870527Y-98663629D01*
X34021697Y-98871227D01*
X34210463Y-99045344D01*
X34220407Y-99051423D01*
X34050810Y-99221020D01*
X33917077Y-99421166D01*
X33824961Y-99643556D01*
X33778000Y-99879643D01*
X33778000Y-100120357D01*
X33824961Y-100356444D01*
X33917077Y-100578834D01*
X34050810Y-100778980D01*
X34221020Y-100949190D01*
X34297063Y-101000000D01*
X34221020Y-101050810D01*
X34050810Y-101221020D01*
X33917077Y-101421166D01*
X33824961Y-101643556D01*
X33778000Y-101879643D01*
X33778000Y-102120357D01*
X33824961Y-102356444D01*
X33917077Y-102578834D01*
X34050810Y-102778980D01*
X34221020Y-102949190D01*
X34297063Y-103000000D01*
X34221020Y-103050810D01*
X34050810Y-103221020D01*
X33917077Y-103421166D01*
X33824961Y-103643556D01*
X33778000Y-103879643D01*
X33778000Y-104120357D01*
X33824961Y-104356444D01*
X33917077Y-104578834D01*
X34050810Y-104778980D01*
X34221020Y-104949190D01*
X34421166Y-105082923D01*
X34643556Y-105175039D01*
X34879643Y-105222000D01*
X35120357Y-105222000D01*
X35356444Y-105175039D01*
X35578834Y-105082923D01*
X35778980Y-104949190D01*
X35949190Y-104778980D01*
X36019335Y-104674000D01*
X42170821Y-104674000D01*
X46539997Y-109043177D01*
X46561104Y-109068896D01*
X46663734Y-109153122D01*
X46780823Y-109215708D01*
X46907873Y-109254248D01*
X47006890Y-109264000D01*
X47006891Y-109264000D01*
X47039999Y-109267261D01*
X47073107Y-109264000D01*
X67206164Y-109264000D01*
X67196366Y-109275939D01*
X67166188Y-109332398D01*
X67130613Y-109385640D01*
X67106108Y-109444800D01*
X67075931Y-109501258D01*
X67057348Y-109562519D01*
X67032843Y-109621679D01*
X67020351Y-109684481D01*
X67001767Y-109745744D01*
X66995492Y-109809456D01*
X66983000Y-109872257D01*
X66983000Y-109936289D01*
X66976725Y-110000000D01*
X66983000Y-110063711D01*
X66983000Y-110127743D01*
X66995492Y-110190544D01*
X67001767Y-110254256D01*
X67020351Y-110315519D01*
X67032843Y-110378321D01*
X67057348Y-110437481D01*
X67075931Y-110498742D01*
X67106108Y-110555200D01*
X67130613Y-110614360D01*
X67166188Y-110667602D01*
X67196366Y-110724061D01*
X67236979Y-110773548D01*
X67272554Y-110826790D01*
X67317833Y-110872069D01*
X67358445Y-110921555D01*
X67407931Y-110962167D01*
X67453210Y-111007446D01*
X67506452Y-111043021D01*
X67555939Y-111083634D01*
X67612398Y-111113812D01*
X67665640Y-111149387D01*
X67724800Y-111173892D01*
X67781258Y-111204069D01*
X67842519Y-111222652D01*
X67901679Y-111247157D01*
X67964481Y-111259649D01*
X68025744Y-111278233D01*
X68089455Y-111284508D01*
X68152257Y-111297000D01*
X90471538Y-111297000D01*
X90567221Y-111360933D01*
X90848757Y-111477549D01*
X91147634Y-111537000D01*
X91452366Y-111537000D01*
X91751243Y-111477549D01*
X92032779Y-111360933D01*
X92286155Y-111191633D01*
X92501633Y-110976155D01*
X92670933Y-110722779D01*
X92787549Y-110441243D01*
X92815644Y-110300000D01*
X106211928Y-110300000D01*
X106224188Y-110424482D01*
X106260498Y-110544180D01*
X106319463Y-110654494D01*
X106398815Y-110751185D01*
X106495506Y-110830537D01*
X106605820Y-110889502D01*
X106725518Y-110925812D01*
X106850000Y-110938072D01*
X108314250Y-110935000D01*
X108473000Y-110776250D01*
X108473000Y-106427000D01*
X108727000Y-106427000D01*
X108727000Y-110776250D01*
X108885750Y-110935000D01*
X110350000Y-110938072D01*
X110474482Y-110925812D01*
X110594180Y-110889502D01*
X110704494Y-110830537D01*
X110801185Y-110751185D01*
X110880537Y-110654494D01*
X110939502Y-110544180D01*
X110975812Y-110424482D01*
X110988072Y-110300000D01*
X112261928Y-110300000D01*
X112274188Y-110424482D01*
X112310498Y-110544180D01*
X112369463Y-110654494D01*
X112448815Y-110751185D01*
X112545506Y-110830537D01*
X112655820Y-110889502D01*
X112775518Y-110925812D01*
X112900000Y-110938072D01*
X114364250Y-110935000D01*
X114523000Y-110776250D01*
X114523000Y-107327000D01*
X114777000Y-107327000D01*
X114777000Y-110776250D01*
X114935750Y-110935000D01*
X116400000Y-110938072D01*
X116524482Y-110925812D01*
X116644180Y-110889502D01*
X116754494Y-110830537D01*
X116851185Y-110751185D01*
X116930537Y-110654494D01*
X116989502Y-110544180D01*
X117025812Y-110424482D01*
X117038072Y-110300000D01*
X117035000Y-107485750D01*
X116876250Y-107327000D01*
X114777000Y-107327000D01*
X114523000Y-107327000D01*
X112423750Y-107327000D01*
X112265000Y-107485750D01*
X112261928Y-110300000D01*
X110988072Y-110300000D01*
X110985000Y-106585750D01*
X110826250Y-106427000D01*
X108727000Y-106427000D01*
X108473000Y-106427000D01*
X106373750Y-106427000D01*
X106215000Y-106585750D01*
X106211928Y-110300000D01*
X92815644Y-110300000D01*
X92847000Y-110142366D01*
X92847000Y-109837634D01*
X92787549Y-109538757D01*
X92670933Y-109257221D01*
X92501633Y-109003845D01*
X92286155Y-108788367D01*
X92032779Y-108619067D01*
X91751243Y-108502451D01*
X91452366Y-108443000D01*
X91147634Y-108443000D01*
X90848757Y-108502451D01*
X90567221Y-108619067D01*
X90441606Y-108703000D01*
X68280179Y-108703000D01*
X68866180Y-108117000D01*
X68953271Y-108117000D01*
X69136230Y-108080607D01*
X69308573Y-108009220D01*
X69463677Y-107905583D01*
X69595583Y-107773677D01*
X69699220Y-107618573D01*
X69770607Y-107446230D01*
X69807000Y-107263271D01*
X69807000Y-107076729D01*
X69784577Y-106964000D01*
X83421606Y-106964000D01*
X83460780Y-107058573D01*
X83564417Y-107213677D01*
X83696323Y-107345583D01*
X83851427Y-107449220D01*
X84023770Y-107520607D01*
X84206729Y-107557000D01*
X84393271Y-107557000D01*
X84576230Y-107520607D01*
X84748573Y-107449220D01*
X84903677Y-107345583D01*
X85035583Y-107213677D01*
X85139220Y-107058573D01*
X85210607Y-106886230D01*
X85247000Y-106703271D01*
X85247000Y-106516729D01*
X85210607Y-106333770D01*
X85178808Y-106257000D01*
X99490852Y-106257000D01*
X99530000Y-106260856D01*
X99569148Y-106257000D01*
X99569151Y-106257000D01*
X99686239Y-106245468D01*
X99836474Y-106199894D01*
X99974932Y-106125887D01*
X100096291Y-106026291D01*
X100121251Y-105995877D01*
X101700879Y-104416249D01*
X101731291Y-104391291D01*
X101809787Y-104295643D01*
X101830887Y-104269933D01*
X101891505Y-104156523D01*
X101904894Y-104131474D01*
X101950468Y-103981239D01*
X101962000Y-103864151D01*
X101962000Y-103864149D01*
X101965856Y-103825001D01*
X101962000Y-103785852D01*
X101962000Y-102300000D01*
X106211928Y-102300000D01*
X106215000Y-106014250D01*
X106373750Y-106173000D01*
X108473000Y-106173000D01*
X108473000Y-101823750D01*
X108314250Y-101665000D01*
X106850000Y-101661928D01*
X106725518Y-101674188D01*
X106605820Y-101710498D01*
X106495506Y-101769463D01*
X106398815Y-101848815D01*
X106319463Y-101945506D01*
X106260498Y-102055820D01*
X106224188Y-102175518D01*
X106211928Y-102300000D01*
X101962000Y-102300000D01*
X101962000Y-96305128D01*
X102225129Y-96042000D01*
X109532741Y-96042000D01*
X110613001Y-97122261D01*
X110613000Y-101720558D01*
X110594180Y-101710498D01*
X110474482Y-101674188D01*
X110350000Y-101661928D01*
X108885750Y-101665000D01*
X108727000Y-101823750D01*
X108727000Y-106173000D01*
X110826250Y-106173000D01*
X110985000Y-106014250D01*
X110985851Y-104985582D01*
X111064060Y-105037839D01*
X111254601Y-105116764D01*
X111456879Y-105157000D01*
X111663121Y-105157000D01*
X111865399Y-105116764D01*
X112055940Y-105037839D01*
X112227424Y-104923258D01*
X112262788Y-104887894D01*
X112265000Y-106914250D01*
X112423750Y-107073000D01*
X114523000Y-107073000D01*
X114523000Y-103623750D01*
X114777000Y-103623750D01*
X114777000Y-107073000D01*
X116876250Y-107073000D01*
X117035000Y-106914250D01*
X117037286Y-104820000D01*
X119876928Y-104820000D01*
X119889188Y-104944482D01*
X119925498Y-105064180D01*
X119984463Y-105174494D01*
X120063815Y-105271185D01*
X120160506Y-105350537D01*
X120270820Y-105409502D01*
X120390518Y-105445812D01*
X120515000Y-105458072D01*
X121229250Y-105455000D01*
X121388000Y-105296250D01*
X121388000Y-104447000D01*
X121642000Y-104447000D01*
X121642000Y-105296250D01*
X121800750Y-105455000D01*
X122515000Y-105458072D01*
X122639482Y-105445812D01*
X122759180Y-105409502D01*
X122869494Y-105350537D01*
X122966185Y-105271185D01*
X123045537Y-105174494D01*
X123104502Y-105064180D01*
X123140812Y-104944482D01*
X123153072Y-104820000D01*
X124156928Y-104820000D01*
X124169188Y-104944482D01*
X124205498Y-105064180D01*
X124264463Y-105174494D01*
X124343815Y-105271185D01*
X124440506Y-105350537D01*
X124550820Y-105409502D01*
X124670518Y-105445812D01*
X124795000Y-105458072D01*
X125409250Y-105455000D01*
X125568000Y-105296250D01*
X125568000Y-104447000D01*
X125822000Y-104447000D01*
X125822000Y-105296250D01*
X125980750Y-105455000D01*
X126595000Y-105458072D01*
X126719482Y-105445812D01*
X126839180Y-105409502D01*
X126949494Y-105350537D01*
X127046185Y-105271185D01*
X127125537Y-105174494D01*
X127184502Y-105064180D01*
X127220812Y-104944482D01*
X127233072Y-104820000D01*
X127230000Y-104605750D01*
X127071250Y-104447000D01*
X125822000Y-104447000D01*
X125568000Y-104447000D01*
X124318750Y-104447000D01*
X124160000Y-104605750D01*
X124156928Y-104820000D01*
X123153072Y-104820000D01*
X123150000Y-104605750D01*
X122991250Y-104447000D01*
X121642000Y-104447000D01*
X121388000Y-104447000D01*
X120038750Y-104447000D01*
X119880000Y-104605750D01*
X119876928Y-104820000D01*
X117037286Y-104820000D01*
X117038072Y-104100000D01*
X117025812Y-103975518D01*
X116989502Y-103855820D01*
X116930537Y-103745506D01*
X116851185Y-103648815D01*
X116754494Y-103569463D01*
X116644180Y-103510498D01*
X116524482Y-103474188D01*
X116400000Y-103461928D01*
X114935750Y-103465000D01*
X114777000Y-103623750D01*
X114523000Y-103623750D01*
X114364250Y-103465000D01*
X112900000Y-103461928D01*
X112775518Y-103474188D01*
X112655820Y-103510498D01*
X112545506Y-103569463D01*
X112507000Y-103601064D01*
X112507000Y-103389681D01*
X112566764Y-103245399D01*
X112607000Y-103043121D01*
X112607000Y-102836879D01*
X112566764Y-102634601D01*
X112507000Y-102490319D01*
X112507000Y-99566729D01*
X114243000Y-99566729D01*
X114243000Y-99753271D01*
X114279393Y-99936230D01*
X114350780Y-100108573D01*
X114454417Y-100263677D01*
X114586323Y-100395583D01*
X114741427Y-100499220D01*
X114913770Y-100570607D01*
X115096729Y-100607000D01*
X115283271Y-100607000D01*
X115466230Y-100570607D01*
X115638573Y-100499220D01*
X115793677Y-100395583D01*
X115925583Y-100263677D01*
X116029220Y-100108573D01*
X116100607Y-99936230D01*
X116137000Y-99753271D01*
X116137000Y-99566729D01*
X116100607Y-99383770D01*
X116029220Y-99211427D01*
X115925583Y-99056323D01*
X115862000Y-98992740D01*
X115862000Y-98757000D01*
X115943271Y-98757000D01*
X116126230Y-98720607D01*
X116298573Y-98649220D01*
X116453677Y-98545583D01*
X116585583Y-98413677D01*
X116650354Y-98316740D01*
X116650354Y-101900000D01*
X116660915Y-102007231D01*
X116692193Y-102110340D01*
X116742986Y-102205367D01*
X116811342Y-102288658D01*
X116894633Y-102357014D01*
X116989660Y-102407807D01*
X117023000Y-102417921D01*
X117023000Y-102503121D01*
X117063236Y-102705399D01*
X117142161Y-102895940D01*
X117256742Y-103067424D01*
X117402576Y-103213258D01*
X117574060Y-103327839D01*
X117764601Y-103406764D01*
X117966879Y-103447000D01*
X118173121Y-103447000D01*
X118375399Y-103406764D01*
X118565940Y-103327839D01*
X118737424Y-103213258D01*
X118883258Y-103067424D01*
X118997839Y-102895940D01*
X119076764Y-102705399D01*
X119105152Y-102562687D01*
X119218192Y-102449646D01*
X121107782Y-102449646D01*
X121054423Y-102573184D01*
X121011649Y-102772523D01*
X121008587Y-102976377D01*
X121045353Y-103176912D01*
X121048253Y-103184222D01*
X120515000Y-103181928D01*
X120390518Y-103194188D01*
X120270820Y-103230498D01*
X120160506Y-103289463D01*
X120063815Y-103368815D01*
X119984463Y-103465506D01*
X119925498Y-103575820D01*
X119889188Y-103695518D01*
X119876928Y-103820000D01*
X119880000Y-104034250D01*
X120038750Y-104193000D01*
X121388000Y-104193000D01*
X121388000Y-104173000D01*
X121642000Y-104173000D01*
X121642000Y-104193000D01*
X122991250Y-104193000D01*
X123150000Y-104034250D01*
X123153072Y-103820000D01*
X124156928Y-103820000D01*
X124160000Y-104034250D01*
X124318750Y-104193000D01*
X125568000Y-104193000D01*
X125568000Y-103343750D01*
X125822000Y-103343750D01*
X125822000Y-104193000D01*
X127071250Y-104193000D01*
X127230000Y-104034250D01*
X127233072Y-103820000D01*
X127220812Y-103695518D01*
X127184502Y-103575820D01*
X127125537Y-103465506D01*
X127046185Y-103368815D01*
X126949494Y-103289463D01*
X126839180Y-103230498D01*
X126719482Y-103194188D01*
X126595000Y-103181928D01*
X125980750Y-103185000D01*
X125822000Y-103343750D01*
X125568000Y-103343750D01*
X125409250Y-103185000D01*
X124795000Y-103181928D01*
X124670518Y-103194188D01*
X124550820Y-103230498D01*
X124440506Y-103289463D01*
X124343815Y-103368815D01*
X124264463Y-103465506D01*
X124205498Y-103575820D01*
X124169188Y-103695518D01*
X124156928Y-103820000D01*
X123153072Y-103820000D01*
X123140812Y-103695518D01*
X123104502Y-103575820D01*
X123045537Y-103465506D01*
X122966185Y-103368815D01*
X122965757Y-103368464D01*
X123035577Y-103206816D01*
X123078351Y-103007477D01*
X123081413Y-102803623D01*
X123044647Y-102603088D01*
X122969466Y-102413580D01*
X122954736Y-102386019D01*
X122869112Y-102376393D01*
X122905367Y-102357014D01*
X122988658Y-102288658D01*
X123057014Y-102205367D01*
X123107807Y-102110340D01*
X123139085Y-102007231D01*
X123149646Y-101900000D01*
X123149646Y-98100000D01*
X123139085Y-97992769D01*
X123107807Y-97889660D01*
X123057014Y-97794633D01*
X122988658Y-97711342D01*
X122905367Y-97642986D01*
X122869112Y-97623607D01*
X122954736Y-97613981D01*
X123035577Y-97426816D01*
X123078351Y-97227477D01*
X123081413Y-97023623D01*
X123044647Y-96823088D01*
X122969466Y-96633580D01*
X122967397Y-96629708D01*
X123045537Y-96534494D01*
X123104502Y-96424180D01*
X123140812Y-96304482D01*
X123153072Y-96180000D01*
X124156928Y-96180000D01*
X124169188Y-96304482D01*
X124205498Y-96424180D01*
X124264463Y-96534494D01*
X124343815Y-96631185D01*
X124440506Y-96710537D01*
X124550820Y-96769502D01*
X124670518Y-96805812D01*
X124795000Y-96818072D01*
X125409250Y-96815000D01*
X125568000Y-96656250D01*
X125568000Y-95807000D01*
X125822000Y-95807000D01*
X125822000Y-96656250D01*
X125980750Y-96815000D01*
X126595000Y-96818072D01*
X126719482Y-96805812D01*
X126839180Y-96769502D01*
X126949494Y-96710537D01*
X127046185Y-96631185D01*
X127125537Y-96534494D01*
X127184502Y-96424180D01*
X127220812Y-96304482D01*
X127233072Y-96180000D01*
X127230000Y-95965750D01*
X127071250Y-95807000D01*
X125822000Y-95807000D01*
X125568000Y-95807000D01*
X124318750Y-95807000D01*
X124160000Y-95965750D01*
X124156928Y-96180000D01*
X123153072Y-96180000D01*
X123150000Y-95965750D01*
X122991250Y-95807000D01*
X121642000Y-95807000D01*
X121642000Y-95827000D01*
X121388000Y-95827000D01*
X121388000Y-95807000D01*
X120038750Y-95807000D01*
X119880000Y-95965750D01*
X119876928Y-96180000D01*
X119889188Y-96304482D01*
X119925498Y-96424180D01*
X119984463Y-96534494D01*
X120063815Y-96631185D01*
X120160506Y-96710537D01*
X120270820Y-96769502D01*
X120390518Y-96805812D01*
X120515000Y-96818072D01*
X121049576Y-96815773D01*
X121011649Y-96992523D01*
X121008587Y-97196377D01*
X121045353Y-97396912D01*
X121106226Y-97550354D01*
X119127000Y-97550354D01*
X119127000Y-97496879D01*
X119086764Y-97294601D01*
X119007839Y-97104060D01*
X118893258Y-96932576D01*
X118747424Y-96786742D01*
X118575940Y-96672161D01*
X118385399Y-96593236D01*
X118183121Y-96553000D01*
X117976879Y-96553000D01*
X117774601Y-96593236D01*
X117584060Y-96672161D01*
X117412576Y-96786742D01*
X117266742Y-96932576D01*
X117152161Y-97104060D01*
X117073236Y-97294601D01*
X117033000Y-97496879D01*
X117033000Y-97579046D01*
X116989660Y-97592193D01*
X116894633Y-97642986D01*
X116811342Y-97711342D01*
X116797000Y-97728818D01*
X116797000Y-97716729D01*
X116760607Y-97533770D01*
X116689220Y-97361427D01*
X116585583Y-97206323D01*
X116453677Y-97074417D01*
X116298573Y-96970780D01*
X116126230Y-96899393D01*
X115943271Y-96863000D01*
X115756729Y-96863000D01*
X115573770Y-96899393D01*
X115401427Y-96970780D01*
X115246323Y-97074417D01*
X115114417Y-97206323D01*
X115010780Y-97361427D01*
X114939393Y-97533770D01*
X114903000Y-97716729D01*
X114903000Y-97806649D01*
X114738166Y-97971483D01*
X114712526Y-97992525D01*
X114691485Y-98018164D01*
X114628550Y-98094851D01*
X114566150Y-98211593D01*
X114527724Y-98338265D01*
X114514749Y-98470000D01*
X114518001Y-98503017D01*
X114518001Y-98992739D01*
X114454417Y-99056323D01*
X114350780Y-99211427D01*
X114279393Y-99383770D01*
X114243000Y-99566729D01*
X112507000Y-99566729D01*
X112507000Y-96776514D01*
X112511581Y-96729999D01*
X112507000Y-96683484D01*
X112507000Y-96683477D01*
X112493298Y-96544356D01*
X112490307Y-96534494D01*
X112439147Y-96365845D01*
X112395971Y-96285068D01*
X112351212Y-96201329D01*
X112232870Y-96057130D01*
X112196732Y-96027472D01*
X111349260Y-95180000D01*
X119876928Y-95180000D01*
X119880000Y-95394250D01*
X120038750Y-95553000D01*
X121388000Y-95553000D01*
X121388000Y-94703750D01*
X121642000Y-94703750D01*
X121642000Y-95553000D01*
X122991250Y-95553000D01*
X123150000Y-95394250D01*
X123153072Y-95180000D01*
X124156928Y-95180000D01*
X124160000Y-95394250D01*
X124318750Y-95553000D01*
X125568000Y-95553000D01*
X125568000Y-94703750D01*
X125822000Y-94703750D01*
X125822000Y-95553000D01*
X127071250Y-95553000D01*
X127230000Y-95394250D01*
X127233072Y-95180000D01*
X127220812Y-95055518D01*
X127184502Y-94935820D01*
X127125537Y-94825506D01*
X127046185Y-94728815D01*
X126949494Y-94649463D01*
X126839180Y-94590498D01*
X126719482Y-94554188D01*
X126595000Y-94541928D01*
X125980750Y-94545000D01*
X125822000Y-94703750D01*
X125568000Y-94703750D01*
X125409250Y-94545000D01*
X124795000Y-94541928D01*
X124670518Y-94554188D01*
X124550820Y-94590498D01*
X124440506Y-94649463D01*
X124343815Y-94728815D01*
X124264463Y-94825506D01*
X124205498Y-94935820D01*
X124169188Y-95055518D01*
X124156928Y-95180000D01*
X123153072Y-95180000D01*
X123140812Y-95055518D01*
X123104502Y-94935820D01*
X123045537Y-94825506D01*
X122966185Y-94728815D01*
X122869494Y-94649463D01*
X122759180Y-94590498D01*
X122639482Y-94554188D01*
X122515000Y-94541928D01*
X121800750Y-94545000D01*
X121642000Y-94703750D01*
X121388000Y-94703750D01*
X121229250Y-94545000D01*
X120515000Y-94541928D01*
X120390518Y-94554188D01*
X120270820Y-94590498D01*
X120160506Y-94649463D01*
X120063815Y-94728815D01*
X119984463Y-94825506D01*
X119925498Y-94935820D01*
X119889188Y-95055518D01*
X119876928Y-95180000D01*
X111349260Y-95180000D01*
X110627532Y-94458273D01*
X110597870Y-94422130D01*
X110453671Y-94303788D01*
X110289155Y-94215853D01*
X110110644Y-94161702D01*
X109971523Y-94148000D01*
X109971515Y-94148000D01*
X109925000Y-94143419D01*
X109878485Y-94148000D01*
X101614681Y-94148000D01*
X101470399Y-94088236D01*
X101268121Y-94048000D01*
X101061879Y-94048000D01*
X100859601Y-94088236D01*
X100669060Y-94167161D01*
X100497576Y-94281742D01*
X100351742Y-94427576D01*
X100237161Y-94599060D01*
X100158236Y-94789601D01*
X100118000Y-94991879D01*
X100118000Y-95198121D01*
X100158236Y-95400399D01*
X100200146Y-95501579D01*
X100086230Y-95454393D01*
X99903271Y-95418000D01*
X99716729Y-95418000D01*
X99533770Y-95454393D01*
X99361427Y-95525780D01*
X99206323Y-95629417D01*
X99074417Y-95761323D01*
X98970780Y-95916427D01*
X98899393Y-96088770D01*
X98863000Y-96271729D01*
X98863000Y-96358820D01*
X98158821Y-97063000D01*
X98086729Y-97063000D01*
X97903770Y-97099393D01*
X97731427Y-97170780D01*
X97576323Y-97274417D01*
X97444417Y-97406323D01*
X97340780Y-97561427D01*
X97269393Y-97733770D01*
X97233000Y-97916729D01*
X97233000Y-98103271D01*
X97269393Y-98286230D01*
X97340780Y-98458573D01*
X97444417Y-98613677D01*
X97576323Y-98745583D01*
X97731427Y-98849220D01*
X97903770Y-98920607D01*
X98086729Y-98957000D01*
X98273271Y-98957000D01*
X98456230Y-98920607D01*
X98628573Y-98849220D01*
X98783677Y-98745583D01*
X98915583Y-98613677D01*
X99019220Y-98458573D01*
X99090607Y-98286230D01*
X99127000Y-98103271D01*
X99127000Y-98001179D01*
X99816180Y-97312000D01*
X99903271Y-97312000D01*
X100086230Y-97275607D01*
X100258573Y-97204220D01*
X100368000Y-97131103D01*
X100368001Y-103205839D01*
X100368000Y-103205849D01*
X100368000Y-103494872D01*
X99199872Y-104663000D01*
X93586241Y-104663000D01*
X93709177Y-104625708D01*
X93826266Y-104563122D01*
X93928896Y-104478896D01*
X93950007Y-104453172D01*
X94943177Y-103460003D01*
X94968896Y-103438896D01*
X95026410Y-103368815D01*
X95053122Y-103336267D01*
X95115708Y-103219177D01*
X95126075Y-103185000D01*
X95154248Y-103092127D01*
X95164000Y-102993110D01*
X95164000Y-102993109D01*
X95167261Y-102960001D01*
X95164000Y-102926893D01*
X95164000Y-90995260D01*
X95225583Y-90933677D01*
X95329220Y-90778573D01*
X95400607Y-90606230D01*
X95437000Y-90423271D01*
X95437000Y-90236729D01*
X95400607Y-90053770D01*
X95329220Y-89881427D01*
X95225583Y-89726323D01*
X95093677Y-89594417D01*
X94938573Y-89490780D01*
X94766230Y-89419393D01*
X94583271Y-89383000D01*
X94396729Y-89383000D01*
X94213770Y-89419393D01*
X94041427Y-89490780D01*
X93886323Y-89594417D01*
X93754417Y-89726323D01*
X93650780Y-89881427D01*
X93579393Y-90053770D01*
X93543000Y-90236729D01*
X93543000Y-90423271D01*
X93579393Y-90606230D01*
X93650780Y-90778573D01*
X93754417Y-90933677D01*
X93816000Y-90995260D01*
X93816001Y-91656881D01*
X93816000Y-91656891D01*
X93816001Y-102680819D01*
X93170821Y-103326000D01*
X91305260Y-103326000D01*
X91243677Y-103264417D01*
X91088573Y-103160780D01*
X90916230Y-103089393D01*
X90733271Y-103053000D01*
X90546729Y-103053000D01*
X90363770Y-103089393D01*
X90191427Y-103160780D01*
X90036323Y-103264417D01*
X89904417Y-103396323D01*
X89800780Y-103551427D01*
X89729393Y-103723770D01*
X89693000Y-103906729D01*
X89693000Y-104093271D01*
X89729393Y-104276230D01*
X89800780Y-104448573D01*
X89904417Y-104603677D01*
X89963740Y-104663000D01*
X64799518Y-104663000D01*
X64810607Y-104636230D01*
X64847000Y-104453271D01*
X64847000Y-104266729D01*
X64810607Y-104083770D01*
X64739220Y-103911427D01*
X64635583Y-103756323D01*
X64574000Y-103694740D01*
X64574000Y-103339179D01*
X65239180Y-102674000D01*
X84244740Y-102674000D01*
X84306323Y-102735583D01*
X84461427Y-102839220D01*
X84633770Y-102910607D01*
X84816729Y-102947000D01*
X85003271Y-102947000D01*
X85186230Y-102910607D01*
X85358573Y-102839220D01*
X85513677Y-102735583D01*
X85645583Y-102603677D01*
X85749220Y-102448573D01*
X85820607Y-102276230D01*
X85857000Y-102093271D01*
X85857000Y-101906729D01*
X85820607Y-101723770D01*
X85749220Y-101551427D01*
X85688131Y-101460000D01*
X85749220Y-101368573D01*
X85820607Y-101196230D01*
X85857000Y-101013271D01*
X85857000Y-100826729D01*
X85820607Y-100643770D01*
X85749220Y-100471427D01*
X85645583Y-100316323D01*
X85513677Y-100184417D01*
X85358573Y-100080780D01*
X85186230Y-100009393D01*
X85003271Y-99973000D01*
X84816729Y-99973000D01*
X84633770Y-100009393D01*
X84461427Y-100080780D01*
X84306323Y-100184417D01*
X84244740Y-100246000D01*
X64233107Y-100246000D01*
X64199999Y-100242739D01*
X64166891Y-100246000D01*
X64166890Y-100246000D01*
X64067873Y-100255752D01*
X63940823Y-100294292D01*
X63823734Y-100356878D01*
X63721104Y-100441104D01*
X63699997Y-100466823D01*
X62176824Y-101989997D01*
X62151104Y-102011105D01*
X62129998Y-102036823D01*
X62066878Y-102113734D01*
X62053296Y-102139144D01*
X62004292Y-102230824D01*
X61965752Y-102357874D01*
X61956819Y-102448573D01*
X61952739Y-102490000D01*
X61956000Y-102523108D01*
X61956001Y-103694739D01*
X61894417Y-103756323D01*
X61790780Y-103911427D01*
X61719393Y-104083770D01*
X61683000Y-104266729D01*
X61683000Y-104453271D01*
X61719393Y-104636230D01*
X61730482Y-104663000D01*
X52960128Y-104663000D01*
X44439083Y-96141955D01*
X46903000Y-96141955D01*
X46903000Y-96358045D01*
X46945157Y-96569983D01*
X47027851Y-96769624D01*
X47147904Y-96949297D01*
X47300703Y-97102096D01*
X47480376Y-97222149D01*
X47680017Y-97304843D01*
X47891955Y-97347000D01*
X48108045Y-97347000D01*
X48319983Y-97304843D01*
X48519624Y-97222149D01*
X48699297Y-97102096D01*
X48852096Y-96949297D01*
X48972149Y-96769624D01*
X49054843Y-96569983D01*
X49097000Y-96358045D01*
X49097000Y-96141955D01*
X49054843Y-95930017D01*
X48972149Y-95730376D01*
X48852096Y-95550703D01*
X48699297Y-95397904D01*
X48519624Y-95277851D01*
X48319983Y-95195157D01*
X48108045Y-95153000D01*
X47891955Y-95153000D01*
X47680017Y-95195157D01*
X47480376Y-95277851D01*
X47300703Y-95397904D01*
X47147904Y-95550703D01*
X47027851Y-95730376D01*
X46945157Y-95930017D01*
X46903000Y-96141955D01*
X44439083Y-96141955D01*
X43761251Y-95464123D01*
X43736291Y-95433709D01*
X43614932Y-95334113D01*
X43476474Y-95260106D01*
X43326239Y-95214532D01*
X43209151Y-95203000D01*
X43209148Y-95203000D01*
X43170000Y-95199144D01*
X43130852Y-95203000D01*
X35931170Y-95203000D01*
X35778980Y-95050810D01*
X35578834Y-94917077D01*
X35356444Y-94824961D01*
X35120357Y-94778000D01*
X34879643Y-94778000D01*
X34643556Y-94824961D01*
X34421166Y-94917077D01*
X34221020Y-95050810D01*
X34050810Y-95221020D01*
X33917077Y-95421166D01*
X33824961Y-95643556D01*
X33778000Y-95879643D01*
X33778000Y-96120357D01*
X33824961Y-96356444D01*
X33917077Y-96578834D01*
X34050810Y-96778980D01*
X34220407Y-96948577D01*
X34210463Y-96954656D01*
X34021697Y-97128773D01*
X33870527Y-97336371D01*
X33762762Y-97569472D01*
X33732090Y-97670600D01*
X32597000Y-97670600D01*
X32597000Y-91492123D01*
X32804125Y-91802108D01*
X33197892Y-92195875D01*
X33660913Y-92505255D01*
X34175394Y-92718360D01*
X34721565Y-92827000D01*
X35278435Y-92827000D01*
X35824606Y-92718360D01*
X36339087Y-92505255D01*
X36802108Y-92195875D01*
X37195875Y-91802108D01*
X37505255Y-91339087D01*
X37718360Y-90824606D01*
X37827000Y-90278435D01*
X37827000Y-89721565D01*
X37718360Y-89175394D01*
X37505255Y-88660913D01*
X37483717Y-88628679D01*
X59815690Y-88628679D01*
X59815690Y-88834921D01*
X59855926Y-89037199D01*
X59934851Y-89227740D01*
X60049432Y-89399224D01*
X60195266Y-89545058D01*
X60366750Y-89659639D01*
X60557291Y-89738564D01*
X60759569Y-89778800D01*
X60965811Y-89778800D01*
X61168089Y-89738564D01*
X61358630Y-89659639D01*
X61530114Y-89545058D01*
X61675948Y-89399224D01*
X61790529Y-89227740D01*
X61869454Y-89037199D01*
X61909690Y-88834921D01*
X61909690Y-88628679D01*
X62115710Y-88628679D01*
X62115710Y-88834921D01*
X62155946Y-89037199D01*
X62234871Y-89227740D01*
X62349452Y-89399224D01*
X62495286Y-89545058D01*
X62666770Y-89659639D01*
X62857311Y-89738564D01*
X63059589Y-89778800D01*
X63265831Y-89778800D01*
X63468109Y-89738564D01*
X63658650Y-89659639D01*
X63830134Y-89545058D01*
X63975968Y-89399224D01*
X64090549Y-89227740D01*
X64169474Y-89037199D01*
X64209710Y-88834921D01*
X64209710Y-88628679D01*
X64169474Y-88426401D01*
X64090549Y-88235860D01*
X63975968Y-88064376D01*
X63830134Y-87918542D01*
X63658650Y-87803961D01*
X63468109Y-87725036D01*
X63265831Y-87684800D01*
X63059589Y-87684800D01*
X62857311Y-87725036D01*
X62666770Y-87803961D01*
X62495286Y-87918542D01*
X62349452Y-88064376D01*
X62234871Y-88235860D01*
X62155946Y-88426401D01*
X62115710Y-88628679D01*
X61909690Y-88628679D01*
X61869454Y-88426401D01*
X61790529Y-88235860D01*
X61675948Y-88064376D01*
X61530114Y-87918542D01*
X61358630Y-87803961D01*
X61168089Y-87725036D01*
X60965811Y-87684800D01*
X60759569Y-87684800D01*
X60557291Y-87725036D01*
X60366750Y-87803961D01*
X60195266Y-87918542D01*
X60049432Y-88064376D01*
X59934851Y-88235860D01*
X59855926Y-88426401D01*
X59815690Y-88628679D01*
X37483717Y-88628679D01*
X37195875Y-88197892D01*
X36802108Y-87804125D01*
X36492123Y-87597000D01*
X69873000Y-87597000D01*
X69873000Y-95290000D01*
G36*
X122238748Y-102875858D02*
G01*
X122224605Y-102890000D01*
X122238748Y-102904143D01*
X122059143Y-103083748D01*
X122045000Y-103069605D01*
X122030858Y-103083748D01*
X121851253Y-102904143D01*
X121865395Y-102890000D01*
X121851253Y-102875858D01*
X122030858Y-102696253D01*
X122045000Y-102710395D01*
X122059143Y-102696253D01*
X122238748Y-102875858D01*
G37*
X122238748Y-102875858D02*
X122224605Y-102890000D01*
X122238748Y-102904143D01*
X122059143Y-103083748D01*
X122045000Y-103069605D01*
X122030858Y-103083748D01*
X121851253Y-102904143D01*
X121865395Y-102890000D01*
X121851253Y-102875858D01*
X122030858Y-102696253D01*
X122045000Y-102710395D01*
X122059143Y-102696253D01*
X122238748Y-102875858D01*
G36*
X122238748Y-97095858D02*
G01*
X122224605Y-97110000D01*
X122238748Y-97124143D01*
X122059143Y-97303748D01*
X122045000Y-97289605D01*
X122030858Y-97303748D01*
X121851253Y-97124143D01*
X121865395Y-97110000D01*
X121851253Y-97095858D01*
X122030858Y-96916253D01*
X122045000Y-96930395D01*
X122059143Y-96916253D01*
X122238748Y-97095858D01*
G37*
X122238748Y-97095858D02*
X122224605Y-97110000D01*
X122238748Y-97124143D01*
X122059143Y-97303748D01*
X122045000Y-97289605D01*
X122030858Y-97303748D01*
X121851253Y-97124143D01*
X121865395Y-97110000D01*
X121851253Y-97095858D01*
X122030858Y-96916253D01*
X122045000Y-96930395D01*
X122059143Y-96916253D01*
X122238748Y-97095858D01*
M02*
