M48
; DRILL file {KiCad (5.1.6)-1} date 07/24/20 11:40:31
; FORMAT={-:-/ absolute / inch / decimal}
; #@! TF.CreationDate,2020-07-24T11:40:31+08:00
; #@! TF.GenerationSoftware,Kicad,Pcbnew,(5.1.6)-1
; #@! TF.FileFunction,Plated,1,2,PTH
FMAT,2
INCH
T1C0.0138
T2C0.0157
T3C0.0197
T4C0.0236
T5C0.0256
T6C0.0276
T7C0.0315
T8C0.0394
T9C0.0512
T10C0.0992
%
G90
G05
T1
X1.3079Y-3.5433
X1.3283Y-3.4937
X1.3283Y-3.5929
X1.378Y-3.4732
X1.378Y-3.6134
X1.4276Y-3.4937
X1.4276Y-3.5929
X1.448Y-3.5433
X1.3079Y-4.3307
X1.3283Y-4.2811
X1.3283Y-4.3803
X1.378Y-4.2606
X1.378Y-4.4008
X1.4276Y-4.2811
X1.4276Y-4.3803
X1.448Y-4.3307
X4.8512Y-3.5433
X4.8717Y-3.4937
X4.8717Y-3.5929
X4.9213Y-3.4732
X4.9213Y-3.6134
X4.9709Y-3.4937
X4.9709Y-3.5929
X4.9913Y-3.5433
X4.8512Y-4.3307
X4.8717Y-4.2811
X4.8717Y-4.3803
X4.9213Y-4.2606
X4.9213Y-4.4008
X4.9709Y-4.2811
X4.9709Y-4.3803
X4.9913Y-4.3307
T2
X2.4657Y-4.1087
X2.5157Y-4.1087
X2.6173Y-4.2094
X2.6201Y-3.8185
X2.711Y-4.2193
X3.1484Y-4.4043
X3.1496Y-4.2461
X3.3189Y-4.1972
X3.3429Y-3.9732
X3.3429Y-4.0157
X3.5685Y-4.0945
X3.7201Y-3.5563
X3.8654Y-3.8587
X3.9295Y-3.7939
X4.535Y-3.9236
X4.561Y-3.8508
T3
X3.8409Y-4.2197
X3.9829Y-3.7439
X4.3921Y-4.0528
X4.3921Y-4.0988
X4.4394Y-3.7512
X4.6484Y-4.0315
X4.6488Y-3.8425
T4
X1.378Y-3.7795
X1.378Y-3.8583
X1.378Y-3.937
X1.378Y-4.0157
X1.378Y-4.0945
T6
X3.8135Y-3.4934
X3.904Y-3.4934
X2.3962Y-3.4934
X2.4867Y-3.4934
T7
X2.1744Y-3.6697
X2.2543Y-3.6697
X2.2543Y-3.7469
X2.6457Y-3.6622
X2.6882Y-4.3307
X2.7579Y-4.3307
X3.1496Y-3.8673
X3.1496Y-4.076
X3.6091Y-3.6736
X3.8102Y-3.7063
X3.9087Y-4.0016
X4.0154Y-4.3791
X4.7209Y-4.3433
T8
X1.6457Y-4.3236
X3.5945Y-4.3303
X1.8898Y-3.7894
T9
X1.8898Y-4.0846
T10
X1.378Y-3.5433
X1.378Y-4.3307
X4.9213Y-3.5433
X4.9213Y-4.3307
T3
G00X4.7673Y-3.7669
M15
G01X4.8008Y-3.7669
M16
G05
G00X4.7673Y-4.1071
M15
G01X4.8008Y-4.1071
M16
G05
G00X4.9348Y-3.7669
M15
G01X4.9624Y-3.7669
M16
G05
G00X4.9348Y-4.1071
M15
G01X4.9624Y-4.1071
M16
G05
T5
G00X4.8049Y-3.8232
M15
G01X4.8049Y-3.8232
M16
G05
G00X4.8049Y-4.0508
M15
G01X4.8049Y-4.0508
M16
G05
T0
M30
